<?xml version="1.0" encoding="UTF-8"?> <!-- Generator: Adobe Illustrator 23.0.3, SVG Export Plug-In . SVG Version: 6.00 Build 0) --> <svg xmlns="http://www.w3.org/2000/svg" xmlns:xlink="http://www.w3.org/1999/xlink" id="Layer_1" x="0px" y="0px" viewBox="0 0 1449.1 223.6" style="enable-background:new 0 0 1449.1 223.6;" xml:space="preserve"> <style type="text/css"> .st0{enable-background:new ;} .st1{fill:#FFFFFF;} </style> <title>rov</title> <g class="st0"> <path class="st1" d="M134,166.9c3.4,1.7,7.8,2.7,13,2.8v2.3H80.1v-2.3c6.5-0.1,11.1-0.8,13.9-2.1c3.2-1.5,4.9-4.2,4.9-7.7 c0-2.1-0.7-4.3-2.1-6.7c-1.3-2.2-4.6-6.6-10-13.4L54.6,99h-8.8v36.8c0,11.5,0.3,18.8,0.8,22.5c0.6,3.9,2.1,6.8,4.7,8.7 c2.5,1.9,7,2.8,13.6,2.8h3.4v2.3H6.5v-2.3H9c6.3,0,10.6-0.8,13.2-2.6c2.6-1.8,4.2-4.5,5-8.1c0.6-3.4,0.9-11,0.9-23.2V65.2 c0-11.7-0.3-19-0.9-22.4c-0.7-3.7-2.3-6.3-4.8-7.8c-2.3-1.4-7.1-2.1-14.5-2.1H6.5v-2.3L22.8,30c14-0.5,25.1-0.7,32.8-0.7 c14.3,0,25.4,1.2,33.1,3.5c7.5,2.2,13.8,6.3,18.6,12c3.9,4.6,6.2,10.2,6.9,16.9c0,0,0,0,0,0.1c0,0.2,0.1,0.4,0.1,0.7v0.2 c0.3,5.5-0.3,31.7-38.5,35.9l33,41.2C122.1,156.1,130.3,165,134,166.9z M45.7,96.4H57c6.1,0,11.4-0.5,15.8-1.4 c0.3-0.1,0.7-0.1,1-0.2c1.1-0.3,2.1-0.6,3.1-0.9c2.1-0.7,4.2-1.8,6.1-3.2c4.9-3.2,7.9-7.5,9.7-11.7c0,0,0,0,0-0.1 c1.4-3.4,2.1-6.8,2.4-9.6c0,0,0,0,0-0.1c0-0.4,0-0.9,0-1.4c0-12.2-3-21.4-8.9-27.1c-5.9-5.8-15.5-8.7-28.5-8.7 c-4.7,0-8.4,0.2-10.9,0.4l-1.1,0.1V96.4z"></path> </g> <g class="st0"> <path class="st1" d="M358.1,101.4c0,21.8-6.9,39.7-20.6,53.2c-13.7,13.5-32,20.3-54.5,20.3c-21.8,0-40-6.8-53.9-20.4 c-13.9-13.5-21-31.6-21-54c0-21.7,7.2-39.4,21.3-52.6c14.2-13.2,32.1-19.8,53.3-19.8c21.4,0,39.6,6.6,53.9,19.6 C350.9,60.9,358.1,78.9,358.1,101.4z M336.9,101.7c0-22.6-4.6-40.1-13.8-52.3C313.8,37.2,300.3,31,282.8,31c-17.2,0-30.6,6-39.8,18 c-9.1,11.8-13.8,29.5-13.8,52.5c0,23.4,4.6,41.2,13.8,53c9.2,11.9,23.2,17.9,41.5,17.9c16.1,0,29-6,38.4-17.9 C332.2,142.6,336.9,124.9,336.9,101.7z"></path> </g> <g class="st0"> <path class="st1" d="M463,31h40.2v2.3c-4.1,0.4-7.8,2.1-11.1,5c-3.4,3.2-6.4,7.8-8.9,13.9l-9.4,22.6l-41.3,100.9h-4.7l-48-113.7 c-0.9-2-2.3-5.6-4.2-10.6c-2.8-7.1-5.7-11.8-8.9-14.3c-3-2.4-7.6-3.7-13.9-3.9V31h57.8v2.3c-7,0.1-11.8,0.7-14.4,1.8 c-3,1.3-4.7,4-4.7,7.7c0,1.4,0.5,4.6,5,15l41.5,98.4l33.5-82.4c5.6-13.6,8.3-22.3,8.3-26.5c0-8.6-5.7-13.3-16.8-13.9V31z"></path> </g> <g class="st0"> <path class="st1" d="M591.1,33.2V31h62.6v2.3h-2.2c-7.2,0-11.8,0.6-14.2,1.9c-2.5,1.3-4.1,3.8-4.9,7.4c-0.7,3.3-1.1,10.8-1.1,23 v94.1c0,12.1-0.4,21.4-1.4,27.6c-0.9,6.1-3.5,12.2-7.6,18.1c-4.1,5.8-9.7,10.4-16.6,13.5c-6.9,3.2-15.1,4.8-24.3,4.8 c-10.3,0-18.3-1.9-23.8-5.8c-5.4-3.8-8-8.1-8-13.2h0c0-0.1,0-0.1,0-0.2c0-4,3.3-7.3,7.3-7.3c3.8,0,6.8,2.9,7.2,6.6l0.1,0 c0,0,0,0.1,0,0.1c0,0.2,0.1,0.4,0.1,0.6c0,0.3-0.1,0.5-0.1,0.8l0,0c-0.6,4.9-0.2,6.9,0.1,7.7c1.1,2.3,2.8,4,4.1,5 c1.2,0.9,2.1,1.3,2.1,1.3c2.8,1.4,6.2,2,10.3,2c8.1,0,15.1-2.7,20.7-8c5.6-5.3,9-11.7,10.1-18.9c1.1-7,1.7-18.7,1.7-34.8V65.5 c0-11.7-0.3-19-1-22.5c-0.7-3.7-2.3-6.3-4.7-7.8c-2.3-1.4-7.1-2.1-14.5-2.1H591.1z"></path> </g> <g class="st0"> <path class="st1" d="M776.8,130.1h2.6l-2.8,42.2H670.7v-2.3h1.6c7.4,0,12.1-1.1,14.4-3.2c2.2-2.1,3.7-4.8,4.3-8 c0.6-3.1,0.8-10.5,0.8-22.7V65.5c0-11.2-0.3-18.3-0.9-21.9c-0.6-3.8-2.2-6.6-4.6-8.2c-2.2-1.4-6.4-2.2-12.7-2.3v-2.3h97.8l3.1,33.3 h-2.4c-2.2-9.8-4.9-16.7-8.2-20.9c-3.4-4.4-7.4-7.3-12.1-8.4c-4.5-1.1-11.8-1.7-21.6-1.7h-20.7l-0.1,63.6v2.5l0.1,34.9 c0,23.3,2,28.8,3.5,30.9c2.4,3.4,8.4,5,18.3,5h2.6c7.5,0,13.8-1,18.7-3c5-2,9.7-6.2,14.2-12.5C770.9,148.6,774.3,140.4,776.8,130.1 z M916.7,166.9c3.4,1.7,7.8,2.7,13.1,2.8v2.3h-67v-2.3c6.5-0.1,11.1-0.8,13.9-2.1c3.2-1.5,4.9-4.2,4.9-7.7c0-2.1-0.7-4.3-2.1-6.7 c-1.3-2.2-4.6-6.6-10-13.4L837.3,99h-8.8v36.8c0,11.5,0.3,18.9,0.8,22.5c0.6,3.9,2.2,6.8,4.7,8.7c2.5,1.9,7,2.8,13.6,2.8h3.4v2.3 h-61.7v-2.3h2.5c6.3,0,10.6-0.8,13.2-2.6c2.6-1.8,4.2-4.5,5-8.1c0.6-3.4,0.9-11,0.9-23.3V99h-42.2v0h-5.2c-7.1,0-11.9,0.6-14.8,1.9 c-3,1.3-5.1,3.4-6.1,6.2c-0.9,2.4-1.3,6.9-1.4,13.4h-2.3V73.9h2.3c0.1,7.5,0.8,12.6,2.1,15.4c1.5,3.1,3.7,5.1,6.5,6 c2.7,0.9,7,1.3,13.2,1.3h5.8l42.2-0.2V65.2c0-11.7-0.3-19-0.9-22.4c-0.7-3.7-2.3-6.3-4.8-7.8c-2.3-1.4-7.1-2.1-14.5-2.1h-1.3v-2.3 l16.4-0.6c14.1-0.5,25.1-0.7,32.9-0.7c14.3,0,25.4,1.2,33.1,3.5c7.6,2.2,13.8,6.3,18.6,12c3.9,4.6,6.2,10.3,6.9,16.9c0,0,0,0,0,0.1 c0,0.2,0.1,0.4,0.1,0.7v0.2c0.3,5.5-0.3,31.8-38.5,35.9l33,41.2C904.8,156.1,913,165,916.7,166.9L916.7,166.9z M856.5,94.6 c1.1-0.3,2.2-0.6,3.1-0.9c2.1-0.7,4.2-1.8,6.1-3.2c4.9-3.2,7.9-7.5,9.7-11.7c0,0,0,0,0-0.1c1.4-3.4,2.1-6.8,2.4-9.6c0,0,0,0,0-0.1 c0-0.4,0-0.9,0-1.4c0-12.2-3-21.4-8.9-27.2c-5.9-5.8-15.5-8.7-28.5-8.7c-4.7,0-8.4,0.2-10.9,0.4l-1.1,0.1v64h11.3 c6.1,0,11.4-0.5,15.8-1.4C855.9,94.8,856.2,94.7,856.5,94.6z"></path> </g> <g class="st0"> <path class="st1" d="M995.2,170.1v2.3h-61.5v-2.3h2.9c6.3,0,10.6-0.8,13.2-2.6c2.6-1.7,4.3-4.5,4.9-8.1c0.6-3.4,1-11,1-23.2V65.6 c0-11.7-0.3-19-1-22.4c-0.7-3.7-2.3-6.3-4.7-7.8c-2.4-1.4-7.1-2.1-14.5-2.1h-1.7V31h61.5v2.3h-1.7c-7.2,0-11.8,0.6-14.1,1.9 c-2.5,1.3-4.1,3.8-4.9,7.4c-0.8,3.3-1.1,10.8-1.1,23v70.6c0,11.5,0.3,18.9,0.8,22.4c0.6,3.8,2.1,6.8,4.6,8.7 c2.5,1.9,6.9,2.8,13.6,2.8H995.2z"></path> </g> <g class="st0"> <path class="st1" d="M1140.7,120.9h2v47.8h-2.1c-0.5-2.9-1.2-5.1-2-6.9c-0.1-0.3-0.2-0.6-0.4-0.8c0-0.1-0.1-0.2-0.1-0.3 c-0.1-0.2-0.2-0.5-0.4-0.7c0-0.1-0.1-0.1-0.1-0.2c0-0.1-0.1-0.1-0.1-0.2c-0.1-0.2-0.3-0.5-0.4-0.7c-2.1-3.1-4.6-3-5.6-2.8 c-1.3,0.3-2.4,1.1-3.1,1.6c-0.2,0.2-0.5,0.4-0.6,0.5c0,0-0.1,0.1-0.1,0.1c-0.1,0.1-0.2,0.2-0.2,0.2l0.1-0.1 c-0.1,0.1-0.1,0.1-0.1,0.1l0,0c-11.3,10.8-25.3,16.3-41.7,16.3c-19.8,0-36.2-6.5-48.8-19.4c-12.6-12.8-18.9-30.1-18.9-51.3 c0-13.9,2.9-27.3,8.8-39.6c5.8-12.3,14-21.5,24.3-27.4c10.4-5.9,21.9-9,34.3-9c10.2,0,19.6,2.2,27.9,6.5c5.3,2.7,9.7,5.7,13.3,8.8 l0-0.1c0,0,2.2,2.6,5.4,2.7c1.6-0.2,3.5-1.1,5-4.2c1.2-3.6,2.1-7.2,2.5-11h2.1l1.2,52h-2.1c-3.2-19.1-9.7-32.6-19.3-40.2 c-9.7-7.7-20.9-11.6-33.1-11.6c-15,0-27.2,6.4-36,18.9c-8.8,12.4-13.2,30.3-13.2,53.3c0,21.8,4.8,38.8,14.5,50.5 c9.6,11.8,21.8,17.7,36.2,17.7c7.7,0,15.6-1.9,23.6-5.7c8.1-3.9,14.6-10.5,19.3-19.7C1136.9,137.5,1139.7,129,1140.7,120.9z"></path> <path class="st1" d="M1244.8,31h61.2v2.3h-0.8c-7.2,0-11.8,0.6-14.1,1.9c-2.5,1.3-4.1,3.8-4.9,7.4c-0.8,3.3-1.1,10.9-1.1,23v70.6 c0,11.5,0.3,18.8,0.8,22.4c0.6,3.8,2.1,6.8,4.7,8.7c2.5,1.9,7,2.8,13.6,2.8h1.9v2.3h-61.2v-2.3h3.6c6.2,0,10.5-0.8,13.1-2.6 c2.6-1.7,4.3-4.5,4.9-8.1c0.6-3.4,1-11,1-23.2V98.4h-75.7v37.8c0,11.5,0.3,18.9,0.8,22.5c0.6,3.8,2.2,6.7,4.7,8.6 c2.5,1.9,6.9,2.8,13.5,2.8h2.3v2.3h-60.5v-2.3h2.3c6.3,0,10.6-0.8,13.2-2.6c2.6-1.7,4.3-4.5,5-8.1c0.7-3.4,1-11,1-23.3V65.6 c0-11.7-0.3-19-1-22.5c-0.7-3.7-2.3-6.3-4.7-7.8c-2.3-1.4-7.1-2.1-14.5-2.1h-1.3V31h60.5v2.3h-1.3c-7.1,0-11.7,0.6-14,1.9 c-2.5,1.3-4.1,3.8-4.9,7.4c-0.8,3.3-1.1,10.9-1.1,23l0.1,31.1h75.7l-0.1-31.1c0-11.7-0.3-19-1-22.4c-0.7-3.7-2.3-6.3-4.7-7.8 c-2.3-1.4-7.1-2.1-14.5-2.1h-2.4V31z"></path> <path class="st1" d="M1449.1,101.4c0,21.8-6.9,39.7-20.6,53.2c-13.7,13.5-32,20.3-54.5,20.3c-21.8,0-40-6.8-53.9-20.4 c-13.9-13.5-21-31.6-21-54c0-21.7,7.2-39.4,21.3-52.6c14.2-13.2,32.1-19.8,53.3-19.8c21.4,0,39.6,6.6,53.9,19.6 C1441.8,60.9,1449.1,78.9,1449.1,101.4z M1427.9,101.7c0-22.6-4.6-40.1-13.8-52.3c-9.2-12.2-22.8-18.4-40.3-18.4 c-17.2,0-30.6,6-39.8,18c-9.1,11.8-13.8,29.5-13.8,52.5c0,23.4,4.6,41.2,13.8,53c9.2,11.9,23.2,17.9,41.5,17.9 c16.1,0,29-6,38.4-17.9C1423.1,142.6,1427.9,124.9,1427.9,101.7z"></path> </g> </svg> 