<?xml version="1.0" encoding="UTF-8"?> <svg xmlns="http://www.w3.org/2000/svg" id="Layer_1" data-name="Layer 1" viewBox="0 0 1425.6 1425.6"> <defs> <style>.cls-1{fill:#fff;}.cls-2{fill:#fefefe;}.cls-3{fill:#84cadd;}</style> </defs> <title>SMURPHYS</title> <circle cx="713" cy="712" r="675"></circle> <path class="cls-1" d="M1130.93,709.9c-56.14,67-120.57,130-200.14,174.26S754.9,952.83,662.45,938.63A356.4,356.4,0,0,1,553.8,903.17c-47.24-24.32-87.37-58-127-91.4L269.63,679.51c-3.21-2.7-6.57-5.63-7.57-9.46-1.4-5.3,2.1-10.55,5.55-15,50.84-66.12,126.25-115.46,208.85-147.17s172.32-46.57,262-52.54c38.89-2.58,78.93-3.41,115.83,7.83,50.62,15.42,89.25,51.48,126.62,85.6q80.21,73.24,165.37,142"></path> <path class="cls-1" d="M1109.71,688.69c-26.34,31.4-54.18,61.6-84.37,89.36q-11.25,10.35-22.93,20.22-5.86,5-11.83,9.75l-5.33,4.25c-.66.51-5.21,4.05-1,.8s-.86.65-1.71,1.29a574.36,574.36,0,0,1-51.87,35.21,503.85,503.85,0,0,1-63,32l7.16-3a457,457,0,0,1-114.07,31.56l8-1.08a380.68,380.68,0,0,1-99.35.54l8,1.07a359.05,359.05,0,0,1-91.08-25l7.16,3a400.36,400.36,0,0,1-64.69-35.25c-10.38-6.91-20.51-14.2-30.44-21.75-.92-.71-1.85-1.5-2.82-2.16,7.2,4.88,2,1.54.45.34q-3.51-2.74-7-5.51-7.29-5.8-14.48-11.73c-41-33.69-81.27-68.23-121.86-102.39l-35.09-29.53L300,666c-3.05-2.57-6.13-5.11-9.15-7.7-.81-.69-1.62-1.36-2.4-2.08a29.19,29.19,0,0,1-2.22-2.23q4.41,6.28,2.21,2.32l3,7.16a9.55,9.55,0,0,1-.76-3l1.07,8v-1.59l-1.07,8a19.93,19.93,0,0,1,1.24-4.66l-3,7.17a38.06,38.06,0,0,1,3.06-5.14c.71-1,3.18-4.21.15-.28-2.86,3.71-1,1.33-.41.55,2.48-3.07,4.94-6.14,7.49-9.15q7.41-8.77,15.35-17.07a412.27,412.27,0,0,1,34.5-32.1q4.35-3.6,8.78-7.1c5-4-4.39,3.31-.32.23,1.72-1.3,3.44-2.6,5.18-3.89q9.49-7,19.32-13.57,20.18-13.46,41.57-25,24.14-13,49.44-23.66l-7.17,3c63.74-26.8,131.49-42.71,199.86-52l-8,1.07q41.13-5.52,82.57-8.13c27.21-1.76,54.58-2.53,81.68,1l-8-1.07a203.08,203.08,0,0,1,51.12,13.79l-7.17-3c19.17,8.26,36.72,19.38,53.39,31.86,3.86,2.89-1.91-1.5-2.17-1.7,1.09.81,2.15,1.69,3.22,2.54,1.92,1.52,3.83,3.07,5.73,4.63q6.33,5.19,12.51,10.58c7.79,6.77,15.44,13.71,23.07,20.68Q1006.53,612.68,1061,659q31.74,26.85,64.09,53c6.39,5.17,12.66,8.78,21.21,8.78,7.36,0,16.15-3.26,21.21-8.78,10-10.93,13-31.9,0-42.43Q1081.45,600,999.74,525.34c-24.56-22.44-49.46-44.94-77.5-63a257.28,257.28,0,0,0-48.07-24c-18-6.86-36.75-10.25-55.83-12.54-35.8-4.3-72.3-1.42-108.09,1.74A1133.79,1133.79,0,0,0,596.83,443c-69.3,13.28-137.39,35-199.87,68.14-56.06,29.7-108.75,69.49-148.15,119.56-8.65,11-17.91,22.79-17,37.78s8.7,25.57,19.69,34.82l44.24,37.24,87.73,73.83C437.72,860.05,491.85,908.94,557.36,938a400.79,400.79,0,0,0,112,31.59c35.84,4.68,71.6,3.32,107.32-1.61,67.89-9.36,133.55-35,191.62-71.14,57.09-35.51,107.77-80.8,152.95-130.38q15.81-17.36,30.86-35.37c5.22-6.23,8.79-12.82,8.79-21.22,0-7.36-3.27-16.14-8.79-21.21-11.12-10.2-31.66-12.84-42.43,0Z"></path> <path d="M931.5,697.59c.34,85.86-61.43,174.83-154.89,202-10.67,3.11-21.57,6.82-32.49,6.54-10.29-.27-19.91,3.08-30.19,2.43-68.83-4.31-128.1-29.33-173.75-81.85-22-25.27-34.07-55.75-36.94-89.49-1.48-17.4-2.33-34.86-1.18-52.26,1.78-27,4.77-54,13.77-79.8,15.45-44.37,45.75-74.64,88.36-93.33a299,299,0,0,1,107.43-25.09c45.22-2,85.39,12.38,121.66,38.7,43.1,31.28,76.06,70.2,91.41,122.21A160.54,160.54,0,0,1,931.5,697.59Zm-353-2.9c-.95,77.49,61.68,149,150,135.19,58.82-9.21,117-54.54,120.78-128.84,1.43-28.4-3.41-54-19.58-77.88C804.3,585.55,721.59,548.85,665.46,576c-19.36,9.36-39.18,17.63-54.8,33C586.75,632.61,579,662.28,578.54,694.69Z"></path> <path class="cls-2" d="M567,694.45c.48-35.14,8.89-67.31,34.82-92.88,16.93-16.7,38.41-25.66,59.39-35.8C722,536.35,811.67,576.13,839.28,616.9c17.53,25.87,22.77,53.64,21.22,84.43C856.44,781.87,793.34,831,729.58,841,633.81,856,565.91,778.44,567,694.45ZM705.17,610A74.84,74.84,0,0,0,661,622.61C633,641,622.06,687.94,630,716.4c12.73,45.59,66.53,71.46,111.61,62.41,56.67-11.37,71.8-83.93,51.54-119.24C773.7,625.64,742.8,611.69,705.17,610Z"></path> <path class="cls-3" d="M705.17,610c37.63,1.66,68.53,15.61,88,49.54,20.26,35.31,5.13,107.87-51.54,119.24C696.54,787.86,642.74,762,630,716.4c-8-28.46,3-75.41,30.94-93.79A74.84,74.84,0,0,1,705.17,610Zm43.08,84.36c0-16.36-15.84-33.42-31.41-33.8-17.25-.41-34.88,16.93-34.67,34.11s15.17,31.55,32.92,31.76C733.2,726.67,748.24,712.13,748.25,694.39Z"></path> <path d="M748.25,694.39c0,17.74-15,32.28-33.16,32.07-17.75-.21-32.71-14.64-32.92-31.76s17.42-34.52,34.67-34.11C732.41,661,748.27,678,748.25,694.39Z"></path> <path class="cls-1" d="M1129.05,1004.37A686.41,686.41,0,0,0,1027.4,859.45c-10.6-11.63-31.82-11.56-42.43,0-11.41,12.44-11.31,30,0,42.43q14.16,15.52,27.32,31.91c1.11,1.39,2.23,2.79,3.33,4.2.64.81,4.67,6,1.5,1.9s.26.34.92,1.22q1.62,2.13,3.23,4.28,6.42,8.6,12.54,17.4a654.75,654.75,0,0,1,43.43,71.86c7.26,13.94,27.89,19.25,41,10.76,14.2-9.15,18.53-26.13,10.76-41Z"></path> <path class="cls-1" d="M921.21,1086.2q-12.54-23.35-22.91-47.75l3,7.17a575.21,575.21,0,0,1-35.59-118.77c-1.3-7-7.82-14.44-13.79-17.93-6.43-3.76-15.91-5.35-23.12-3-16.55,5.36-24,20.33-21,36.9a598.44,598.44,0,0,0,61.53,173.68c7.43,13.85,27.77,19.33,41,10.77,14.07-9.07,18.72-26.24,10.77-41Z"></path> <path class="cls-1" d="M483.38,873.41a599.31,599.31,0,0,1-25.15,72.9l3-7.16a599.66,599.66,0,0,1-31.73,64.2c-7.78,13.63-3.66,33.43,10.76,41.05,14.26,7.53,32.74,3.79,41.05-10.77a626.21,626.21,0,0,0,59.91-144.27c4.15-15.12-5.15-33.3-21-36.9s-32.46,4.75-36.91,20.95Z"></path> <path class="cls-1" d="M352.13,753.68q-23.47,35.67-48.55,70.26-12.25,16.9-24.89,33.53-3.45,4.53-6.92,9c-3.3,4.3,2.91-3.74.63-.81l-2.91,3.75q-7,9-14.12,17.87c-5.15,6.46-8.78,12.62-8.78,21.22,0,7.36,3.27,16.15,8.78,21.21,5.72,5.25,13.23,9.15,21.22,8.79,7.43-.33,16.35-2.71,21.21-8.79,37.53-47,73.06-95.55,106.14-145.79,8.65-13.13,3-33.75-10.76-41-15-7.94-31.82-3.26-41.05,10.76Z"></path> <path class="cls-1" d="M1028.16,544.63l76.59-119.06c8.5-13.22,3.14-33.7-10.77-41-14.89-7.87-32-3.35-41,10.76L976.35,514.35c-8.51,13.22-3.15,33.7,10.76,41,14.89,7.87,32,3.35,41.05-10.76Z"></path> <path class="cls-1" d="M925.57,453.69a1408.71,1408.71,0,0,0,43.6-136.19c4-15.15-5-33.28-21-36.9-15.72-3.59-32.6,4.72-36.9,20.95a1408.71,1408.71,0,0,1-43.6,136.19c-2.6,6.89-.56,17,3,23.12s10.78,12.16,17.93,13.79c7.68,1.75,16.3,1.37,23.12-3s10.89-10.25,13.79-17.93Z"></path> <path class="cls-1" d="M786.75,431.57c3.42-18.83,2.21-36.28-1.22-55-2.64-14.45-6.16-28.67-8.18-43.23l1.07,8A315.53,315.53,0,0,1,775.79,293c.35-15.7-14-30.72-30-30-16.56.74-29.63,13.18-30,30a351.78,351.78,0,0,0,4,58.17c2.45,17,7,33.62,9.41,50.64l-1.07-8a102.86,102.86,0,0,1,.34,26.06l1.07-8c-.17,1.24-.38,2.47-.62,3.7-1.47,8.09-1.26,15.8,3,23.12,3.65,6.22,10.78,12.15,17.93,13.78,14.68,3.35,33.9-4.44,36.91-20.95Z"></path> <path class="cls-1" d="M646.24,435.28l-35.48-82.49L593.21,312c-3.3-7.67-6-14.83-12.42-20.64-6.56-6-15-9.87-24-9.66-5.36.13-11.4,1.56-15.9,4.46-4.88,3.15-7.79,6.91-11.36,11.54-4.4,5.72-4.83,16.54-3,23.12,1.91,7,7.29,14.5,13.78,17.93,7,3.67,15.4,5.52,23.12,3,8-2.57,12.89-7.23,17.93-13.79l.6-.77L571.18,338l.76-.36-15.14,4.09h.88l-8-1.08.94.31-7.16-3-4.19-3.37q-4.51-6.71-2.84-3.66a44.87,44.87,0,0,0,1.83,4.14l3.51,8.16,7.41,17.22,15.21,35.35,30,69.79c2.77,6.42,11.54,12,17.93,13.79,7.18,2,16.75,1.08,23.12-3s12-10.28,13.79-17.93c1.91-8.39.34-15.28-3-23.11Z"></path> <path class="cls-1" d="M488,477q-44.42-41.94-85.74-87c-10.64-11.59-31.79-11.58-42.43,0-11.38,12.41-11.34,30.06,0,42.43q41.3,45,85.74,87c11.42,10.78,31.25,12.18,42.43,0,10.73-11.69,12.19-30.91,0-42.42Z"></path> <path class="cls-1" d="M643.59,956.27a1312.89,1312.89,0,0,1-33,145.43c-4.32,15.08,5.28,33.33,21,36.9,16,3.65,32.27-4.8,36.9-20.95a1312.89,1312.89,0,0,0,33-145.43c1.37-8.18,1.31-15.71-3-23.12-3.65-6.22-10.78-12.15-17.93-13.78-14.5-3.31-34.13,4.4-36.91,20.95Z"></path> </svg> 