<?xml version="1.0" encoding="UTF-8"?> <svg xmlns="http://www.w3.org/2000/svg" id="Layer_1" data-name="Layer 1" viewBox="0 0 1358 729"> <title>SPHERES-TEXT</title> <path d="M408.8,197.67q-1.87,62.1.36,124.24c.22,6.25,10,6.28,9.74,0q-2.23-62.1-.36-124.24c.19-6.27-9.55-6.27-9.74,0Z"></path> <path d="M389.83,227.48a160,160,0,0,1,53.95-9.21c6.27,0,6.28-9.71,0-9.74a168.57,168.57,0,0,0-56.54,9.56c-5.87,2-3.35,11.47,2.59,9.39Z"></path> <path d="M377.31,264.56A279.05,279.05,0,0,0,447.09,251c5.92-2,3.38-11.37-2.59-9.39a268.86,268.86,0,0,1-67.19,13.25c-6.23.4-6.27,10.14,0,9.74Z"></path> <path d="M382.84,309.37a221.07,221.07,0,0,0,76.42-9.26c6-1.81,3.43-11.22-2.59-9.39a213,213,0,0,1-73.83,8.91c-6.27-.35-6.25,9.39,0,9.74Z"></path> <path d="M655.44,186.86q-1.94,65.1.18,130.24c.2,6.25,9.94,6.28,9.74,0q-2.11-65.12-.18-130.24c.19-6.27-9.55-6.27-9.74,0Z"></path> <path d="M635.34,220.35a203.19,203.19,0,0,1,55.44-7.28c6.27.05,6.28-9.69,0-9.74a213,213,0,0,0-58,7.63c-6,1.66-3.48,11.06,2.59,9.39Z"></path> <path d="M634.23,256.59a277.92,277.92,0,0,0,55.16-8.19c6.07-1.54,3.5-10.93-2.59-9.39a263.86,263.86,0,0,1-52.57,7.84c-6.24.3-6.28,10,0,9.74Z"></path> <path d="M631.65,302.27a204.05,204.05,0,0,0,68.57-8.09c6-1.76,3.44-11.17-2.59-9.39a195.72,195.72,0,0,1-66,7.74c-6.26-.34-6.24,9.4,0,9.74Z"></path> <path d="M968.77,267.47c-4.88,4.94-11,0-14.64-3.89-4.5-4.79-9.26-10.58-11.55-16.82-5-13.53,5.25-26.59,16.41-33.12,4.67-2.73,11.45-6,16.94-3.84,5.89,2.3,7.8,10.94,9.32,16.35,1.82,6.48,4.21,14.51,1.88,21.11-1.91,5.4-6.62,9.35-11,12.71-4.92,3.75-.07,12.21,4.92,8.41s10.16-8,13.37-13.69c3.8-6.69,3.72-13.87,2.47-21.26-2.18-12.93-6.61-32.16-22.34-33.84-13.39-1.44-27.68,8.59-35.34,18.77-9.32,12.38-9.83,27.57-1.17,40.42,7.64,11.34,23.72,29.68,37.66,15.58,4.4-4.46-2.48-11.36-6.89-6.89Z"></path> <path d="M949.56,217.92l27.68,58.64c2.67,5.66,11.07.72,8.41-4.92L958,213c-2.68-5.66-11.08-.73-8.41,4.92Z"></path> <path d="M1036.81,183.28a1015.6,1015.6,0,0,1,9.5,140c0,6.27,9.73,6.28,9.74,0a1034.34,1034.34,0,0,0-9.85-142.64c-.85-6.18-10.24-3.55-9.39,2.59Z"></path> <path d="M1013.55,214.91q29.31-1.66,58.66-2.13c6.26-.1,6.28-9.84,0-9.74q-29.36.47-58.66,2.13c-6.23.36-6.27,10.1,0,9.74Z"></path> <path d="M1019.68,263.23a235.9,235.9,0,0,1,65.05-9.38c6.26,0,6.28-9.76,0-9.74a245.74,245.74,0,0,0-67.64,9.73c-6,1.74-3.45,11.15,2.59,9.39Z"></path> <path d="M239.65,446.42c-2.24-12.37-4.66-25.51-12.07-36-6.08-8.58-16.3-15.6-27.22-14.94-26.5,1.58-27.58,36.67-26.74,56,.64,14.85,2.45,29.67,3.89,44.46l2.17,22.42c.67,6.82.52,14.42,2.41,21,3.43,12,17.13,12.61,27.53,11.48s20.53-4.93,26.61-13.76c3.89-5.63,5.1-12.51,5.5-19.22.47-7.85.29-15.79,0-23.65a356.41,356.41,0,0,0-5.39-49.52c-1.1-6.16-10.48-3.55-9.39,2.59a335.91,335.91,0,0,1,4.56,37.54c.75,11.56,1.46,23.56.33,35.12-.92,9.46-5.68,16.59-14.9,19.55a42.15,42.15,0,0,1-11.74,1.91c-3.62.11-9.93.69-12.62-2.32-1.75-2-1.67-5.47-1.91-7.93-.32-3.21-.62-6.41-.93-9.61l-1.87-19.22c-1.19-12.22-2.45-24.44-3.53-36.67-1-11.73-1.86-23.68-.57-35.42.87-7.86,3.13-17.65,9.92-22.58,8.32-6,19.22-.27,24.81,6.75,7.64,9.58,9.64,22.85,11.75,34.54,1.12,6.15,10.51,3.55,9.4-2.59Z"></path> <path d="M175.92,461.74q29.7-12,59.86-22.84c5.86-2.11,3.33-11.52-2.59-9.4Q203,440.33,173.33,452.35c-5.73,2.32-3.23,11.75,2.59,9.39Z"></path> <path d="M186.13,509.22a381.08,381.08,0,0,1,57-27c5.82-2.17,3.3-11.59-2.59-9.39a396.94,396.94,0,0,0-59.34,27.94c-5.43,3.13-.53,11.55,4.92,8.41Z"></path> <path d="M655.22,446.42c-2.24-12.37-4.66-25.51-12.08-36-6.07-8.58-16.3-15.6-27.22-14.94-26.49,1.58-27.57,36.67-26.73,56,.64,14.85,2.45,29.67,3.89,44.46l2.17,22.42c.67,6.82.52,14.42,2.41,21,3.43,12,17.13,12.61,27.53,11.48s20.53-4.93,26.61-13.76c3.89-5.63,5.1-12.51,5.5-19.22.47-7.85.28-15.79,0-23.65a356.41,356.41,0,0,0-5.39-49.52c-1.1-6.16-10.48-3.55-9.39,2.59a335.91,335.91,0,0,1,4.56,37.54c.74,11.56,1.46,23.56.33,35.12-.92,9.46-5.68,16.59-14.9,19.55a42.15,42.15,0,0,1-11.74,1.91c-3.62.11-9.93.69-12.62-2.32-1.76-2-1.67-5.47-1.91-7.93-.32-3.21-.62-6.41-.94-9.61l-1.86-19.22c-1.19-12.22-2.45-24.44-3.53-36.67-1-11.73-1.86-23.68-.57-35.42.87-7.86,3.13-17.65,9.92-22.58,8.32-6,19.21-.27,24.81,6.75,7.64,9.58,9.64,22.85,11.75,34.54,1.12,6.15,10.51,3.55,9.4-2.59Z"></path> <path d="M591.49,461.74q29.7-12,59.86-22.84c5.86-2.11,3.33-11.52-2.59-9.4q-30.15,10.83-59.86,22.85c-5.73,2.32-3.23,11.75,2.59,9.39Z"></path> <path d="M601.7,509.22a381,381,0,0,1,57-27c5.82-2.17,3.3-11.59-2.58-9.39a396.94,396.94,0,0,0-59.34,27.94c-5.43,3.13-.53,11.55,4.92,8.41Z"></path> <path d="M542.11,446.87c-8.88,7.74-21.87,4.19-27.28-5.68-5.16-9.4-7.31-28.49,3.15-35.07a28.41,28.41,0,0,1,17.24-3.88c6.68.64,11,4.81,13.74,10.73s5,13.93,4,20.46-6.58,10.77-11.48,14.6,2,10.71,6.88,6.89c5.26-4.11,10.31-8.58,12.84-14.92,2.94-7.36,1.49-15.59-.57-23-1.82-6.5-4.56-13.23-9.59-17.93s-12-6.84-19-6.66c-13.64.34-27.43,7.3-30.1,21.68-2.41,13-.13,29,9.41,38.74,10.2,10.42,26.88,10.28,37.61.92,4.74-4.13-2.18-11-6.88-6.89Z"></path> <path d="M525.72,378.24A1018.22,1018.22,0,0,1,529,540.74c-.38,6.26,9.36,6.24,9.74,0a1018.22,1018.22,0,0,0-3.26-162.5c-.62-6.18-10.37-6.25-9.74,0Z"></path> <path d="M701.36,536.55c-1.37-19.74-2.73-39.49-2.63-59.29.08-17.17-.74-38.19,9-53.19,3.79-5.83,9.86-11.06,17.06-11.55,7.46-.5,14.24,4.13,18.87,9.59,11.22,13.24,12.42,34,14.06,50.51,2.18,22.06,2.54,44.25,2.9,66.4.1,6.26,9.84,6.28,9.74,0-.36-22.15-.71-44.34-2.9-66.4-1.87-18.82-3.55-40.54-15.73-55.95-11.09-14-29.9-18.67-44.33-6.76-15,12.37-17.06,33.25-18,51.34-1.27,25.11.48,50.25,2.21,75.3.43,6.22,10.17,6.26,9.74,0Z"></path> <path d="M1051.5,387.34a1498.89,1498.89,0,0,1-.67,153.45h9.74l-.06-5.71c-.08-6.26-9.82-6.28-9.74,0l.06,5.71c.08,6.31,9.4,6.23,9.74,0a1498.89,1498.89,0,0,0,.67-153.45c-.3-6.25-10-6.28-9.74,0Z"></path> <path d="M1017.71,419.26l76.4,1.12c6.27.09,6.27-9.65,0-9.74l-76.4-1.12c-6.27-.09-6.27,9.65,0,9.74Z"></path> <path d="M1027.46,465.24q29.36-.48,58.65-2.71c6.21-.47,6.26-10.22,0-9.74q-29.28,2.23-58.65,2.71c-6.26.11-6.28,9.85,0,9.74Z"></path> <path d="M1013.59,515.15a784.05,784.05,0,0,0,88.73,1.13c6.24-.28,6.27-10,0-9.74a784.05,784.05,0,0,1-88.73-1.13c-6.26-.43-6.23,9.31,0,9.74Z"></path> <path d="M62.76,212c-.06,15.85-.3,31.72-.18,47.57.05,6,1.54,11.42,6.74,14.94,4.7,3.17,10.88,3.9,16.42,3.64a49.73,49.73,0,0,0,17.94-4.39c6.13-2.73,11.7-6.78,18-9.09,3.35-1.22,11.65-3.77,14.83-1,1.8,1.58.68,6.66.63,8.94q-.12,6.43-.35,12.88-.93,27.4-3.5,54.71c-.58,6.24,9.16,6.2,9.74,0q2.24-24.09,3.26-48.27c.34-8.31.61-16.64.69-25,.05-6.13-2.29-10.89-8.35-12.93-11.72-3.95-23.77,2.81-33.71,8.19-5.65,3-11.49,5.57-18,6.06-4.51.35-13,.58-14.4-5.08-.75-3.14-.23-6.83-.21-10l.05-13.48L72.5,212c0-6.27-9.71-6.28-9.74,0Z"></path> <path d="M109.38,214.12a359.44,359.44,0,0,0,.65,46.76c.49,6.21,10.24,6.26,9.74,0a359.44,359.44,0,0,1-.65-46.76c.32-6.26-9.43-6.25-9.74,0Z"></path> <path d="M712.09,199c-.06,15.86-.3,31.72-.18,47.57,0,6,1.53,11.43,6.74,14.94,4.7,3.17,10.88,3.9,16.42,3.64A49.22,49.22,0,0,0,753,260.79c6.13-2.73,11.7-6.77,18-9.08,3.35-1.23,11.65-3.77,14.82-1,1.8,1.59.69,6.67.64,8.94q-.13,6.45-.35,12.88-.93,27.4-3.51,54.71c-.58,6.24,9.17,6.2,9.74,0q2.25-24.09,3.27-48.27c.34-8.31.61-16.63.69-24.95.05-6.13-2.29-10.9-8.36-12.94-11.71-4-23.77,2.81-33.71,8.19-5.64,3.06-11.48,5.57-18,6.07-4.5.34-13,.58-14.39-5.09-.76-3.14-.23-6.82-.22-10l.05-13.48.11-27.75c0-6.27-9.72-6.28-9.74,0Z"></path> <path d="M758.7,201.13a361.19,361.19,0,0,0,.66,46.76c.49,6.21,10.23,6.26,9.74,0a361.19,361.19,0,0,1-.66-46.76c.32-6.26-9.42-6.24-9.74,0Z"></path> <path d="M395.54,394.64c-.06,17-.15,34-.18,51,0,6,.85,11.92,5.79,16,4.61,3.78,10.94,4.87,16.77,4.66a46.67,46.67,0,0,0,19.18-5.06c6.21-3.07,11.82-7.63,18.36-10,3.05-1.1,13.35-4,14.52.82.82,3.36,0,7.88-.11,11.31q-.14,6.45-.34,12.9-1,29.06-3.46,58c-.54,6.24,9.21,6.2,9.74,0Q478,508.9,479,483.49q.51-12.9.71-25.8c.11-6.52,0-13-6.7-16.17-12-5.7-25.27,2.3-35.31,8.22-6,3.52-12.14,6.38-19.18,6.74-5,.25-12.27-.24-13.26-6.35-.62-3.8-.14-8-.13-11.79l.05-14.57.1-29.13c0-6.27-9.72-6.28-9.74,0Z"></path> <path d="M442.16,396.93a425.82,425.82,0,0,0,.65,50.9c.45,6.22,10.2,6.27,9.74,0a425.82,425.82,0,0,1-.65-50.9c.29-6.27-9.45-6.25-9.74,0Z"></path> <path d="M785.14,407.63c-.06,15.95-.62,32-.18,47.94.16,5.81,2.09,11.06,7.27,14.2,4.83,2.91,11,3.54,16.5,3.2a50.72,50.72,0,0,0,18-4.59c6-2.73,11.57-6.72,17.85-8.86a30.09,30.09,0,0,1,7.45-1.59c1.73-.12,6-.57,7.26,1s.3,6.52.26,8.56q-.13,6.36-.35,12.72-.93,27.06-3.51,54c-.58,6.23,9.16,6.19,9.74,0q2.25-23.79,3.27-47.66c.33-7.95.58-15.9.67-23.85.08-6.16-1.65-11.23-7.9-13.48-11.53-4.14-23.68,2.33-33.55,7.63-5.68,3-11.47,5.62-17.95,6.25-4.22.41-12.59.84-14.73-4-1.27-2.88-.5-7.22-.49-10.24l0-13.77.11-27.53c0-6.27-9.72-6.28-9.74,0Z"></path> <path d="M831.75,409.7a352.17,352.17,0,0,0,.66,46.17c.5,6.21,10.24,6.26,9.74,0a352.17,352.17,0,0,1-.66-46.17c.33-6.26-9.42-6.24-9.74,0Z"></path> <path d="M1116.29,397.08c0,16.69-.15,33.39-.17,50.09,0,5.7.75,11.4,5.29,15.38s11.28,5.17,17.26,5a46.68,46.68,0,0,0,18.54-4.68c6.3-3,12-7.49,18.49-9.94,3.08-1.15,13-4.13,15,.1.52,1.12.08,3.37.06,4.49,0,1.88-.06,3.77-.1,5.66q-.14,6.87-.36,13.74-.94,28.73-3.47,57.36c-.54,6.24,9.2,6.2,9.74,0q2.22-25.41,3.24-50.9.48-12.53.68-25.05c.1-6.83-.73-13-7.88-15.73-12.15-4.64-24.63,3.13-34.75,8.91-6,3.43-12.19,6.07-19.18,6.3-5,.17-11.8-.5-12.69-6.54-.54-3.63-.11-7.57-.1-11.23l0-14.31.1-28.62c0-6.27-9.71-6.28-9.74,0Z"></path> <path d="M1162.91,399.32a409.23,409.23,0,0,0,.66,50c.45,6.21,10.2,6.26,9.73,0a411.24,411.24,0,0,1-.65-50c.3-6.26-9.44-6.25-9.74,0Z"></path> <path d="M1211.26,397.08c-.06,16.69-.16,33.39-.18,50.09,0,5.7.75,11.4,5.29,15.38s11.28,5.17,17.26,5a46.64,46.64,0,0,0,18.54-4.68c6.31-3,11.95-7.49,18.5-9.94,3.07-1.15,13-4.13,15,.1.52,1.12.07,3.37,0,4.49,0,1.88-.06,3.77-.09,5.66q-.13,6.87-.37,13.74-.95,28.73-3.47,57.36c-.54,6.24,9.2,6.2,9.74,0q2.22-25.41,3.24-50.9.49-12.53.68-25.05c.11-6.83-.72-13-7.88-15.73-12.15-4.64-24.63,3.13-34.74,8.91-6,3.43-12.2,6.07-19.19,6.3-5,.17-11.8-.5-12.69-6.54-.54-3.63-.11-7.57-.09-11.23l.05-14.31.1-28.62c0-6.27-9.72-6.28-9.74,0Z"></path> <path d="M1257.87,399.32a413.28,413.28,0,0,0,.66,50c.46,6.21,10.2,6.26,9.74,0a413.28,413.28,0,0,1-.66-50c.3-6.26-9.44-6.25-9.74,0Z"></path> <path d="M278.5,525l-.11-50.89c0-8.38-.22-16.77.07-25.14.26-7.25,1-14.92,4.46-21.43,2.75-5.2,7.3-10.2,13.73-8.92s11.82,6.91,16.43,11.23c9.26,8.69,23.08,19,35.61,9.9,5.93-4.28,9.38-11,12.54-17.42q6.21-12.6,12.36-25.23c2.75-5.61-5.65-10.55-8.41-4.92l-11,22.43c-2.82,5.75-5.57,13.16-10.92,17.08-6,4.4-13.18-.14-18.11-4.1-5.78-4.65-10.68-10.28-17-14.34-5.47-3.54-12.05-5.65-18.54-4-6,1.53-10.72,6.14-13.93,11.24-8.39,13.34-7.13,30.45-7.09,45.53l.12,59c0,6.27,9.76,6.28,9.74,0Z"></path> <path d="M313.5,419.65A38.18,38.18,0,0,1,323.64,401c4.48-4.41-2.41-11.29-6.88-6.89a47.63,47.63,0,0,0-12.65,22.94c-1.48,6.09,7.91,8.69,9.39,2.59Z"></path> <path d="M905.1,533.93,905,483c0-8.37-.22-16.77.07-25.13.26-7.25,1-14.92,4.46-21.44,2.75-5.19,7.3-10.2,13.73-8.91s11.82,6.91,16.43,11.23c9.26,8.69,23.08,19,35.61,9.9,5.93-4.28,9.38-11,12.54-17.42q6.21-12.6,12.36-25.23c2.75-5.61-5.64-10.55-8.41-4.92l-11,22.43c-2.82,5.75-5.57,13.16-10.92,17.08-6,4.4-13.18-.14-18.11-4.1-5.78-4.65-10.68-10.28-17-14.34-5.47-3.54-12-5.66-18.54-4-6,1.53-10.72,6.14-13.93,11.24-8.39,13.34-7.13,30.45-7.09,45.53l.12,59c0,6.27,9.76,6.28,9.74,0Z"></path> <path d="M940.1,428.58a38.13,38.13,0,0,1,10.14-18.64c4.48-4.41-2.41-11.29-6.88-6.89A47.63,47.63,0,0,0,930.71,426c-1.48,6.09,7.91,8.69,9.39,2.59Z"></path> <path d="M142.17,543.27c-18.16-22.79-36.24-45.68-53.66-69-.57-.72-1.11-1.46-1.63-2.22l-.17,1.79s4.35-3.57,4.72-3.86l8.1-6.54,16.82-13.59,34.9-28.19c4.88-3.94-2.05-10.79-6.89-6.89L107,444.93,88.28,460C83.5,463.89,74.74,468.5,78,475.91c1.31,3,4,5.67,6,8.27,2.56,3.36,5.11,6.71,7.68,10.06q7.11,9.3,14.29,18.54,14.56,18.78,29.39,37.38c3.9,4.9,10.76-2,6.89-6.89Z"></path> <path d="M274.89,201.71a245.46,245.46,0,0,1-2.76,42.82c-.95,6.13,8.43,8.77,9.39,2.59a259.59,259.59,0,0,0,3.11-45.41c-.13-6.26-9.87-6.28-9.74,0Z"></path> <path d="M293.6,205.67c.11,19.41-5.32,38.41-9.59,57.2q-6.5,28.67-13,57.34c-1.39,6.11,8,8.71,9.39,2.59q6.69-29.44,13.37-58.89c4.34-19.13,9.69-38.48,9.58-58.24,0-6.26-9.78-6.28-9.74,0Z"></path> <path d="M273.14,265l67.9.14c3,0,9.19-.85,10.53,2.64.71,1.83-.07,4.54-.37,6.39-.46,2.84-.95,5.69-1.44,8.53q-2.91,16.65-6.43,33.19c-1.3,6.12,8.09,8.73,9.39,2.59q4.09-19.23,7.36-38.62c.86-5.11,2.36-10.75.49-15.8-1.73-4.67-6.07-7.34-10.82-8.15-5.71-1-11.72-.51-17.5-.53l-19.17,0-39.94-.08c-6.27,0-6.28,9.73,0,9.74Z"></path> <path d="M327.51,199.71A113.48,113.48,0,0,1,320,236.24c-2.24,5.86,7.18,8.4,9.39,2.59a121.82,121.82,0,0,0,7.84-39.12c.23-6.27-9.51-6.26-9.74,0Z"></path> <path d="M347.18,207.32l-7.57,26.14c-1.75,6,7.65,8.6,9.39,2.59l7.57-26.14c1.75-6-7.65-8.61-9.39-2.59Z"></path> <path d="M185.2,218.9A305.09,305.09,0,0,0,236.25,267c5,3.74,9.9-4.71,4.92-8.41A294.84,294.84,0,0,1,192.08,212c-4-4.79-10.9,2.12-6.88,6.89Z"></path> <path d="M178.56,222.23c12.33-6.68,25.83-13.91,40.33-11.29,12.55,2.26,23.93,11.12,25.36,24.43a23.16,23.16,0,0,1-4.74,17.17c-4.49,5.51-11.16,9.23-16.94,13.19l-41,28.14c-5.14,3.52-.27,12,4.92,8.41l37.79-25.91c10.48-7.18,22.92-13.83,27.76-26.3,4.23-10.88,2-23.92-5-33.16-7.25-9.61-18.7-14.91-30.52-16.06-15.45-1.5-29.71,5.84-42.88,13-5.51,3-.6,11.39,4.92,8.41Z"></path> <path d="M175.91,213.88q2.52,56.36-.39,112.77c-.32,6.26,9.42,6.25,9.74,0q2.91-56.34.39-112.77c-.28-6.24-10-6.28-9.74,0Z"></path> <path d="M524.23,198.87a227,227,0,0,1,9.63,54c.94,15.43,1.4,33.54-11,44.85-11.08,10.11-26.57,6.12-33.49-6.59-7.24-13.29.52-28.86,10.77-38,12-10.72,28.69-15.1,44.08-18.14,15.15-3,33.14-4,45.82,6.53,6.24,5.17,9,12.44,10.93,20.08,1.84,7.19,3.82,15.76.38,22.79-3.34,6.83-11.64,11.13-18.55,13.46-7.24,2.45-14.33,1.61-18.59-5.21-8.67-13.88-2.13-33,4.69-46.25,8.82-17.1,21.05-32.46,32.18-48.09,3.64-5.11-4.8-10-8.41-4.91-11.89,16.69-25.23,33.15-34,51.79-7.29,15.48-12.4,35.57-3.4,51.47,4,7,10.73,11.85,18.84,12.33,9.72.58,20.39-4.62,27.85-10.54,15.78-12.52,11.75-35.17,4.31-51.4-7.93-17.31-27.5-24.21-45.43-23.79-10.66.25-21.37,2.47-31.63,5.23-9.17,2.46-18.29,5.76-26.42,10.72-15.23,9.3-27.93,26.18-25.68,44.86,2,16.3,17,31,33.94,29.3,22.46-2.2,32.19-25.31,32.92-45.12.87-24-3.21-49.06-10.33-71.9-1.86-6-11.26-3.42-9.39,2.59Z"></path> </svg> 