<?xml version="1.0" encoding="UTF-8"?> <svg xmlns="http://www.w3.org/2000/svg" id="Layer_1" data-name="Layer 1" viewBox="0 0 226.17 226.33"> <defs> <style>.cls-1{fill:#7dff3a;}</style> </defs> <title>applemusic2</title> <path class="cls-1" d="M0,117.08v-4.55l.08-5.73a3.36,3.36,0,0,0,.23-2v-1.67L1,96.83a13.12,13.12,0,0,0,.57-3.29l1.39-7,.18-.51c.18-.7.35-1.4.53-2.1A1.16,1.16,0,0,0,4,83L7.58,72.06a15,15,0,0,0,1.36-3.29l.6-1.33a15.84,15.84,0,0,0,1.75-4.16q3-5.3,6-10.57h0l.57-.81.39-.63,2.76-4,6.83-8.72.91-.94c1.47-1.62,3.2-3,4.38-4.89l.31-.28a33.41,33.41,0,0,0,4.89-4.39l.36-.3,4.66-3.82.67-.75A27.2,27.2,0,0,0,49,19.81a136.31,136.31,0,0,1,13.67-8c.22-.11.37-.37.56-.57a7.82,7.82,0,0,0,2.89-1.16l6-2.55a.7.7,0,0,0,.69-.26L78.11,5.4A26.77,26.77,0,0,0,82.65,4a8.54,8.54,0,0,0,2.68-.69l.65-.1c2.11-.44,4.24-.85,6.34-1.35.55-.12,1.22,0,1.62-.58a5,5,0,0,0,2.63-.18L97.22,1h.66l5-.6,2.65-.13L112.78,0h5a38.84,38.84,0,0,0,6,.38c1.28.49,2.66.27,4,.56l5.92.85a8.81,8.81,0,0,0,3,.56L148,5.3a17.79,17.79,0,0,0,3.62,1.24l10.9,4.61A17.64,17.64,0,0,0,166,12.86c.32.57.9.67,1.44.83a27.72,27.72,0,0,0,4.5,2.84,18.48,18.48,0,0,0,3.3,2,5.42,5.42,0,0,0,2,1.37l9.91,7.65.33.29,4.31,4a1.1,1.1,0,0,0,.79.72c2.59,2.9,5.19,5.78,7.76,8.7,3.22,3.66,5.77,7.82,8.64,11.74a21.2,21.2,0,0,0,2.49,4.17l.42.82,1.94,3.58,5.37,12.27,2.7,8.25q.68,2.64,1.36,5.28c.29,1.32.59,2.65.89,4a52.88,52.88,0,0,0,1,6l.57,4.92a123.48,123.48,0,0,1-.49,26.14l-.06.66-.2,1v.36l-1.23,6.64L222.58,142q-1.74,5.52-3.5,11a20.32,20.32,0,0,0-1.53,3.82l-1.09,2.61a4.4,4.4,0,0,0-.91,2l-3.48,6.76a15.36,15.36,0,0,0-1.81,3.08l-3.4,5.33-.2.33-3.37,4.67a7.69,7.69,0,0,0-1.54,2,6.5,6.5,0,0,0-1.73,2.1l-3,3.38a7.43,7.43,0,0,0-1.91,2.12,170.47,170.47,0,0,1-12.89,11.59,22.7,22.7,0,0,0-3.71,2.75,2.82,2.82,0,0,0-1.26.86l-4.94,3.23a32.88,32.88,0,0,0-4.51,2.65h-.09v.08l-10.79,5.2a20.86,20.86,0,0,0-4.11,1.64l-11.2,3.48-2.86.7-7.12,1.48-3.94.47-4.3.56-.65.06a33.5,33.5,0,0,0-5,.32h-5l-5.64-.1a5.91,5.91,0,0,0-4,.08,2.27,2.27,0,0,0-1.64-.63c-3.11-.19-6.16-.87-9.24-1.28L90.53,224l-2-.39-.64-.13-5.36-1.35-9.45-3.12L68,217a8.06,8.06,0,0,0-2.29-1l-2.65-1.26L58.2,212.2l-3-1.69a4.57,4.57,0,0,0-1.75-1A166.42,166.42,0,0,1,37.92,198,7.08,7.08,0,0,0,36,196.16L32.64,193A6.11,6.11,0,0,0,31,191.27a18.74,18.74,0,0,0-2.69-2.94,10,10,0,0,0-2-2.3l-2.22-2.72A2.53,2.53,0,0,0,23,182l-6.88-10.19a16.21,16.21,0,0,0-1.93-3.29,15.39,15.39,0,0,0-1.66-3,12.75,12.75,0,0,0-1.57-3.21l-2.1-4.7c0-.26,0-.52-.28-.67L6.64,152l-1.11-3.06-3.3-12.19-.81-4.65-.84-5.27L.5,125.51a.34.34,0,0,0,0-.31l-.29-2.66A35.57,35.57,0,0,0,0,117.08Zm48.6-5.54a91.79,91.79,0,0,0,9.77,39.29,84.83,84.83,0,0,0,17.14,24.1c4.2,4,9.12,6.28,15.15,5.28a44.87,44.87,0,0,0,10.13-3.45,29.65,29.65,0,0,1,16.63-2.13c3.75.59,7.13,2.23,10.58,3.67,8.64,3.6,16.48,2.42,23-4.44a88,88,0,0,0,19.37-31.76c.48-1.37.25-2-1.09-2.65a33,33,0,0,1-17.88-36.21c1.76-9,6.8-16,14.22-21.28,1-.72,1.27-1.2.44-2.33-8.5-11.53-23.92-15.39-35.16-13-5.25,1.13-10.14,3.32-15.12,5.23a13.26,13.26,0,0,1-10,0c-2.25-.89-4.52-1.75-6.78-2.61-3.66-1.41-7.36-2.75-11.32-2.84-13-.27-23.18,5.29-30.72,15.7-6.27,8.71-8.21,18.74-8.36,29.37Zm60.85-50.43c0,.5,0,1,0,1.49-.14,1.46.52,2,1.94,1.81,1.2-.17,2.42-.17,3.61-.4,15.6-3.1,25.58-19.37,24.83-33-.06-1.1-.44-1.41-1.52-1.29a29.41,29.41,0,0,0-11.64,4c-10.54,6.07-16.2,15.29-17.22,27.39Z" transform="translate(0 0.05)"></path> </svg> 