<?xml version="1.0" encoding="UTF-8"?> <svg xmlns="http://www.w3.org/2000/svg" id="Capa_1" data-name="Capa 1" viewBox="0 0 97.8 97.8"> <defs> <style>.cls-1{fill:#7dff3a;}</style> </defs> <title>soundcloud-log2o</title> <path class="cls-1" d="M48.9,0A48.9,48.9,0,1,0,97.8,48.9,48.91,48.91,0,0,0,48.9,0ZM7.7,62.2a.32.32,0,0,1-.3.3.27.27,0,0,1-.3-.3l-.6-4.6.6-4.7a.32.32,0,0,1,.3-.3.27.27,0,0,1,.3.3l.7,4.7ZM10.9,65c0,.2-.2.3-.4.3s-.3-.1-.4-.3l-.8-7.5.8-7.6c0-.2.2-.3.4-.3s.3.1.4.3l.9,7.6Zm3.4,1.3a.4.4,0,0,1-.8,0l-.8-8.7.8-9a.4.4,0,0,1,.8,0l.9,9Zm3.4.2a.5.5,0,0,1-1,0l-.7-9,.7-9.3a.5.5,0,1,1,1,0l.9,9.3Zm3.5.1a.65.65,0,0,1-.6.6.58.58,0,0,1-.6-.6l-.7-9.1.7-8.6a.65.65,0,0,1,.6-.6q.45,0,.6.6l.8,8.6Zm3.5,0h0a.58.58,0,0,1-.6.6.65.65,0,0,1-.6-.6l-.7-9.1.7-14a.58.58,0,0,1,.6-.6.65.65,0,0,1,.6.6l.8,14Zm3.4,0h0a.7.7,0,0,1-1.4,0l-.6-9,.6-17.2a.7.7,0,1,1,1.4,0l.7,17.2Zm3.6-.1h0a.86.86,0,0,1-.8.8.79.79,0,0,1-.8-.8l-.6-8.9.6-18.7a.86.86,0,0,1,.8-.8.79.79,0,0,1,.8.8l.7,18.7Zm3.6-.1a.9.9,0,0,1-.9.9,1,1,0,0,1-.9-.8L33,57.6l.5-19.3a.9.9,0,0,1,.9-.9c.5,0,.8.4.9.9l.6,19.3Zm3.6-.1h0a.9.9,0,1,1-1.8,0l-.5-8.8L37,38.7a.9.9,0,0,1,1.8,0l.6,18.8Zm3.6,0h0a1,1,0,0,1-1,1,.94.94,0,0,1-1-1l-.4-8.7.4-18.1a1,1,0,0,1,1-1,.94.94,0,0,1,1,1L43,57.6Zm3.7-.9v.9a1,1,0,0,1-1.1,1.1,1.23,1.23,0,0,1-.8-.4,1.42,1.42,0,0,1-.2-.6h0l-.4-8.7L44,36.2V36a1.05,1.05,0,0,1,.5-.9,1,1,0,0,1,1.2,0,1.05,1.05,0,0,1,.5.9l.5,21.6Zm3.6.7h0a1.13,1.13,0,0,1-1.2,1.1,1.28,1.28,0,0,1-1.2-1.1l-.2-4.2L47,57.6l.5-23.4v-.1a1.27,1.27,0,0,1,.4-.9,1.08,1.08,0,0,1,.7-.3,1.42,1.42,0,0,1,.6.2,1.33,1.33,0,0,1,.6,1l.5,23.5Zm31.1,1.1H52A1.28,1.28,0,0,1,50.9,66V32.9c0-.6.2-.9,1-1.2a18.15,18.15,0,0,1,6.7-1.2A18.39,18.39,0,0,1,76.9,47.3a10.57,10.57,0,0,1,4-.8,10.35,10.35,0,1,1,0,20.7Z"></path> </svg> 