<?xml version="1.0" encoding="UTF-8"?> <!-- Generator: Adobe Illustrator 23.0.3, SVG Export Plug-In . SVG Version: 6.00 Build 0) --> <svg xmlns="http://www.w3.org/2000/svg" xmlns:xlink="http://www.w3.org/1999/xlink" id="Capa_1" x="0px" y="0px" viewBox="0 0 97.8 97.8" style="enable-background:new 0 0 97.8 97.8;" xml:space="preserve"> <style type="text/css"> .st0{fill:#FFFFFF;} </style> <g> <path class="st0" d="M48.9,0C21.9,0,0,21.9,0,48.9s21.9,48.9,48.9,48.9s48.9-21.9,48.9-48.9S75.9,0,48.9,0z M7.7,62.2 c0,0.2-0.2,0.3-0.3,0.3c-0.2,0-0.3-0.1-0.3-0.3l-0.6-4.6l0.6-4.7c0-0.2,0.2-0.3,0.3-0.3c0.2,0,0.3,0.1,0.3,0.3l0.7,4.7L7.7,62.2z M10.9,65c0,0.2-0.2,0.3-0.4,0.3c-0.2,0-0.3-0.1-0.4-0.3l-0.8-7.5l0.8-7.6c0-0.2,0.2-0.3,0.4-0.3c0.2,0,0.3,0.1,0.4,0.3l0.9,7.6 L10.9,65z M14.3,66.3c0,0.2-0.2,0.4-0.4,0.4c-0.2,0-0.4-0.2-0.4-0.4l-0.8-8.7c0,0,0.8-9,0.8-9c0-0.2,0.2-0.4,0.4-0.4 c0.2,0,0.4,0.2,0.4,0.4l0.9,9L14.3,66.3z M17.7,66.5c0,0.3-0.2,0.5-0.5,0.5c-0.3,0-0.5-0.2-0.5-0.5l-0.7-9l0.7-9.3 c0-0.3,0.2-0.5,0.5-0.5c0.3,0,0.5,0.2,0.5,0.5l0.9,9.3L17.7,66.5z M21.2,66.6c0,0.3-0.3,0.6-0.6,0.6c-0.3,0-0.6-0.2-0.6-0.6 l-0.7-9.1l0.7-8.6c0-0.3,0.3-0.6,0.6-0.6c0.3,0,0.5,0.2,0.6,0.6l0.8,8.6L21.2,66.6z M24.7,66.6L24.7,66.6c0,0.4-0.3,0.6-0.6,0.6 c-0.3,0-0.6-0.3-0.6-0.6l-0.7-9.1l0.7-14c0-0.4,0.3-0.6,0.6-0.6c0.3,0,0.6,0.3,0.6,0.6l0.8,14L24.7,66.6z M28.1,66.6L28.1,66.6 c0,0.4-0.3,0.7-0.7,0.7c-0.4,0-0.7-0.3-0.7-0.7l-0.6-9c0,0,0.6-17.2,0.6-17.2c0-0.4,0.3-0.7,0.7-0.7c0.4,0,0.7,0.3,0.7,0.7 l0.7,17.2L28.1,66.6z M31.7,66.5L31.7,66.5c0,0.4-0.4,0.8-0.8,0.8c-0.4,0-0.8-0.3-0.8-0.8l-0.6-8.9c0,0,0.6-18.7,0.6-18.7 c0-0.4,0.4-0.8,0.8-0.8c0.4,0,0.8,0.3,0.8,0.8l0.7,18.7L31.7,66.5z M35.3,66.4c0,0.5-0.4,0.9-0.9,0.9c-0.5,0-0.8-0.4-0.9-0.8 l-0.5-8.9l0.5-19.3c0-0.5,0.4-0.9,0.9-0.9c0.5,0,0.8,0.4,0.9,0.9l0.6,19.3L35.3,66.4z M38.9,66.3L38.9,66.3c0,0.5-0.4,0.9-0.9,0.9 c-0.5,0-0.9-0.4-0.9-0.9l-0.5-8.8L37,38.7c0-0.5,0.4-0.9,0.9-0.9c0.5,0,0.9,0.4,0.9,0.9l0.6,18.8L38.9,66.3z M42.5,66.3L42.5,66.3 c0,0.6-0.5,1-1,1c-0.6,0-1-0.4-1-1l-0.4-8.7l0.4-18.1c0-0.6,0.5-1,1-1c0.6,0,1,0.4,1,1L43,57.6L42.5,66.3z M46.2,65.4l0,0.9 c0,0.3-0.1,0.6-0.3,0.8c-0.2,0.2-0.5,0.3-0.8,0.3c-0.3,0-0.6-0.2-0.8-0.4c-0.1-0.2-0.2-0.4-0.2-0.6c0,0,0,0,0,0 c0,0-0.4-8.7-0.4-8.7L44,36.2l0-0.2c0-0.4,0.2-0.7,0.5-0.9c0.2-0.1,0.4-0.2,0.6-0.2c0.2,0,0.4,0.1,0.6,0.2c0.3,0.2,0.5,0.5,0.5,0.9 l0.5,21.6L46.2,65.4z M49.8,66.1L49.8,66.1L49.8,66.1c0,0.6-0.5,1.1-1.2,1.1c-0.6,0-1.1-0.5-1.2-1.1l-0.2-4.2l-0.2-4.3l0.5-23.4 l0-0.1c0-0.4,0.2-0.7,0.4-0.9c0.2-0.2,0.5-0.3,0.7-0.3c0.2,0,0.4,0.1,0.6,0.2c0.3,0.2,0.6,0.6,0.6,1l0.5,23.5L49.8,66.1z M80.9,67.2c0,0-28.9,0-28.9,0c-0.6-0.1-1.1-0.6-1.1-1.2c0,0,0-33.1,0-33.1c0-0.6,0.2-0.9,1-1.2c2-0.8,4.3-1.2,6.7-1.2 c9.6,0,17.5,7.4,18.3,16.8c1.2-0.5,2.6-0.8,4-0.8c5.8,0,10.4,4.7,10.4,10.4C91.3,62.6,86.6,67.2,80.9,67.2z"></path> </g> </svg> 