<?xml version="1.0" encoding="UTF-8"?> <!-- Generator: Adobe Illustrator 23.0.3, SVG Export Plug-In . SVG Version: 6.00 Build 0) --> <svg xmlns="http://www.w3.org/2000/svg" xmlns:xlink="http://www.w3.org/1999/xlink" id="Capa_1" x="0px" y="0px" viewBox="0 0 512 512" style="enable-background:new 0 0 512 512;" xml:space="preserve"> <style type="text/css"> .st0{fill:#FFFFFF;} </style> <g> <g> <path class="st0" d="M256,0C114.8,0,0,114.8,0,256s114.8,256,256,256s256-114.8,256-256S397.2,0,256,0z M373.4,369.5 c-3.1,4.4-8.1,6.8-13.1,6.8c-3.2,0-6.4-0.9-9.2-2.9c-60-42.2-159.8-44.5-227.2-28.8c-8.5,2-17.2-3.4-19.2-12s3.3-17.2,12-19.2 c74.1-17.2,184.8-14,252.8,33.8C376.8,352.4,378.5,362.3,373.4,369.5z M404.7,307.1c-3.1,4.4-8,6.7-13,6.7c-3.3,0-6.5-1-9.3-3 c-69.6-50-155.1-62.4-269.2-39.1c-8.6,1.7-17.1-3.8-18.9-12.5c-1.8-8.6,3.8-17.1,12.4-18.9c123.4-25.2,216.9-11.1,294.3,44.4 C408.2,289.9,409.8,299.9,404.7,307.1z M436.2,223.3c-3.1,4.6-8.2,7-13.2,7c-3.1,0-6.2-0.9-9-2.8 c-88.2-59.9-222.3-60.2-309.2-29.4c-8.3,2.9-17.5-1.4-20.4-9.8c-2.9-8.3,1.4-17.5,9.8-20.4c94.4-33.4,240.8-32.7,337.8,33.2 C439.3,206,441.2,215.9,436.2,223.3z"></path> </g> </g> </svg> 