<?xml version="1.0" encoding="UTF-8"?> <svg xmlns="http://www.w3.org/2000/svg" xmlns:xlink="http://www.w3.org/1999/xlink" id="Layer_1" data-name="Layer 1" viewBox="0 0 1400 1400"> <defs> <style>.cls-1{fill:none;}.cls-2{isolation:isolate;}.cls-3{clip-path:url(#clip-path);}</style> <clipPath id="clip-path"> <polygon class="cls-1" points="333.26 1122.16 -188.58 522.71 830.86 440.52 1352.71 1039.98 333.26 1122.16"></polygon> </clipPath> </defs> <title>EP COVER</title> <path d="M742.68,1034.17c-9.92,7-20.34,15-31.45,21.95-27.59,17.25-57.44,27.24-90.41,26.23a131.41,131.41,0,0,1-50.17-11.09c-12.58-5.62-22.52-14.44-28.85-26.56-9.49-18.17-18.38-36.67-27.14-55.21-2.29-4.84-4.92-6.8-10.45-6.64-36.48,1-73,1.67-109.44,2.5-40.26.9-69.15-32.88-61.91-72.52,1.41-7.75,2.89-15.49,4.68-23.16,1-4.37.15-7.74-3.37-10.47-1.17-.9-2.29-1.87-3.43-2.82-14.3-12-16.76-21.1-10.32-38.84-.74-.64-1.54-1.4-2.4-2.07a27.51,27.51,0,0,1-8.27-33.64c2.67-6,5.58-11.88,8.36-17.83,2.92-6.28,2.51-6.87-4.14-7.41-8.35-.67-17-.32-24.94-2.56-13-3.69-21.51-13-25-26.25-2.53-9.73-1.69-19.31,3.82-28q9.89-15.59,20.14-30.95c10.74-16.13,21.75-32.08,32.37-48.28,3.4-5.2,6-10.94,8.8-16.5a27.83,27.83,0,0,0,2.25-20.87c-4.31-16-2.12-31.89,2.55-47.6,6.36-21.37,12.35-42.86,18.65-64.25,14-47.47,36.54-89.93,72.77-124.36,34.22-32.52,74.94-52.66,121.19-60.5,65.56-11.11,129.93-5.21,192.67,17.23a9.71,9.71,0,0,0,6,.05C793,307,842.19,299.83,892.56,301.46c60.5,2,115.22,19.93,161,60.89,32.57,29.1,55.36,65,70,105.75,8.85,24.67,15.56,50.12,22.94,75.3,3.09,10.52,6.63,21.14,7.76,31.94,1,9.76-.38,19.93-1.84,29.74-.84,5.64-1,10.84,1.49,15.79,4.15,8.38,8.13,16.93,13.24,24.71,11.71,17.84,24.17,35.2,36.1,52.91a225.51,225.51,0,0,1,14.15,23.07c10.43,20.41.2,44.83-21.89,51.17-8.22,2.36-17.22,2-25.88,2.81-5.5.51-6.08,1.37-3.59,6.24,2.77,5.41,5.68,10.74,8.48,16.13,7,13.41,5.18,25.81-5.55,36.37-2.15,2.11-2.77,3.69-1.45,6.7,5.06,11.5,2.31,23.94-7.6,32.07-14.5,11.87-11.28,11.36-8.63,25.86,2.09,11.43,5,22.67,3.39,34.61-3.91,29.31-31,52.74-60.66,52-37.63-1-75.26-1.65-112.89-2.63-4.51-.12-6.45,1.56-8.37,5.63-8.8,18.69-17.72,37.36-27.4,55.61-7.85,14.79-20.35,24.34-36.4,29.85-41.26,14.17-81,10.3-119.09-10C773.62,1055.33,758.58,1044.3,742.68,1034.17ZM708.49,338.79a3.74,3.74,0,0,0-.83-.29c-47.24-11.8-95-17.42-143.57-10.81-39.89,5.42-76.05,19.95-107.74,45-38.17,30.16-63.29,69.52-78.82,115.05-8.62,25.26-15.18,51.23-23,76.77-3.88,12.64-4.39,25-.53,37.76,1.32,4.38,2,9.75.71,14-3.17,10.43-6.46,21.16-11.87,30.51-9.84,17-21.26,33.16-32,49.68-7.7,11.84-15.64,23.53-23,35.6-5.6,9.24-.57,19,10,20.36,7.5.93,15.08,1.23,22.54,2.39,18.79,2.91,27.53,20.43,18.84,37.45-2.91,5.7-5.86,11.39-9,17-2.3,4-1.59,7.07,2.16,9.72,3.09,2.18,6.08,4.51,8.94,7,4.5,3.85,5.51,8.27,3.29,13.72a87.12,87.12,0,0,1-4,9c-1.89,3.5-.94,5.9,2.22,7.87,1.39.86,2.59,2.08,4,2.81,8.11,4.14,11.84,11.6,12.61,19.82.72,7.67-.69,15.57-1.45,23.34-.87,8.93-3.77,18-2.75,26.71,2.24,18.91,19.2,31.58,39.42,31.21,36.81-.67,73.63-1.49,110.44-2.18,15.2-.28,23.84,6,30.24,19.76,8.72,18.72,18.11,37.14,27.52,55.53a33.57,33.57,0,0,0,17.19,15.66c20.11,8.51,41,11.45,62.69,8.12,30.5-4.7,56.18-19.45,79.8-38.44a9,9,0,0,0,1.34-1.78c-.51-.61-.79-1-1.14-1.36C693.32,987,668.16,954.79,644.91,921a33.89,33.89,0,0,1-5.28-28.57,143,143,0,0,0,3.55-20.85c1.3-14.42-1.83-27.06-13.84-37-8.81-7.3-16.76-15.78-24.37-24.37q-58.77-66.29-66.72-154.64C534.14,609,541.07,563.8,557,520c22.16-60.93,57.24-112.92,109-152.65C679.55,357,694.28,348.29,708.49,338.79Zm51.62,677.29a201,201,0,0,0,40.13,26.58c26.23,13,53.56,18,82.7,12.21,20.28-4,35.95-13.4,44.73-32.95,7.19-16,15.28-31.61,22.48-47.62,5.1-11.34,13.09-17.31,25.48-17.25,11.34.06,22.68.36,34,.58,27.45.51,54.88,1.32,82.33,1.49,24.7.15,41.6-20.64,37-44.82-1.47-7.74-3.1-15.45-4.6-23.18-1.78-9.12-.76-17.94,5.1-25.27,3.28-4.11,7.85-7.27,12.14-10.47,3.2-2.39,4.11-4.76,2.12-8.35a81.71,81.71,0,0,1-3.42-7.63c-2.89-6.68-1.83-10.94,3.9-15.58a61,61,0,0,1,6.63-5.11c4.41-2.68,4.4-5.8,2-9.91-3.07-5.23-5.26-11-8.65-16-8.87-13-2.45-34.61,19.06-38,7.61-1.22,15.36-1.55,23-2.46,5.84-.7,9.74-4.62,10.9-10.39,1.08-5.4-.73-10-3.61-14.4-13.46-20.44-27.29-40.64-40.26-61.39a413.4,413.4,0,0,1-20.61-38,42.14,42.14,0,0,1-2.87-30.23c2.67-9.87,2.13-19.89-.53-29.73-4.67-17.26-9.76-34.41-14.19-51.73-8-31.21-19.12-61.08-36.47-88.36q-54.8-86.19-155.89-101.2c-40.72-6-81.29-3.32-121.59,4.26-8.72,1.64-17.27,4.17-27.15,6.6l5.64,3.11c27.5,15,52.3,33.55,73.57,56.5,57.28,61.81,89.06,134.78,93.76,219.05A265,265,0,0,1,926.74,734.3c-16.48,39.57-41.66,72.81-73.55,101.15a31.65,31.65,0,0,0-10.43,18.47,79.34,79.34,0,0,0,1.64,35.65c3.14,11.49,1.38,21.7-5.49,31.26C814.94,954.22,790.66,987.35,760.11,1016.08Zm-18.66-13.74c1.62-1.36,2.14-1.74,2.6-2.19,28.85-27.89,52.64-59.95,75.79-92.5,1.47-2.07,1.71-5.54,1.4-8.23-1-8.47-3-16.84-3.66-25.32-1.72-22.47,3.79-42.14,22.13-57.2,7.82-6.42,14.74-14.07,21.46-21.7C899,752.26,919.6,702,922.53,645c3-58.71-10.81-113.76-39.39-165-31.76-56.9-76.39-100.23-136.29-127.12a10.24,10.24,0,0,0-9.26,0c-38.24,17.13-71.4,41.22-98.33,73.31-46.26,55.12-72.79,118.56-77,190.64-2.73,46,6.54,89.82,28.46,130.65,14.69,27.37,34.09,51,57.35,71.51a54,54,0,0,1,17.66,31.06c3.07,15.48,1.66,30.83-2,45.91-1.49,6.15-.36,10.67,3.33,15.41,12.6,16.21,24.62,32.89,37.59,48.79C716.3,974.55,729,988.13,741.45,1002.34Z"></path> <g class="cls-2"> <g class="cls-3"> <path d="M810.54,1043.09l-.19.21c-1.1,1.15-2.19,2.33-3.29,3.54l1.33.65c1-1.13,2.06-2.25,3.1-3.34l8.13,2.24,0-.79c-2.88-.8-5.75-1.59-8.64-2.37l-.47-.14"></path> <path d="M702.28,1090.89l.64.89c3.77,0,7.49-.16,11.17-.37l3.9-.26-.76-.88-3.87.26q-5.48.32-11.08.36m42.22-4.76q-6.27,1.5-13.14,2.55l.86.87q6.94-1,13.25-2.58l-1-.84m-74.2,2.92.36.87q8.39,1,16.44,1.48l-.5-.88q-8-.45-16.3-1.47m97.23-10.79a115.62,115.62,0,0,1-10.95,4.37l1.06.82a113.83,113.83,0,0,0,11-4.4l-1.15-.79m-131,4.08-.1.77a159.15,159.15,0,0,0,16.72,4.08l.59.11-.21-.85-.59-.1a159,159,0,0,1-16.41-4m149.55-15.07a97.5,97.5,0,0,1-8.73,5.84l1.22.76a96.45,96.45,0,0,0,8.77-5.89l-1.26-.71m14.51-13.34c-2.16,2.33-4.42,4.66-6.83,6.9l1.31.68c2.42-2.26,4.69-4.58,6.86-6.92l-1.34-.66m-196.27,14.28-.74.49.75.44a140.39,140.39,0,0,0,15.06,7.7l.43-.64a140.43,140.43,0,0,1-14.76-7.55l-.74-.44m-29.45-17.69-.76.47q7.32,4.46,14.69,8.89l.74-.48q-7.35-4.43-14.67-8.88m-29.11-17.91-.77.46,14.52,9,.78-.47q-7.27-4.47-14.53-9m-146.17,3.44.63.88q3.78,0,7.47-.33c.57,0,1.12-.1,1.68-.15l5.61-.55-.79-.88-5.61.55-1.66.16c-2.41.19-4.86.3-7.33.32m43.34-3.83-14.37,1.41.78.87,14.38-1.39-.79-.88h0m28.72-2.79c-4.77.47-9.57.93-14.35,1.41l.78.87,14.37-1.4-.8-.88m28.71-2.83L486,1028l.78.88,14.36-1.42-.8-.88m23.42-2.37-.64.06-8.46.87.8.87,8.45-.86.61-.06a19.72,19.72,0,0,1,5.51.27l-.17-.84a22,22,0,0,0-6.1-.31m-157,7.6,0,.81a143.44,143.44,0,0,0,17.17,3.29l-.35-.87a137.79,137.79,0,0,1-16.85-3.23m-33-12.73-.61.56a150.24,150.24,0,0,0,16.39,7.46l.31-.7a146.46,146.46,0,0,1-16.09-7.32m-26.37-18.71-1.13.19a106.56,106.56,0,0,0,12.21,10.07l.9-.39a104.39,104.39,0,0,1-12-9.87m-17-21c1.24,2.11,2.51,4.21,3.78,6.32.88,1.43,1.83,2.86,2.84,4.27h1.3c-1-1.38-1.94-2.79-2.79-4.2q-1.92-3.16-3.79-6.31l-1.34-.07m-16.84-20-.14.76.32.1c4,1.28,6.51,2.85,8.35,4.94a12.3,12.3,0,0,1,1.61,2.36c.23.44.47.88.71,1.31l1.35.1c-.24-.44-.46-.87-.69-1.3a13.84,13.84,0,0,0-1.77-2.57c-2-2.33-5.11-4.22-9.41-5.59l-.33-.11m-31.17-14.6-1,.27a59,59,0,0,0,15,8.81l.42-.65a56.65,56.65,0,0,1-14.42-8.43"></path> <path d="M223.1,925.77l-.33.69c1.53.6,3.1,1.17,4.67,1.69.94.3,1.86.63,2.74,1l.68.24a42.26,42.26,0,0,0,2.1,5l1.35.12a48.34,48.34,0,0,1-2.15-5.16l-.11-.29-.49-.17-1.14-.42c-.9-.32-1.86-.67-2.82-1-1.51-.5-3-1-4.5-1.63"></path> <path d="M983.74,1068.05q-6.78,1.18-14,1.84l.79.88c4.81-.45,9.5-1.06,14.06-1.86l-.9-.86m-44.48,2.41.53.88q8.09.39,15.79.24l-.66-.88c-5.1.09-10.31,0-15.66-.24m69.27-9c-3.83,1.41-7.79,2.65-11.85,3.74l1,.84c4.1-1.09,8.09-2.35,11.94-3.77l-1.08-.81m-102.28,5.47.27.85c5.73.92,11.36,1.68,16.85,2.26l-.39-.87q-8.19-.87-16.73-2.24m120.87-16.36a31.48,31.48,0,0,1-8,6.22l1.19.76a31.67,31.67,0,0,0,8.16-6.33l-1.34-.65M872,1059.9l.06.81c3,.74,6,1.45,9,2.14q4.17.95,8.27,1.8l-.16-.84c-2.71-.56-5.45-1.16-8.21-1.78q-4.49-1-9-2.13m-34.5-9.28,0,.79q8.67,2.44,17.29,4.8v-.79q-8.61-2.33-17.26-4.8m194.62-17.26c0,.12,0,.24,0,.36a21.81,21.81,0,0,1-.58,9l1.42.49a22.27,22.27,0,0,0,.59-9.12c0-.11,0-.24,0-.36l-1.43-.32m-3.11-19.87q.9,5,1.68,10l1.44.31c-.53-3.31-1.1-6.64-1.68-10l-1.44-.3m-3.87-20q1,5,2,10l1.43.29q-1-5-2-10l-1.42-.28m133.92-18.51c-2,.34-4.09.6-6.29.78l-1.47.1-6.67.41.73.88,6.67-.41c.52,0,1-.06,1.51-.1,2.23-.18,4.37-.46,6.41-.81l-.89-.85M1115,978.09l.73.88c5-.3,9.9-.62,14.85-.93l-.74-.88-14.84.93m-29.66,1.9.73.88,14.84-1-.74-.88-14.83,1m-29.69,1.87.74.88c5-.3,9.9-.62,14.84-.93l-.73-.88-14.85.93m-26.41,1.64a11.33,11.33,0,0,0-3.11.62l1.1.8a10.31,10.31,0,0,1,2.77-.54l.45,0,11.09-.68-.73-.88-11.09.68-.48,0m150.68-17.83a32.46,32.46,0,0,1-8.85,5.72l1.13.79a32.84,32.84,0,0,0,9-5.83l-1.31-.68m7.27-16.44a21.35,21.35,0,0,1-1.82,8.92l1.4.55a21.49,21.49,0,0,0,1.85-9.08l-1.43-.39m-8.08-20.37c.61.79,1.18,1.58,1.72,2.38a42.66,42.66,0,0,1,4.31,8.06l1.39.19a42.39,42.39,0,0,0-4.39-8.23c-.56-.82-1.14-1.63-1.76-2.43l-1.27,0M1158.94,908l-1,.26c3.94,3.39,7.89,6.76,11.53,10.17l1.12-.21c-3.69-3.46-7.66-6.83-11.6-10.22m-15.63-19.8a8.23,8.23,0,0,0-1.36,4.15,5.67,5.67,0,0,0,1.65,3.53,24.72,24.72,0,0,0,2.35,2.27l1.06-.25a22.92,22.92,0,0,1-2.2-2.12,4.79,4.79,0,0,1-1.41-3.06,7.58,7.58,0,0,1,1.3-3.94l-1.39-.58m1.72-17.82c2.31,3.42,3.27,6.78,2.7,9.84l1.43.46c.6-3.19-.4-6.71-2.83-10.29H1145m-14.23-19.7a13.29,13.29,0,0,1-1,3,3.29,3.29,0,0,0-.41,1.73,3,3,0,0,0,.86,1.81,13.23,13.23,0,0,0,2.77,2.22c.48.3,1,.61,1.42.93l.86-.41-1.47-1a10.67,10.67,0,0,1-2.36-1.87,2.34,2.34,0,0,1-.65-1.36,3.16,3.16,0,0,1,.37-1.53,13.23,13.23,0,0,0,1.08-3.09l-1.43-.47M197.47,907.3a27.66,27.66,0,0,0,3.39,4.78,42.48,42.48,0,0,0,6.35,5.84l.95-.35a39.92,39.92,0,0,1-6.09-5.59,26.83,26.83,0,0,1-3.25-4.59l-1.35-.09m922.68-76.8-1,.34a45.05,45.05,0,0,1,7,6.33A24.62,24.62,0,0,1,1129,841l1.35.08a26.28,26.28,0,0,0-2.9-4,46.6,46.6,0,0,0-7.25-6.57M192.3,887c.1.38.19.8.28,1.25.63,2.93,1.19,5.86,1.78,8.79l1.44.29c-.6-2.93-1.16-5.85-1.78-8.8-.11-.46-.21-.88-.29-1.26L192.3,887m898.42-74.38-.83.44c.6.38,1.3.81,2.08,1.28,4.27,2.55,8.57,5.06,12.87,7.57l.72-.49c-4.3-2.52-8.6-5-12.85-7.57-.78-.46-1.44-.87-2-1.23M164.91,883.21l.63.88c5.17,0,10.18-.32,15.21-.51l-.7-.89c-5.06.2-10,.52-15.14.52m946-77.42c-4.32.86-9.13,1.37-13.85,2l.83.87c4.71-.59,9.54-1.11,13.94-2l-.92-.86m-979,70.87-.4.66a86.32,86.32,0,0,0,17.42,5.27l-.19-.84a84.4,84.4,0,0,1-16.83-5.09m996-82.16a13.25,13.25,0,0,1-5.79,7.24l1.23.74a13.74,13.74,0,0,0,6-7.47l-1.42-.51M105,858.5l-1.19.13a65.32,65.32,0,0,0,7.42,6.75c1.52,1.2,3.07,2.34,4.68,3.44l.87-.4c-1.57-1.07-3.08-2.19-4.57-3.35A63.62,63.62,0,0,1,105,858.5m1016.45-84-1.18.15c.49.5,1,1,1.39,1.51a30.54,30.54,0,0,1,5.58,8.87l1.4.19a31.67,31.67,0,0,0-5.76-9.16c-.46-.52-.93-1-1.43-1.56m-1025,63.68c0,1.71,0,3.41,0,5.12a15.1,15.1,0,0,0,.72,4.68l1.41.23a14.64,14.64,0,0,1-.7-4.53c0-1.7,0-3.4.06-5.11l-1.44-.39m997.23-82.42-.64.54c4.53,2.44,9,4.94,13.28,7.51l1.78,1.09.79-.45c-.6-.38-1.22-.76-1.84-1.13-4.34-2.59-8.83-5.1-13.37-7.56M97.09,819.16c-.15,3.15-.27,6.3-.37,9.47l1.44.4c.1-3.17.23-6.32.37-9.47l-1.44-.4m965.07-79.75-.56.58q7.22,3.68,14.42,7.35l1.4.72.58-.57-1.4-.73q-7.18-3.68-14.44-7.35m-964,60.91c-.2,3.14-.39,6.27-.58,9.41l1.44.41c.18-3.14.38-6.27.58-9.41l-1.44-.41m932.24-76.94-.57.58q7.92,4,15.88,8l.56-.58-15.87-8M99.21,781.48q-.19,4.72-.47,9.43l1.44.41c.18-3.14.34-6.28.47-9.44l-1.44-.4m899.7-74.32-.64.54c1.36.74,2.74,1.48,4.11,2.19,3.88,2,7.74,4,11.63,6l.59-.58q-5.82-3-11.62-6-2-1.07-4.07-2.17M97,761.92a16.37,16.37,0,0,1,.69,2.78c.38,2.39.86,4.81,1.22,7.18l1.43.32c-.35-2.39-.84-4.81-1.21-7.18a18.78,18.78,0,0,0-.72-2.89L97,761.92m872.46-72.41-.94.35c1,.75,2.08,1.48,3.25,2.2,3.78,2.3,7.56,4.61,11.38,6.91l.74-.48c-3.8-2.29-7.57-4.6-11.36-6.9-1.11-.68-2.12-1.36-3.07-2.08M79,741.3l-1.13.19a112.1,112.1,0,0,0,8.52,7.35c1.21.95,2.31,1.87,3.31,2.79l1.1-.22q-1.56-1.44-3.43-2.89-4.59-3.6-8.37-7.22m872.69-72.66c2.64,3.53,5,7.08,7.3,10.59l1.32,0c-2.3-3.52-4.69-7.1-7.33-10.65l-1.29,0M61.31,720.23a88.49,88.49,0,0,0,7,10.66l1.27,0a87.69,87.69,0,0,1-7-10.54l-1.35-.09m871.06-72.51-1,.3c3.64,3,7.11,6,10.23,9,.39.38.78.76,1.15,1.15l1.16-.17-1.18-1.17c-3.17-3.08-6.67-6.11-10.36-9.1M51.47,699.24q2.37,5.22,4.7,10.46l1.38.15q-2.32-5.24-4.7-10.46l-1.38-.15M906.65,628l-.95.34c2.14,1.64,4.29,3.28,6.45,4.9l6.5,4.9.94-.35L913.11,633,906.65,628M41.9,678.29l4.79,10.47,1.39.15-4.79-10.47-1.39-.15m839-69.89-1,.34q6.46,4.9,12.88,9.82l1-.34L880.9,608.4m-848.43,49c.53,1.25,1.08,2.5,1.64,3.75,1,2.24,2,4.47,3,6.72l1.38.15q-1.52-3.36-3-6.72c-.56-1.25-1.1-2.49-1.64-3.74l-1.39-.16m822.32-68.47-.92.36q6.6,4.83,13.12,9.71l1-.34q-6.54-4.9-13.15-9.73M24.85,636.63c1,3.4,2.2,6.85,3.47,10.31l1.4.2q-1.91-5.19-3.46-10.28l-1.41-.23m802.8-66.87-.85.42q5.46,3.66,10.81,7.41l2.89,2,.9-.38c-1-.69-1.93-1.36-2.9-2q-5.37-3.76-10.85-7.44M20.19,616.39c.5,3.31,1.15,6.66,1.93,10l1.43.28c-.79-3.38-1.43-6.71-1.94-10l-1.42-.31M798.7,551.53,798,552c5,2.93,9.83,5.9,14.66,8.94l.79-.45c-4.85-3-9.74-6-14.71-9M18.89,596.9c-.09,3.17,0,6.38.19,9.63l1.44.36q-.32-4.86-.2-9.6l-1.43-.39m749.05-62.38-.59.58q7.85,4,15.52,8.29l.66-.54q-7.69-4.25-15.59-8.33M21.29,578.43a85.92,85.92,0,0,0-1.68,9.08l1.44.44a83.75,83.75,0,0,1,1.66-9.05l-1.42-.47M735.62,519l-.44.63q8.24,3.68,16.26,7.52l.51-.61q-8.07-3.87-16.33-7.54M27.52,561.25a83.37,83.37,0,0,0-3.6,8.41l1.41.52a82.64,82.64,0,0,1,3.59-8.37l-1.4-.56m674.58-56-.28.71q8.5,3.21,16.8,6.62l.37-.67q-8.36-3.44-16.89-6.66M37.56,545.58a88,88,0,0,0-5.5,7.62l1.38.6a86.66,86.66,0,0,1,5.47-7.59l-1.35-.63m630.26-52.16-.12.76q8.52,2.67,17.12,5.64l.21-.73q-8.65-3-17.21-5.67M51.43,531.71A99.33,99.33,0,0,0,44,538.4l1.31.67a98.39,98.39,0,0,1,7.38-6.65l-1.28-.71m581.78-48,.06.81q8.57,2.11,17.22,4.53l0-.78q-8.71-2.44-17.32-4.56M69.07,519.93q-4.87,2.66-9.28,5.62l1.23.73c2.92-1.95,6-3.82,9.23-5.59l-1.18-.76m529.71-43.55.22.85q8.49,1.53,17.08,3.35l-.13-.82q-8.64-1.85-17.17-3.38M352.19,493.69c-3.74,1.41-7.44,2.88-11.06,4.41l1.12.8c3.61-1.52,7.3-3,11-4.4l-1.09-.81m-42.3,2.47.37.87c5.54.64,11.11,1.36,16.72,2.12l-.32-.86q-8.46-1.16-16.77-2.13M90.19,510.4c-3.8,1.39-7.46,2.89-11,4.47l1.14.8q5.25-2.37,10.92-4.46l-1.08-.81M565,471.45l.4.87q8.31.93,16.72,2.15l-.3-.85c-5.65-.82-11.24-1.55-16.82-2.17M375.71,485.91c-4.07,1.18-8.06,2.41-12,3.72l1.06.82q5.86-1.95,11.93-3.71l-1-.83M276.84,493l.48.88q8.12.6,16.38,1.4l-.43-.88q-8.28-.79-16.43-1.4M114.39,503.17c-4.29,1-8.44,2.12-12.45,3.33l1,.83c4-1.2,8.13-2.3,12.39-3.32l-1-.84m286.53-23.65q-6.5,1.43-12.81,3l1,.84q6.3-1.59,12.79-3l-1-.86m131.25-10.68.52.88q8.05.38,16.18,1l-.45-.88c-5.46-.43-10.86-.77-16.25-1m-287.56,22.5.57.88c5.26.15,10.59.36,15.95.63l-.52-.88q-8.07-.42-16-.63m-103.77,6.53c-4.53.75-9,1.58-13.42,2.46l.92.86c4.42-.88,8.87-1.71,13.38-2.46l-.88-.86m286.88-23.3q-6.89,1.06-13.59,2.3l.92.86q6.68-1.23,13.54-2.29l-.87-.87m72.93-6.2.66.89c5.15-.1,10.32-.1,15.52,0l-.59-.88q-7.85-.11-15.59,0M213.38,491.24l.66.89q7.65-.18,15.43-.15l-.62-.89c-5.21,0-10.36,0-15.47.15M456,471q-7.23.71-14.28,1.6l.84.87c4.68-.59,9.41-1.13,14.22-1.6L456,471m14.58-1.26.75.88c3.52-.26,7.08-.48,10.65-.69l4.2-.22-.71-.88-4.21.22q-5.38.32-10.68.69M168.81,494.06c-4.78.5-9.5,1.08-14.17,1.71l.84.87c4.67-.63,9.37-1.21,14.13-1.71l-.8-.87m14.52-1.34.76.88c4.89-.37,9.83-.69,14.82-.93l-.72-.88c-5,.24-9.95.56-14.86.93"></path> <path d="M302.56,512.7l.46.87,6.7.55c-1,1-2,1.88-3,2.82l1.3.68,3.44-3.26h.07l.23-.4-.31-.24c-.16-.14-.39-.32-1.81-.44-2.37-.21-4.75-.4-7.12-.59"></path> <path d="M693.87,1072.38l.67.88q4.37-.12,8.57-.46,3.14-.25,6.18-.63l-.83-.87q-3,.38-6.11.62c-2.77.23-5.61.38-8.48.46m40.18-6.85a123.76,123.76,0,0,1-12.18,3.44l1,.85a124.43,124.43,0,0,0,12.29-3.47l-1.06-.82m-72.1,5.14.35.86c5.64.71,11.15,1.22,16.5,1.5l-.52-.88q-7.95-.42-16.33-1.48m92.64-14.84a92.58,92.58,0,0,1-9.63,5.29l1.16.78a93.1,93.1,0,0,0,9.7-5.33l-1.23-.74m-126.19,6.75-.43.64a89.74,89.74,0,0,0,17.32,5.59l-.14-.83a86.83,86.83,0,0,1-16.75-5.4m141.89-19.47a84.72,84.72,0,0,1-7.3,6.67l1.28.71a87.41,87.41,0,0,0,7.34-6.7l-1.32-.68m-171.8,2.27-.74.48c4.91,3,9.85,5.91,14.78,8.86l.73-.49q-7.39-4.43-14.77-8.85m-29.39-17.8-.77.46q7.32,4.5,14.67,8.94l.75-.48q-7.35-4.45-14.65-8.92m-30.18-17.36-.38.66a102.75,102.75,0,0,1,14.42,7.64l.82.52.78-.46-.83-.52a104.82,104.82,0,0,0-14.81-7.84M405,1015.17l-13.21,1.26-.9.07-.31,0,.75.88.32,0,.92-.07,13.22-1.26-.79-.88m28.82-2.77-14.41,1.39.79.87,14.4-1.38-.78-.88m28.81-2.78L448.26,1011l.79.88,14.4-1.39-.78-.88m28.81-2.77-14.4,1.39.78.87,14.41-1.39-.79-.87m17.21-1.63c-.34,0-.69,0-1,.09l-1.76.16.8.88,1.74-.17,1-.09a61.26,61.26,0,0,1,12.45.23l-.36-.87a62.44,62.44,0,0,0-12.85-.23m-150.5,7-.17.74a94.5,94.5,0,0,0,17.36,4L375,1016a92.54,92.54,0,0,1-16.84-3.83m-28.73-16.6-1.15.18.68.65a65.31,65.31,0,0,0,12.46,9.18l.69-.52a63.44,63.44,0,0,1-12-8.86l-.65-.63m-16.24-21.05c.25.36.52.73.79,1.1,2.26,3.1,4.11,6.28,6.11,9.46l1.33,0c-2-3.16-3.86-6.36-6.16-9.52l-.77-1.08h-1.3m-16.73-21.12-1,.33a49.16,49.16,0,0,1,4.54,4c1.12,1.11,2.15,2.22,3.14,3.35.84,1,1.63,1.94,2.4,2.91l1.26-.05c-.78-1-1.59-2-2.44-2.95-1-1.16-2.07-2.3-3.22-3.44a50.24,50.24,0,0,0-4.71-4.11M264,939.89l-.62.56a21.41,21.41,0,0,0,4.51,1.67c1.94.51,4,1.35,6.23,1.83a55.66,55.66,0,0,1,6.56,1.83l.2-.72a57.44,57.44,0,0,0-6.89-1.94c-1.87-.4-3.93-1.22-6.1-1.8a18.35,18.35,0,0,1-3.89-1.43m-13.55-20-.53.6a17.77,17.77,0,0,1,5.78,4.16,10.19,10.19,0,0,1,2.17,3.9l.43,1.46,1.41.25-.42-1.47a11.42,11.42,0,0,0-2.37-4.24,20,20,0,0,0-6.47-4.66m-28.24-14.44c0,.33.05.66.08,1a6,6,0,0,0,1.53,3.56,11,11,0,0,0,3.16,2.39,26.82,26.82,0,0,0,4.77,1.87l1.38.41.09-.77-1.4-.42a23.53,23.53,0,0,1-4.22-1.65A8.78,8.78,0,0,1,225,909.9a5.32,5.32,0,0,1-1.31-3.12c0-.33-.05-.66-.08-1l-1.44-.35m-4.44-19.87a18.5,18.5,0,0,1,2.8,7.12c.15,1,.3,2,.44,2.93l1.44.32c-.15-1-.29-2-.45-2.94a19.16,19.16,0,0,0-2.91-7.39l-1.32,0m-26-17.8-.05.78a57.27,57.27,0,0,1,15.76,7.06l.82-.43a60,60,0,0,0-16.53-7.41m-32.49-2.4.65.89c5.13-.08,10.22-.19,15.43-.08l-.58-.88c-5.27-.11-10.38,0-15.5.07m-30.78-8.3.21.25c3.19,3.66,8.79,6.7,15,8.11l-.1-.82c-5.75-1.31-10.78-4-13.7-7.39l-.19-.23-1.24.08m-2.52-19.73q-.17,4.74-.15,9.52l1.44.38c0-3.18,0-6.34.14-9.5l-1.43-.4m.67-18.89c0,1.07-.09,2.16-.11,3.25-.07,2.07-.13,4.14-.22,6.2l1.44.4q.12-3.09.21-6.21c0-1.08.07-2.17.11-3.24l-1.43-.4m.87-18.84c-.12,3.14-.27,6.28-.42,9.41l1.43.41c.15-3.14.32-6.28.43-9.42l-1.44-.4m-.16-19.11c0,.15,0,.29,0,.42.2,3.09.3,6.16.3,9.19l1.44.39c0-3-.1-6.12-.31-9.22a3.22,3.22,0,0,0,0-.43l-1.43-.35m-6.14-20.28c1.47,3.45,2.87,6.91,4,10.31l1.42.23c-1.12-3.43-2.53-6.92-4-10.38l-1.39-.16m-18-20.5-1.09.24c2.33,2.09,4.88,4.19,7.67,6.27a57.64,57.64,0,0,1,4.48,3.71l1.11-.21a58.69,58.69,0,0,0-4.64-3.84c-2.75-2.06-5.25-4.11-7.53-6.17m-17.46-21a59.23,59.23,0,0,0,6.53,10.64l1.27,0a58.6,58.6,0,0,1-6.42-10.46l-1.38-.14M76.34,697.9q2.4,5.22,4.74,10.44l1.38.15c-1.55-3.48-3.14-7-4.74-10.44l-1.38-.15M66.84,677c1.53,3.47,3.12,7,4.71,10.43l1.38.15c-1.59-3.47-3.17-7-4.72-10.43L66.84,677m-8.7-20.8c1.32,3.44,2.72,6.91,4.18,10.37l1.39.18c-1.45-3.46-2.85-6.92-4.17-10.36l-1.4-.19m-6.39-20.49c.79,3.35,1.73,6.75,2.8,10.17l1.42.24c-1.07-3.42-2-6.8-2.79-10.14l-1.43-.27m-3-19.83q.3,4.85,1,9.82l1.43.31c-.49-3.3-.84-6.56-1-9.77l-1.44-.36M49.59,597a88.93,88.93,0,0,0-.9,9.31l1.44.4a83,83,0,0,1,.9-9.26L49.59,597m4.9-17.62a79.16,79.16,0,0,0-3,8.63l1.43.5a73.8,73.8,0,0,1,2.95-8.59l-1.42-.54m9-16.06a77.58,77.58,0,0,0-5,7.82l1.39.58a83.65,83.65,0,0,1,5-7.78l-1.36-.62m13-14.24a87.46,87.46,0,0,0-7,6.87l1.33.65a90.07,90.07,0,0,1,7-6.83l-1.3-.69m17-12.11q-4.71,2.73-9,5.77l1.25.73q4.24-3,9-5.74L93.47,537m20.73-9.76q-5.62,2.14-10.81,4.58l1.16.79c3.44-1.62,7-3.14,10.74-4.56l-1.09-.81m156-16.57.53.89q8,.36,16.07.87l-.49-.87q-8.12-.53-16.11-.89m-132,9.2q-6.37,1.56-12.35,3.39l1,.83q5.93-1.83,12.29-3.37l-1-.85m100.41-10,.61.88c5.18,0,10.41.09,15.66.23l-.57-.89q-7.92-.19-15.7-.22m-73.84,4.87q-6.89,1-13.55,2.3l.91.86c4.44-.85,8.95-1.61,13.5-2.3l-.86-.86M208,510.55l.72.88c5-.24,10-.42,15.09-.53l-.66-.89c-5.1.12-10.14.29-15.15.54m-14.81.95-.33,0q-7.12.57-14.09,1.37l.8.87c4.64-.53,9.31-1,14.06-1.36l.33,0-.77-.88"></path> <path d="M771.42,1028.37l-.32.69c2.08.82,4.18,1.63,6.26,2.43.37.14.72.31,1.16.52l.37.16v.21a1.62,1.62,0,0,1-.18.88c-.64.84-1.28,1.68-1.94,2.51l1.35.64c.66-.83,1.31-1.68,2-2.54a1.68,1.68,0,0,0,.25-1.1,3.19,3.19,0,0,1,0-.45l0-.3-.54-.25-.86-.38c-.51-.24-.91-.43-1.33-.59l-6.25-2.43"></path> <path d="M737.85,1014.65l-.39.66q8.35,3.56,16.76,7l.36-.67h0q-8.39-3.42-16.72-7m-33.07-14.56-.46.63q8.22,3.75,16.5,7.39l.43-.64q-8.26-3.65-16.47-7.38m-32.6-15.23-.51.61q8.12,3.88,16.26,7.7l.49-.62q-8.14-3.81-16.24-7.69m-32.13-15.77-.57.58c5.35,2.67,10.68,5.32,16,8l.54-.59q-8-4-16-7.95M612.64,951l-1.21.11a56.56,56.56,0,0,0,12.32,10.18l.79-.46a54.47,54.47,0,0,1-11.9-9.83m-14.77-21.2a118.54,118.54,0,0,1,6.65,10.6l1.36.08a125.47,125.47,0,0,0-6.73-10.69h-1.28m-20.56-20.69-.76.47a70,70,0,0,1,12.52,9.71l1.13-.19a72,72,0,0,0-12.89-10m-33.42-14-.29.71q6.9,2.64,13.87,5c1.1.37,2.18.75,3.23,1.14l.27-.7c-1.08-.41-2.18-.8-3.32-1.18q-6.9-2.36-13.76-5m-33.48-13.81-.42.65,5.24,2.27q5.7,2.44,11.46,4.84l.36-.67c-3.82-1.59-7.64-3.21-11.42-4.83l-5.22-2.26m-32.55-15.23-.56.59q8,4,16.2,7.82l.5-.61q-8.21-3.84-16.14-7.8m-31.18-16.64-.69.51q7.59,4.34,15.46,8.54l.63-.55q-7.83-4.18-15.4-8.5m-29.4-17.94-.83.43q7.14,4.65,14.52,9.17l.76-.48q-7.37-4.49-14.45-9.12M390,812.41l-.94.35q6.58,4.92,13.4,9.7l.89-.39q-6.8-4.76-13.35-9.66m-24.84-19.94-1.06.26q6,5.13,12.17,10.11l1-.3q-6.19-5-12.12-10.07m-22.31-20.61-1.15.19c3.55,3.5,7.17,7,10.88,10.4l1.1-.21q-5.54-5.13-10.83-10.38m-19.73-21-1.21.1.12.14q4.54,5.22,9.44,10.45l1.18-.14q-4.87-5.21-9.4-10.41l-.13-.14m-18.29-21.21q3.92,5.34,8.19,10.67l1.25-.06q-4.26-5.31-8.16-10.63l-1.28,0m-14.27-21.35c2.14,3.55,4.41,7.11,6.78,10.67l1.31,0q-3.54-5.32-6.74-10.64l-1.35-.06m-11.43-21.22c1.69,3.53,3.47,7,5.38,10.59l1.36.1q-2.85-5.28-5.36-10.55l-1.38-.14m-8.69-20.94q1.85,5.22,4,10.43l1.4.18q-2.16-5.22-4-10.4l-1.41-.21m-6.2-20.58q1.26,5.09,2.81,10.24l1.41.24q-1.55-5.14-2.79-10.21l-1.43-.27m-3.69-20.11c.4,3.29.91,6.63,1.52,10l1.43.3c-.62-3.36-1.12-6.67-1.51-10l-1.44-.33M259.61,606c-.08,3.18-.05,6.39.11,9.64l1.45.37c-.16-3.24-.21-6.45-.13-9.62l-1.43-.39m1.95-18.68c-.58,3-1,6.11-1.35,9.22l1.43.43c.32-3.1.78-6.17,1.35-9.19l-1.43-.46m5-17.71c-1.09,2.87-2,5.78-2.87,8.72l1.42.5c.82-2.94,1.78-5.83,2.85-8.7l-1.4-.52m8-16.57q-2.38,4-4.38,8.13l1.4.56q2-4.11,4.36-8.11l-1.38-.58m11-15.33-1.19,1.42q-2.46,3-4.65,6.09l1.35.61q2.22-3.06,4.65-6.07l1.18-1.4-1.34-.65m13.87-13.93c-2.45,2.26-4.87,4.52-7.2,6.83l1.31.67c2.32-2.3,4.75-4.56,7.19-6.81l-1.3-.69"></path> <path d="M818.86,1023.93q-1,2-2.11,4.06l-.19.38.8.27c2.84,1,5.73,1.95,8.59,2.89l.15-.76c-2.57-.83-5.17-1.71-7.75-2.59.66-1.22,1.29-2.46,1.9-3.7l-1.39-.55"></path> <path d="M957.4,1050.07c-2.57.35-5.17.62-7.82.83-2.2.18-4.41.31-6.65.41l.7.88c2.26-.1,4.5-.23,6.71-.41,2.68-.22,5.31-.49,7.9-.83l-.84-.88m-46.1.11.41.87c5.57.57,11,1,16.33,1.16l-.56-.88q-7.9-.3-16.18-1.15m71.37-6.15a72.34,72.34,0,0,1-9.41,3l-2.5.62,1,.84c.85-.19,1.69-.4,2.54-.61a76.32,76.32,0,0,0,9.53-3.06l-1.11-.81m-105.07.73.15.84.12,0q8.65,1.83,17,3.18l-.27-.86q-8.29-1.34-16.88-3.15l-.13,0m120.29-13.37a19.19,19.19,0,0,1-5.76,7.32l1.29.71a19.79,19.79,0,0,0,5.89-7.48l-1.42-.55m-154.64,4.7-.07.78q8.69,2.54,17.3,4.71l0-.8q-8.55-2.16-17.19-4.69m154-23.7q.62,2.93,1.31,5.88a27.53,27.53,0,0,1,.66,4.09l1.44.35a28.74,28.74,0,0,0-.69-4.17q-.68-2.94-1.3-5.87l-1.42-.28m-3.92-20c.64,3.33,1.27,6.67,1.91,10l1.43.29c-.64-3.33-1.27-6.67-1.92-10l-1.42-.29m-2.72-19.81a14.09,14.09,0,0,0,.07,7.32l.57,2.46,1.42.27-.57-2.46a13.52,13.52,0,0,1-.06-7.09l-1.43-.5M1115.45,957l.75.88c4.92-.35,9.81-.71,14.7-1.08l-.75-.88q-7.34.55-14.7,1.08m-29.54,2,.74.88,14.79-1-.74-.88-14.79,1m-29.6,1.9.73.88,14.81-1-.74-.88-14.8,1m-29.59,1.92.74.88,14.79-1-.74-.88-14.79,1m-20.14,1.41-.21,0a32.66,32.66,0,0,0-8.36,1.6l1.07.81a32.18,32.18,0,0,1,8.06-1.53l.21,0,5.36-.4-.75-.88-5.38.4m145-16.62a18.21,18.21,0,0,1-8.42,5.85l1.1.82a18.88,18.88,0,0,0,8.67-6.05l-1.35-.62m-1.77-18.78a22.4,22.4,0,0,1,4.07,10.15l1.43.34a23.18,23.18,0,0,0-4.19-10.48h-1.31m-20.33-20.68-1,.27c4,3.37,7.92,6.73,11.84,10.11l1-.27q-5.88-5.07-11.85-10.11m-20.21-20.63a25.13,25.13,0,0,0,5,8.08c.76.88,1.58,1.75,2.47,2.63l1.13-.19c-.85-.84-1.65-1.69-2.39-2.54a24.38,24.38,0,0,1-4.84-7.77l-1.4-.21m6.33-16.9a3.26,3.26,0,0,1-.88,1.63,43.17,43.17,0,0,0-4.59,5.86l1.37.59a42.37,42.37,0,0,1,4.58-5.8,4,4,0,0,0,1-1.83l-1.44-.45m-20.58-19.42a6.23,6.23,0,0,0,1.88,4.59,29,29,0,0,0,6,4.88l1.41.92.82-.43-1.41-.93a27.14,27.14,0,0,1-5.66-4.54,5.5,5.5,0,0,1-1.65-4.07l-1.44-.42m-.76-16.85-.71.51c.78.45,1.57.9,2.38,1.34a18,18,0,0,1,4.61,3.29,2.62,2.62,0,0,1,.8,1.89,2.91,2.91,0,0,1-1.2,1.94l1.28.69a3.31,3.31,0,0,0,1.36-2.22,3.43,3.43,0,0,0-1-2.4,19.77,19.77,0,0,0-5.16-3.72c-.78-.43-1.56-.87-2.33-1.32m-28.41-17.88-1.14.18a45.66,45.66,0,0,0,11.38,8c.88.44,1.75.9,2.61,1.37l.64-.54q-1.31-.72-2.67-1.41a43.29,43.29,0,0,1-10.82-7.65m-4.34-19.14a9,9,0,0,0-3.13,8.65l1.43.3a8.53,8.53,0,0,1,3-8.26l-1.3-.69m24.65-6.76c-4.57.7-9.2,1.37-13.6,2.26l.93.86c4.36-.88,9-1.55,13.54-2.26l-.87-.86m11-12.65L1096,778l.4.45a15.26,15.26,0,0,1,1.7,2.34c1.56,2.71,1.58,5,.08,6.49l1.32.66c1.67-1.71,1.62-4.17-.06-7.07a17.06,17.06,0,0,0-1.82-2.52l-.43-.48m-29.86-17.51-.59.56,15.71,8.13.6-.56-15.72-8.13m-31.45-16.25-.59.56q7.85,4.08,15.71,8.14l.58-.57-15.7-8.13m-31.25-16.42-.62.55q7.77,4.14,15.59,8.25l.61-.56q-7.8-4.09-15.58-8.24M974.2,710.61l-.72.5q7.47,4.39,15.08,8.68l.68-.52c-5.06-2.84-10.07-5.74-15-8.66m-28.61-18.06-1,.3a89.05,89.05,0,0,0,9.4,6.55q2.32,1.43,4.66,2.84l.75-.47-4.65-2.84a88.24,88.24,0,0,1-9.17-6.38M928,671.76a40.46,40.46,0,0,1,2.52,4.42,37.68,37.68,0,0,0,3.74,6.16l1.28,0a37.9,37.9,0,0,1-3.65-6,40.81,40.81,0,0,0-2.57-4.54l-1.32,0M908.27,651l-1,.33,3,2.33a110,110,0,0,1,8.88,7.66l1.13-.19a111.28,111.28,0,0,0-9-7.79c-1-.77-2-1.56-3-2.34m-25.53-19.66-1,.32c4.25,3.28,8.53,6.56,12.79,9.84l1-.34-12.77-9.82m-25.27-19.75-1,.32c1.41,1.11,2.83,2.22,4.23,3.34q4.14,3.29,8.34,6.56l1-.32q-4.18-3.27-8.33-6.56l-4.24-3.34m-26.1-19.51-.9.39q6.71,4.77,13.2,9.64l1-.35q-6.54-4.87-13.26-9.68m-27.85-18.75-.79.45q7.15,4.55,14.1,9.23l.85-.42q-7-4.7-14.16-9.26m-29.73-17.7-.66.53q7.67,4.26,15,8.66l.73-.49c-4.94-3-10-5.84-15.1-8.7m-31.48-16.29-.52.6q8,3.82,15.86,7.93l.59-.57q-7.95-4.12-15.93-8m-32.87-14.68-.36.68c5.51,2.25,11,4.62,16.51,7.07l.45-.64q-8.29-3.69-16.6-7.11m-34-12.67-.18.74q8.49,2.87,17,6l.28-.71q-8.54-3.2-17.08-6.06M641,501.7v.8q8.61,2.25,17.19,4.81l.09-.77Q649.62,504,641,501.7M606.54,494l.2.84c5.69,1.06,11.4,2.23,17.08,3.51l-.1-.82q-8.6-1.92-17.18-3.53m-33.82-5.11.39.87q8.34,1,16.71,2.22l-.3-.86q-8.4-1.26-16.8-2.23m-162.61,9.25c-2.12.49-4.24,1-6.34,1.51s-4.2,1.08-6.25,1.69l1,.83c2-.6,4.1-1.16,6.21-1.68l6.31-1.51-.95-.84M540,486.26l.54.89c5.38.23,10.75.57,16.14,1l-.47-.89q-8.1-.63-16.21-1m-103.55,6.51q-6.74,1.19-13.32,2.52l.92.85q6.57-1.32,13.31-2.5l-.91-.87m72.17-6.89.65.89q7.63-.16,15.47-.07l-.6-.88q-7.87-.09-15.52.06m-44.41,2.91c-4.74.55-9.43,1.14-14.06,1.81l.85.86q6.93-1,14-1.79l-.81-.88m15.05-1.45-.62.05.77.88.61,0q7-.57,14.14-.93l-.72-.88c-4.78.24-9.52.56-14.18.93"></path> <path d="M385.25,505.15c-1.93.61-3.89,1.24-5.95,1.87l-1.28.39,5.58,1.31,4.33,1,.55.14-.08-.83-.56-.12-4.32-1-1.91-.45q2.4-.74,4.69-1.47l-1.05-.83"></path> <path d="M825.8,1006.85q-1.44,4.33-3.16,8.6l1.41.54c1.15-2.85,2.2-5.73,3.17-8.63l-1.42-.51m4.85-17.75q-1,4.51-2.19,8.95l1.42.5q1.22-4.45,2.2-9l-1.43-.48M834,970.85c-.47,3.08-1,6.13-1.53,9.18l1.44.46c.56-3,1.05-6.12,1.52-9.19l-1.43-.45m2.45-18.54q-.56,4.65-1.15,9.3l1.43.43c.41-3.1.78-6.2,1.15-9.3l-1.43-.43m-5.57-19.86a24.94,24.94,0,0,1,5.7,10.37l1.42.27a25.78,25.78,0,0,0-5.89-10.73l-1.23.09m-21.57-20.69-1.16.15a126.38,126.38,0,0,0,11.41,10.38l1-.29a126.19,126.19,0,0,1-11.27-10.24m-15.59-21.24a21.46,21.46,0,0,0,2.7,6.44q1.29,2.13,2.78,4.24h1.3c-1-1.4-1.91-2.79-2.74-4.19a20.63,20.63,0,0,1-2.61-6.22l-1.43-.28m6.13-17.32q-2,4.11-4.47,8.09l1.39.6q2.41-4,4.48-8.13l-1.4-.56m6.69-17.06q-1.27,4.41-3,8.68l1.41.53c1.12-2.86,2.11-5.77,3-8.71l-1.41-.5m3.38-18.2q-.4,4.69-1.26,9.24l1.43.46q.85-4.57,1.27-9.28l-1.44-.42m-.16-19.25c.34,3.3.51,6.54.53,9.75l1.44.37c0-3.21-.2-6.47-.53-9.78l-1.44-.34M806,798.59q1.41,5.14,2.36,10.15l1.43.29q-.94-5-2.38-10.19l-1.41-.25m-7.36-20.73q2.26,5.22,4.1,10.42l1.41.21c-1.23-3.48-2.61-7-4.11-10.47l-1.4-.16M787.8,756.73q3.13,5.31,5.83,10.6l1.37.12q-2.71-5.31-5.86-10.65l-1.34-.07m-14.2-21.31c2.66,3.56,5.15,7.12,7.53,10.67l1.31,0q-3.57-5.36-7.55-10.71l-1.29,0m-16.23-21.37-1.2.12c1.09,1.21,2.16,2.43,3.22,3.64q3,3.48,5.88,7l1.24-.07q-2.85-3.48-5.9-7c-1.07-1.23-2.14-2.45-3.24-3.67M737.05,693l-1.14.19q5.31,5.19,10.41,10.47l1.17-.16q-5.12-5.29-10.44-10.5m-22.43-20.73-1.06.26c3.87,3.38,7.68,6.82,11.43,10.27l1.1-.21q-5.64-5.22-11.47-10.32M690.17,652l-1,.32q6.31,4.95,12.43,10l1-.29q-6.15-5.09-12.48-10m-26.4-19.61-.89.38q6.79,4.79,13.38,9.69l.94-.35q-6.6-4.92-13.43-9.72m-28.2-18.84-.81.45q7.25,4.59,14.28,9.29l.84-.43q-7.07-4.71-14.31-9.31m-29.81-17.92-.69.51q7.62,4.36,15,8.82l.74-.49q-7.44-4.47-15.09-8.84m-31.18-16.91-.59.56q7.93,4.11,15.69,8.3l.64-.53q-7.77-4.23-15.74-8.33m-32.31-15.83-.48.61q8.21,3.84,16.21,7.76l.54-.6q-8-3.93-16.27-7.77m-33.16-14.72-.39.67q8.41,3.54,16.62,7.19l.45-.64q-8.26-3.66-16.68-7.22m-33.94-13.39-.25.72q8.54,3.11,17,6.45l.33-.69q-8.5-3.36-17.07-6.48m-34.56-11.63-.11.77q8.65,2.67,17.27,5.57l.18-.74q-8.65-2.91-17.34-5.6m-34.82-9.84,0,.8c5.8,1.5,11.58,3,17.36,4.69l0-.79q-8.68-2.46-17.42-4.7"></path> <path d="M780.39,1015.46l-.4.66,8.28,3.55.66.3.22-.32c.33-.45.56-.78.74-1a5.53,5.53,0,0,0,.58-.88c.35-.69.7-1.38,1-2.08l-1.4-.56c-.33.7-.67,1.39-1,2.08-.12.22-.28.44-.55.83l-.53.73-7.61-3.27"></path> <path d="M796.88,998.24c-1,2.87-2,5.72-3.11,8.53l1.41.53q1.7-4.23,3.12-8.55l-1.42-.51M747,1001.17l-.4.65c5.49,2.38,11,4.73,16.54,7.09l.39-.66q-8.29-3.54-16.53-7.08m54.72-20.51q-1,4.47-2.19,8.86l1.43.5c.8-2.94,1.51-5.91,2.18-8.89l-1.42-.47m-87.47,5.93-.48.62q3.63,1.68,7.26,3.33l9.09,4.08.44-.65q-4.56-2-9.07-4.06l-7.24-3.32m90.8-24c-.47,3-1,6.07-1.52,9.09l1.44.46q.82-4.53,1.51-9.1l-1.43-.45m-123.11,8.79-.51.61c5.37,2.56,10.75,5.13,16.13,7.66L698,979q-8.09-3.81-16.13-7.66M807.39,944.2c-.35,3.07-.71,6.15-1.1,9.22l1.44.43c.39-3.07.75-6.14,1.09-9.23l-1.43-.42M649.66,956.05l-.5.62c5.4,2.52,10.77,5.08,16.14,7.63l.51-.61c-5.38-2.56-10.75-5.1-16.15-7.64M794.8,924.21l-1.06.25c3.5,3.1,7,6.19,10.28,9.32l.85.86,1.18-.14c-.3-.32-.6-.62-.92-.92-3.29-3.16-6.83-6.27-10.33-9.37M629.68,936.45c1.68,2.67,3.21,5.36,4.6,8a20.27,20.27,0,0,0,1.58,2.54l1.27,0a20.24,20.24,0,0,1-1.49-2.41c-1.4-2.71-2.94-5.4-4.64-8.11l-1.32,0m143.84-32.89c1.32,1.76,2.75,3.52,4.3,5.31s3.16,3.5,4.89,5.27l1.15-.16c-1.71-1.76-3.31-3.49-4.81-5.21s-3-3.51-4.25-5.24l-1.28,0M613.84,915.32l-1.13.19c2.37,2.32,4.56,4.66,6.6,7,1,1.14,1.94,2.27,2.87,3.41l1.25,0q-1.39-1.74-2.9-3.46c-2.07-2.37-4.28-4.73-6.69-7.09m150.48-32.6a29.8,29.8,0,0,0,2.75,10.21l1.37.15a29,29,0,0,1-2.68-10l-1.44-.35M587.85,895.84l-.67.53a114.68,114.68,0,0,1,14,9.1l1-.34a118.69,118.69,0,0,0-14.27-9.29m182.59-30.26c-.61,1-1.26,2-2,3a22.84,22.84,0,0,0-2.74,4.94l1.41.53a21.89,21.89,0,0,1,2.7-4.85c.7-1,1.37-2,2-3l-1.37-.58M554.59,882l-.3.71c4.18,1.57,8.37,3.11,12.6,4.62,1.47.53,2.9,1.06,4.32,1.62l.31-.69q-2.14-.86-4.4-1.66c-4.2-1.49-8.39-3-12.53-4.6m222.62-33.2c-.13.48-.29,1-.44,1.42-.76,2.41-1.57,4.82-2.47,7.18l1.42.53c.9-2.37,1.7-4.79,2.47-7.2.15-.47.31-.95.45-1.43l-1.43-.5m-256,19.65-.42.65q8.25,3.6,16.63,7l.35-.68q-8.36-3.39-16.56-7m259.45-37.64c-.28,3.07-.72,6.11-1.3,9.14l1.43.46a90.92,90.92,0,0,0,1.3-9.18l-1.43-.42M489,853.23l-.57.58q7.94,4,16,7.82l.5-.61q-8.06-3.79-16-7.79m291.44-41.56q.54,4.88.6,9.67l1.45.38q-.09-4.82-.61-9.72l-1.44-.33M458.29,836.53l-.71.5.48.28q7.31,4.25,14.75,8.29l.64-.54q-7.41-4-14.68-8.26l-.48-.27m318-44.85c1,3.39,1.89,6.75,2.57,10.09l1.44.28c-.71-3.35-1.57-6.72-2.6-10.14l-1.41-.23M429.46,818.51l-.85.41q6.94,4.67,14.23,9.2l.77-.46q-7.25-4.53-14.15-9.15m338.68-47.46q2.54,5.22,4.56,10.38l1.4.18q-2-5.18-4.58-10.44l-1.38-.12M402.9,799.36l-1,.32q6.35,4.94,13,9.75l.92-.37q-6.66-4.8-13-9.7M756.24,750q3.43,5.31,6.4,10.53l1.35.08q-3-5.24-6.44-10.57l-1.31,0M379,779.31l-1.09.23q5.64,5.15,11.63,10.17l1-.28q-6-5-11.57-10.12m361.85-50.38.94,1.19q3.75,4.71,7.13,9.36h1.29c-2.27-3.12-4.65-6.25-7.17-9.41l-.94-1.19-1.25.06M358.14,758.64l-1.19.13q4.89,5.26,10.12,10.45l1.14-.18q-5.2-5.14-10.07-10.4m365.68-50.85-1.18.13q4.7,5,9.13,10.11l.33.37,1.22-.09-.33-.38q-4.46-5.11-9.17-10.14M339.06,737.66l1.37,1.77q3.48,4.44,7.19,8.81l1.22-.09q-3.68-4.35-7.15-8.76l-1.37-1.77-1.26,0M702.91,687l-1.1.21q5.51,5.12,10.73,10.31l1.15-.18q-5.25-5.22-10.78-10.34m-379,29.45q3.44,5.26,7.24,10.6h1.29q-3.78-5.32-7.22-10.57l-1.31,0m355.6-49.74-1,.29q6.11,5,11.94,10l1.06-.26q-5.87-5.09-12-10.07M311.47,695.33c1.85,3.49,3.8,7,5.88,10.54l1.35.08q-3.13-5.3-5.87-10.51l-1.36-.11m342.44-48.24-.91.38q6.64,4.78,13,9.68l1-.34q-6.4-4.89-13.08-9.72m-352,27.33q2,5.18,4.43,10.41l1.39.16c-1.61-3.49-3.08-6.94-4.43-10.39l-1.39-.18m324.45-46.15-.81.44c4.75,3.06,9.39,6.15,14,9.27l.85-.41q-6.86-4.68-14-9.3M295.23,653.91q1.29,5.05,2.95,10.2l1.4.22q-1.65-5.12-2.93-10.16l-1.42-.26m301.85-43.55-.72.5q7.51,4.36,14.77,8.81l.76-.48q-7.29-4.46-14.81-8.83M291.57,633.94c.37,3.29.85,6.59,1.46,9.91l1.43.3c-.61-3.31-1.09-6.61-1.45-9.88l-1.44-.33m274.86-40.55-.61.56q7.75,4.08,15.44,8.33l.65-.53q-7.7-4.28-15.48-8.36M290.84,614.65c-.12,3.17-.12,6.35,0,9.56l1.43.36q-.18-4.8,0-9.52l-1.44-.4m243.73-37.1-.48.61q8,3.76,16,7.74l.56-.59q-8-4-16.08-7.76M292.88,596.13q-.86,4.56-1.36,9.16l1.44.43c.33-3.06.79-6.1,1.35-9.13l-1.43-.46M501.66,563l-.37.67q8.31,3.43,16.52,7.06l.43-.65Q510,566.47,501.66,563m-204,15.46c-1,2.63-1.84,5.31-2.58,8l-.17.65,1.42.49.17-.65c.74-2.73,1.59-5.4,2.57-8l-1.41-.53M467.91,550l-.22.73q8.47,3,16.89,6.26l.29-.7q-8.43-3.24-17-6.29M305.77,562.09a89.22,89.22,0,0,0-4.51,8l1.39.56q2-4.08,4.5-8l-1.38-.6m127.88-23.33-.1.77q8.59,2.6,17.12,5.4l.16-.75q-8.55-2.82-17.18-5.42M317.36,547.2q-3.32,3.52-6.22,7.25l1.36.63c1.92-2.47,4-4.88,6.18-7.22l-1.32-.66m81.79-17.9.06.8q8.63,2.14,17.19,4.49v-.79q-8.58-2.35-17.26-4.5m-67,4.61q-4.08,3.12-7.79,6.44l1.3.69q3.68-3.3,7.76-6.41l-1.27-.72m32.6-12.23.18.84q8.6,1.69,17.1,3.57l-.12-.83q-8.55-1.89-17.16-3.58m-14.86.58q-4.79,2.72-9.2,5.62l1.23.74q4.4-2.89,9.18-5.6l-1.21-.76"></path> </g> </g> </svg> 