<?xml version="1.0" encoding="UTF-8"?> <svg xmlns="http://www.w3.org/2000/svg" id="Layer_1" data-name="Layer 1" viewBox="0 0 226.17 226.2"> <defs> <style>.cls-1{fill:#fff;}</style> </defs> <title>applemusic</title> <path class="cls-1" d="M1140.08,486.55V482l.08-5.73a3.39,3.39,0,0,0,.23-2l0-1,0-.67.73-6.3a13.12,13.12,0,0,0,.57-3.29l1.39-6.95.18-.51c.18-.7.35-1.4.53-2.1a1.17,1.17,0,0,0,.26-1l3.61-10.92a15,15,0,0,0,1.36-3.29l.6-1.33a16,16,0,0,0,1.75-4.16q3-5.3,6-10.57h0l.57-.81.39-.63,2.76-4,6.83-8.72.91-.94c1.47-1.62,3.2-3,4.38-4.89l.31-.28a32.85,32.85,0,0,0,4.89-4.39l.36-.3,4.66-3.82.67-.75a27.2,27.2,0,0,0,4.93-3.37,138.07,138.07,0,0,1,13.67-8c.22-.11.37-.37.56-.57a7.82,7.82,0,0,0,2.89-1.16l6-2.55a.72.72,0,0,0,.69-.26l5.35-1.87a26.77,26.77,0,0,0,4.54-1.4,8.54,8.54,0,0,0,2.68-.69l.65-.1c2.11-.44,4.24-.85,6.34-1.35.55-.12,1.22,0,1.62-.58a5,5,0,0,0,2.63-.18l.65-.15.66,0,5-.6,2.65-.13,7.25-.27,5,0a38.25,38.25,0,0,0,6,.38c1.28.49,2.66.27,4,.56l5.92.85a8.75,8.75,0,0,0,3,.56l11.27,3a17.79,17.79,0,0,0,3.62,1.24l10.9,4.61a17.64,17.64,0,0,0,3.49,1.71c.32.57.9.67,1.44.83A28.23,28.23,0,0,0,1312,386a18.58,18.58,0,0,0,3.3,2,5.39,5.39,0,0,0,2,1.37l9.91,7.65.33.29,4.31,4a1.12,1.12,0,0,0,.79.72c2.59,2.9,5.19,5.78,7.76,8.7,3.22,3.66,5.77,7.82,8.64,11.74a21.2,21.2,0,0,0,2.49,4.17l.42.82,1.94,3.58,5.37,12.27,2.7,8.25q.67,2.64,1.36,5.28c.29,1.32.59,2.65.89,4a54.24,54.24,0,0,0,1,6l.57,4.92a123.49,123.49,0,0,1-.49,26.14l-.06.66-.2,1,0,.36-1.23,6.64-1.14,4.92q-1.74,5.52-3.5,11a20.73,20.73,0,0,0-1.53,3.82l-1.09,2.61a4.32,4.32,0,0,0-.91,2l-3.48,6.76a15.36,15.36,0,0,0-1.81,3.08l-3.4,5.33-.2.33-3.37,4.67a7.72,7.72,0,0,0-1.54,2,6.52,6.52,0,0,0-1.73,2.1l-3,3.38a7.45,7.45,0,0,0-1.91,2.12,168.55,168.55,0,0,1-12.89,11.59,23.14,23.14,0,0,0-3.71,2.75,2.82,2.82,0,0,0-1.26.86l-4.94,3.23a32.29,32.29,0,0,0-4.51,2.65l-.09,0,0,.08-10.79,5.2a20.26,20.26,0,0,0-4.11,1.64l-11.2,3.48-2.86.7-7.12,1.48-3.94.47-4.3.56-.65.06a32.84,32.84,0,0,0-5,.32l-5,0-5.64-.1a5.89,5.89,0,0,0-4,.08,2.3,2.3,0,0,0-1.64-.63c-3.11-.19-6.16-.87-9.24-1.28l-1.69-.31-2-.39-.64-.13-5.36-1.35-9.45-3.12-5.07-2.05a7.91,7.91,0,0,0-2.29-1l-2.65-1.26-4.87-2.54-3-1.69a4.48,4.48,0,0,0-1.75-1,166.42,166.42,0,0,1-15.53-11.53,7.08,7.08,0,0,0-1.92-1.82l-3.36-3.17a6.1,6.1,0,0,0-1.64-1.72,19.24,19.24,0,0,0-2.69-2.94,10,10,0,0,0-2-2.3l-2.22-2.72a2.53,2.53,0,0,0-1.12-1.35l-6.88-10.19a16.21,16.21,0,0,0-1.93-3.29,15.31,15.31,0,0,0-1.66-3,12.75,12.75,0,0,0-1.57-3.21l-2.1-4.7c0-.26,0-.52-.28-.67l-1.91-4.91-1.11-3.06-3.3-12.19-.81-4.65-.84-5.27-.08-1.31a.34.34,0,0,0,0-.31l-.29-2.66A35.84,35.84,0,0,0,1140.08,486.55Zm48.6-5.54a91.75,91.75,0,0,0,9.77,39.29,84.78,84.78,0,0,0,17.14,24.1c4.2,4,9.12,6.28,15.15,5.28a44.7,44.7,0,0,0,10.13-3.45,29.65,29.65,0,0,1,16.63-2.13c3.75.59,7.13,2.23,10.58,3.67,8.64,3.6,16.48,2.42,23-4.44a88,88,0,0,0,19.37-31.76c.48-1.37.25-2-1.09-2.65a33,33,0,0,1-17.88-36.21c1.76-9,6.8-16,14.22-21.28,1-.72,1.27-1.2.44-2.33-8.5-11.53-23.92-15.39-35.16-13-5.25,1.13-10.14,3.32-15.12,5.23a13.23,13.23,0,0,1-10,.05c-2.25-.89-4.52-1.75-6.78-2.61-3.66-1.41-7.36-2.75-11.32-2.84-13-.27-23.18,5.29-30.72,15.7C1190.77,460.34,1188.83,470.37,1188.68,481Zm60.85-50.43a14.81,14.81,0,0,1,0,1.49c-.14,1.46.52,2,1.94,1.81,1.2-.17,2.42-.17,3.61-.4,15.6-3.1,25.58-19.37,24.83-33-.06-1.1-.44-1.41-1.52-1.29a29.35,29.35,0,0,0-11.64,4C1256.21,409.26,1250.55,418.48,1249.53,430.58Z" transform="translate(-1140.08 -369.47)"></path> </svg> 