<?xml version="1.0" encoding="UTF-8"?> <svg xmlns="http://www.w3.org/2000/svg" id="Layer_1" data-name="Layer 1" viewBox="0 0 736 189.33"> <title>NEW R-CHV LOGO B</title> <rect x="159.02" y="92.07" width="71.66" height="22.35"></rect> <path d="M526,452.74a81.5,81.5,0,0,0-28.34,19.54,87.48,87.48,0,0,0-18.18,30,109.17,109.17,0,0,0-6.3,37.73c0,14.14,2.12,27.09,6.3,38.48a86.94,86.94,0,0,0,18,29.88,79.22,79.22,0,0,0,27.64,19.13,86,86,0,0,0,25.29,6.17l10.93,1V612.27l-9-.89a63.53,63.53,0,0,1-18.18-4.48,56.48,56.48,0,0,1-19.82-13.73A65.67,65.67,0,0,1,501,570.81c-3.29-8.91-5-19.28-5-30.82a87.3,87.3,0,0,1,5-30.44,65.73,65.73,0,0,1,13.57-22.39,58.56,58.56,0,0,1,20.48-13.94,65.68,65.68,0,0,1,17.43-4.41l8.86-1V445.34l-11.11,1.23A88.77,88.77,0,0,0,526,452.74Z" transform="translate(-176 -445.34)"></path> <polygon points="527.59 79.61 460.56 79.61 460.56 102.19 527.59 102.19 527.59 184.38 550.41 184.38 550.41 0 527.59 0 527.59 79.61"></polygon> <path d="M886.83,557.68,874,589.7,816.31,446.28c-.12-.32-.26-.63-.39-.94h-25l72.26,179.45,2.18,5.55h17.25l1.95-5L912,557.16Z" transform="translate(-176 -445.34)"></path> <path d="M300,629.72h2.85l-68.93-82.07c1.4-.36,2.77-.76,4.12-1.2a62.84,62.84,0,0,0,20-10.51,49.13,49.13,0,0,0,13.68-17.14,51.19,51.19,0,0,0,4.86-22.37c0-17.39-6-30.58-17.94-39.22-10.9-7.88-26.17-11.87-45.36-11.87H176v22.34h37.25c14.07,0,24.71,2.52,31.63,7.47,6,4.27,8.85,11.23,8.85,21.28A30,30,0,0,1,251,509.54a25.87,25.87,0,0,1-7.7,9.47,39.71,39.71,0,0,1-13.26,6.53A66.89,66.89,0,0,1,211.13,528H176v22.34h27.62c1.19,0,2,0,2.57.08L273,630Zm-93.09-79.14-.12-.11h0Z" transform="translate(-176 -445.34)"></path> </svg> 