<?xml version="1.0" encoding="UTF-8"?> <svg xmlns="http://www.w3.org/2000/svg" id="Layer_1" data-name="Layer 1" viewBox="0 0 52 52"> <defs> <style>.cls-1{fill:#fff;}.cls-2{fill:#fefefe;}.cls-3{fill:#84cadd;}</style> </defs> <title>a</title> <circle cx="26" cy="26" r="26"></circle> <path class="cls-1" d="M44.7,28.53A28.11,28.11,0,0,1,37,35.24a16.62,16.62,0,0,1-10.34,2.1A13.84,13.84,0,0,1,22.47,36a27.12,27.12,0,0,1-4.89-3.52l-6-5.09a.86.86,0,0,1-.29-.37.71.71,0,0,1,.21-.58,18.41,18.41,0,0,1,8.05-5.67,34.6,34.6,0,0,1,10.09-2,12.57,12.57,0,0,1,4.46.3,13.16,13.16,0,0,1,4.88,3.3Q42,25.14,45.3,27.79" transform="translate(-2.61 -2.61)"></path> <path class="cls-1" d="M43.89,27.71a37.76,37.76,0,0,1-3.25,3.44c-.29.27-.59.53-.89.78l-.45.38-.21.16s-.2.16,0,0,0,0-.06,0a22.69,22.69,0,0,1-2,1.36,19.77,19.77,0,0,1-2.43,1.23l.28-.12a17.69,17.69,0,0,1-4.39,1.22l.3,0a14.8,14.8,0,0,1-3.82,0l.3,0a13.78,13.78,0,0,1-3.5-1l.27.11a15.76,15.76,0,0,1-2.49-1.35q-.6-.41-1.17-.84l-.11-.08c.28.18.08.06,0,0L20,32.94l-.56-.45c-1.58-1.3-3.13-2.63-4.69-4L13.37,27.4l-.67-.56-.35-.3-.1-.08-.08-.09c.11.16.14.19.08.09l.12.28a.27.27,0,0,1,0-.12l0,.31v-.06l0,.31a.53.53,0,0,1,.05-.18l-.12.27.12-.2s.12-.16,0,0,0,.06,0,0l.29-.36c.19-.22.39-.44.59-.65a15.61,15.61,0,0,1,1.33-1.24l.34-.27c.19-.16-.17.12,0,0l.2-.15.75-.52c.52-.34,1.05-.66,1.6-1s1.26-.64,1.9-.91l-.27.12a30,30,0,0,1,7.7-2l-.31,0c1.05-.14,2.12-.24,3.18-.31a15.79,15.79,0,0,1,3.15,0l-.31,0a7.46,7.46,0,0,1,2,.53l-.28-.12a10.21,10.21,0,0,1,2.06,1.23l-.09-.07.13.1.22.18.48.41.89.79c1.36,1.24,2.73,2.46,4.13,3.64.82.69,1.64,1.37,2.47,2a1.26,1.26,0,0,0,.82.34,1.13,1.13,0,0,0,.81-.34,1.15,1.15,0,0,0,0-1.63c-2.21-1.78-4.36-3.64-6.46-5.55a22.42,22.42,0,0,0-3-2.43,10.1,10.1,0,0,0-1.86-.93,9.18,9.18,0,0,0-2.15-.48,20.68,20.68,0,0,0-4.16.07,43.28,43.28,0,0,0-4.37.6,27.29,27.29,0,0,0-7.7,2.62,17.7,17.7,0,0,0-5.7,4.61,2.17,2.17,0,0,0-.66,1.45,1.85,1.85,0,0,0,.76,1.34l1.7,1.44,3.38,2.84a29.36,29.36,0,0,0,6.7,4.76,14.93,14.93,0,0,0,8.45,1.16,19,19,0,0,0,7.38-2.74,28.28,28.28,0,0,0,5.89-5c.41-.45.8-.9,1.19-1.37a1.23,1.23,0,0,0,.34-.81,1.17,1.17,0,0,0-.34-.82,1.16,1.16,0,0,0-1.63,0Z" transform="translate(-2.61 -2.61)"></path> <path d="M37,28.05a8.32,8.32,0,0,1-6,7.78,4.23,4.23,0,0,1-1.25.26c-.4,0-.77.11-1.17.09A9.26,9.26,0,0,1,22,33a5.91,5.91,0,0,1-1.42-3.45,13.5,13.5,0,0,1-.05-2A12,12,0,0,1,21,24.49a5.93,5.93,0,0,1,3.41-3.59,11.6,11.6,0,0,1,4.13-1,7.27,7.27,0,0,1,4.69,1.49,8.91,8.91,0,0,1,3.52,4.71A6.09,6.09,0,0,1,37,28.05Zm-13.59-.11a5,5,0,0,0,5.78,5.21,5.35,5.35,0,0,0,4.65-5,4.69,4.69,0,0,0-.76-3c-1-1.44-4.16-2.86-6.32-1.81a7.42,7.42,0,0,0-2.11,1.27A4.41,4.41,0,0,0,23.43,27.94Z" transform="translate(-2.61 -2.61)"></path> <path class="cls-2" d="M23,27.93a4.86,4.86,0,0,1,1.34-3.58A8.09,8.09,0,0,1,26.61,23c2.34-1.13,5.8.4,6.86,2a5.07,5.07,0,0,1,.82,3.26,5.79,5.79,0,0,1-5,5.38A5.46,5.46,0,0,1,23,27.93Zm5.33-3.25a2.86,2.86,0,0,0-1.71.48,3.65,3.65,0,0,0-1.19,3.62,3.77,3.77,0,0,0,4.3,2.4c2.18-.44,2.76-3.23,2-4.59A3.79,3.79,0,0,0,28.31,24.68Z" transform="translate(-2.61 -2.61)"></path> <path class="cls-3" d="M28.31,24.68a3.79,3.79,0,0,1,3.38,1.91c.78,1.36.2,4.15-2,4.59a3.77,3.77,0,0,1-4.3-2.4,3.65,3.65,0,0,1,1.19-3.62A2.86,2.86,0,0,1,28.31,24.68ZM30,27.93a1.37,1.37,0,0,0-1.21-1.3,1.4,1.4,0,0,0-1.33,1.31,1.27,1.27,0,0,0,1.27,1.22A1.24,1.24,0,0,0,30,27.93Z" transform="translate(-2.61 -2.61)"></path> <path d="M30,27.93a1.24,1.24,0,0,1-1.27,1.23,1.27,1.27,0,0,1-1.27-1.22,1.4,1.4,0,0,1,1.33-1.31A1.37,1.37,0,0,1,30,27.93Z" transform="translate(-2.61 -2.61)"></path> <path class="cls-1" d="M44.63,39.87a26.42,26.42,0,0,0-3.91-5.58,1.16,1.16,0,0,0-1.64,0,1.18,1.18,0,0,0,0,1.63q.56.6,1.05,1.23a1.83,1.83,0,0,1,.13.16s.18.23.06.07l0,0,.12.17c.17.22.33.44.48.67A25.08,25.08,0,0,1,42.64,41a1.16,1.16,0,0,0,1.58.42,1.18,1.18,0,0,0,.41-1.58Z" transform="translate(-2.61 -2.61)"></path> <path class="cls-1" d="M36.63,43c-.33-.6-.62-1.21-.89-1.84l.12.28a22.16,22.16,0,0,1-1.37-4.58,1.18,1.18,0,0,0-.53-.69,1.2,1.2,0,0,0-.89-.11,1.18,1.18,0,0,0-.81,1.42,23.12,23.12,0,0,0,2.37,6.69,1.17,1.17,0,0,0,1.58.41A1.19,1.19,0,0,0,36.63,43Z" transform="translate(-2.61 -2.61)"></path> <path class="cls-1" d="M19.76,34.82a21.19,21.19,0,0,1-1,2.81l.12-.27a25.73,25.73,0,0,1-1.22,2.47,1.15,1.15,0,1,0,2,1.17A24.11,24.11,0,0,0,22,35.44a1.16,1.16,0,0,0-2.23-.62Z" transform="translate(-2.61 -2.61)"></path> <path class="cls-1" d="M14.71,30.21c-.61.92-1.23,1.82-1.87,2.71l-1,1.29-.27.35c-.13.16.11-.15,0,0l-.12.14-.54.69a1.26,1.26,0,0,0-.34.82A1.17,1.17,0,0,0,11,37a1.11,1.11,0,0,0,.82.34,1.07,1.07,0,0,0,.81-.34c1.45-1.81,2.82-3.68,4.09-5.61a1.16,1.16,0,0,0-.41-1.58,1.17,1.17,0,0,0-1.58.41Z" transform="translate(-2.61 -2.61)"></path> <path class="cls-1" d="M40.75,22.16l3-4.59a1.16,1.16,0,0,0-2-1.16l-3,4.58a1.16,1.16,0,0,0,.42,1.58,1.18,1.18,0,0,0,1.58-.41Z" transform="translate(-2.61 -2.61)"></path> <path class="cls-1" d="M36.79,18.66a53.42,53.42,0,0,0,1.68-5.25,1.15,1.15,0,1,0-2.22-.61q-.72,2.65-1.68,5.24a1.15,1.15,0,0,0,.11.89,1.18,1.18,0,0,0,.69.53,1.15,1.15,0,0,0,.89-.11,1.3,1.3,0,0,0,.53-.69Z" transform="translate(-2.61 -2.61)"></path> <path class="cls-1" d="M31.45,17.81a5.87,5.87,0,0,0-.05-2.13c-.1-.55-.24-1.1-.31-1.66l0,.31a11.6,11.6,0,0,1-.1-1.86,1.17,1.17,0,0,0-1.16-1.16,1.19,1.19,0,0,0-1.16,1.16,14.07,14.07,0,0,0,.16,2.24c.09.65.27,1.29.36,1.95l0-.31a4.27,4.27,0,0,1,0,1l0-.31a.68.68,0,0,1,0,.14,1.2,1.2,0,0,0,.12.89,1.15,1.15,0,0,0,.69.53,1.17,1.17,0,0,0,1.42-.8Z" transform="translate(-2.61 -2.61)"></path> <path class="cls-1" d="M26,18l-1.37-3.18L24,13.2a2,2,0,0,0-.48-.8,1.35,1.35,0,0,0-.92-.37,1.27,1.27,0,0,0-.61.17,1.88,1.88,0,0,0-.44.45,1.16,1.16,0,0,0-.12.89,1.19,1.19,0,0,0,.53.69,1.23,1.23,0,0,0,.9.12,1.44,1.44,0,0,0,.69-.53l0,0-.42.41h0l-.58.15h0l-.3,0h0l-.27-.11-.16-.13c-.12-.17-.16-.22-.11-.14a1.11,1.11,0,0,0,.07.16l.13.31.29.66.58,1.37L24,19.11a1.16,1.16,0,0,0,.69.54,1.2,1.2,0,0,0,.89-.12,1.18,1.18,0,0,0,.53-.69A1.3,1.3,0,0,0,26,18Z" transform="translate(-2.61 -2.61)"></path> <path class="cls-1" d="M19.94,19.56q-1.71-1.62-3.3-3.35A1.16,1.16,0,1,0,15,17.84c1.06,1.16,2.16,2.27,3.3,3.35a1.16,1.16,0,0,0,1.64-1.63Z" transform="translate(-2.61 -2.61)"></path> <path class="cls-1" d="M25.93,38a48.76,48.76,0,0,1-1.27,5.6,1.16,1.16,0,1,0,2.23.61,48.76,48.76,0,0,0,1.27-5.6,1.31,1.31,0,0,0-.11-.89,1.16,1.16,0,0,0-2.12.28Z" transform="translate(-2.61 -2.61)"></path> </svg> 