<?xml version="1.0" encoding="UTF-8"?> <!-- Generator: Adobe Illustrator 23.0.3, SVG Export Plug-In . SVG Version: 6.00 Build 0) --> <svg xmlns="http://www.w3.org/2000/svg" xmlns:xlink="http://www.w3.org/1999/xlink" id="Layer_1" x="0px" y="0px" viewBox="0 0 1536.8 411.7" style="enable-background:new 0 0 1536.8 411.7;" xml:space="preserve"> <style type="text/css"> .st0{enable-background:new ;} .st1{fill:#FFFFFF;} </style> <title>ashap</title> <g class="st0"> <path class="st1" d="M374,151.7c1.2,0.9,2.8,1.5,5,1.8v1.2h-25.1v-1.1c3,0,5-0.3,6.2-0.8c1-0.4,2.1-1.4,2.1-3.5 c0-0.5-0.2-1.8-2.3-6.9l-5.1-12.5l-0.2-0.6l-3.9-9.6h-18.5l-3.9,9.6l-0.1,0.3l-1.8,4.5c-2.6,6.5-3.9,10.6-3.9,12.6 c0,2.3,0.8,4,2.3,5.2c1.3,1,3,1.6,5,1.7v1.1h-18.7v-0.3c2.8-0.5,5-2.5,6.5-4.2c1.5-1.7,3.3-5.3,5.3-10.8c0.2-0.5,1-2.5,2.4-5.9 l19.3-47.3h1.1l22.2,54.2l3.1,7.2C371.8,149.3,372.8,150.7,374,151.7z M350.3,118.7l-8.9-22.1l-8.9,22.1H350.3z"></path> <path class="st1" d="M458.2,127.1c1.5,2.7,2.3,5.9,2.3,9.5c0,5.7-1.9,10.4-5.5,13.9c-3.7,3.6-8.7,5.4-14.9,5.4 c-5.9,0-11.1-2-15.4-5.9l0,0c0,0-0.1-0.1-0.2-0.2c-0.1-0.1-0.2-0.2-0.3-0.3c-0.4-0.4-1.2-0.8-2.1-0.8c-0.9,0.1-2.1,0.7-2.8,3.1l0,0 c-0.2,0.7-0.4,1.4-0.5,2.2h-1.4v-20.9h1.4c2.9,14.3,9.8,21.6,20.4,21.6c4.9,0,8.7-1.5,11.4-4.3c2.7-2.9,4-6.1,4-9.7 c0-3.6-1.2-6.7-3.6-9.1c-2.3-2.3-6.6-4.9-12.6-7.5c-5.3-2.3-9.4-4.4-12.1-6.2c-2.6-1.7-4.7-4-6.2-6.7c-1.5-2.7-2.2-5.7-2.2-8.8 c0-4.7,1.6-8.7,4.8-11.8c3.2-3.1,7.3-4.7,12.1-4.7c2.7,0,5.4,0.5,7.8,1.4c1.7,0.6,3.5,1.8,5.3,3.5l0,0c0,0,0,0,0,0 c0.1,0.1,0.3,0.2,0.4,0.4c0.4,0.4,1.2,0.8,2.1,0.9c0.7-0.1,1.5-0.5,2.2-1.6c0,0,0,0,0,0c0-0.1,0.1-0.2,0.1-0.3 c0.4-0.9,0.7-1.9,0.8-2.9h1v16.8h-1.1c-1.3-5.1-3.5-9.2-6.7-12.2c-3.3-3.1-7.1-4.7-11.4-4.7c-4.1,0-7.2,1.2-9.2,3.5 c-1.9,2.3-2.9,4.9-2.9,7.7c0,3.3,1.2,6.2,3.7,8.5c2.3,2.3,6.6,4.8,12.7,7.6c5.7,2.6,9.9,4.7,12.5,6.3 C454.7,122.2,456.7,124.4,458.2,127.1z"></path> <path class="st1" d="M508.6,87.1h29.2v1.1h-0.4c-3.4,0-5.6,0.3-6.8,0.9c-1.2,0.6-2,1.8-2.4,3.5c-0.4,1.6-0.5,5.2-0.5,11v33.7 c0,5.5,0.1,9,0.4,10.7c0.3,1.8,1,3.2,2.2,4.1c1.2,0.9,3.3,1.3,6.5,1.3h0.9v1.1h-29.2v-1.1h1.7c3,0,5-0.4,6.2-1.2 c1.2-0.8,2-2.1,2.4-3.9c0.3-1.6,0.5-5.3,0.5-11.1v-18.1h-36.2v18.1c0,5.5,0.1,9,0.4,10.7c0.3,1.8,1,3.2,2.2,4.1 c1.2,0.9,3.3,1.3,6.5,1.3h1.1v1.1h-28.9v-1.1h1.1c3,0,5.1-0.4,6.3-1.2c1.2-0.8,2-2.1,2.4-3.9c0.3-1.6,0.5-5.3,0.5-11.1v-33.7 c0-5.6-0.2-9.1-0.5-10.7c-0.3-1.8-1.1-3-2.3-3.7c-1.1-0.7-3.4-1-6.9-1h-0.6v-1.1h28.9v1.1h-0.6c-3.4,0-5.6,0.3-6.7,0.9 c-1.2,0.6-2,1.8-2.4,3.5c-0.4,1.6-0.5,5.2-0.5,11l0,14.9h36.2l0-14.9c0-5.6-0.1-9.1-0.5-10.7c-0.3-1.8-1.1-3-2.2-3.7 c-1.1-0.7-3.4-1-6.9-1h-1.2V87.1z"></path> <path class="st1" d="M599.6,151.7c1.2,0.9,2.8,1.5,5,1.8v1.2h-25.1v-1.1c3,0,5-0.3,6.2-0.8c1-0.4,2.1-1.4,2.1-3.5 c0-0.5-0.2-1.8-2.3-6.9l-5.1-12.5l-0.2-0.6l-3.9-9.6h-18.5l-3.9,9.6l-0.1,0.3l-1.8,4.5c-2.6,6.5-3.9,10.6-3.9,12.6 c0,2.3,0.8,4,2.3,5.2c1.3,1,3,1.6,5,1.7v1.1h-18.7v-0.3c2.8-0.5,5-2.5,6.5-4.2c1.5-1.7,3.3-5.3,5.3-10.8c0.2-0.5,1-2.5,2.4-5.9 l19.3-47.3h1.1l22.2,54.2l3.1,7.2C597.4,149.3,598.4,150.7,599.6,151.7z M575.9,118.7l-8.9-22.1l-8.9,22.1H575.9z"></path> <path class="st1" d="M657.6,102.3c0.2,2.7-0.1,15.8-19.7,17.3c-0.1,0-0.2,0-0.4,0c-1.5,0.1-3,0.1-4.7,0.1h-8v17.6 c0,5.5,0.1,9,0.4,10.7c0.3,1.8,1,3.2,2.2,4.1c1.2,0.9,3.3,1.3,6.5,1.3h1.6v1.1h-29.4v-1.1h1.2c3,0,5.1-0.4,6.3-1.2 c1.2-0.8,2-2.1,2.4-3.9c0.3-1.6,0.5-5.3,0.5-11.1v-33.7c0-5.6-0.2-9.1-0.5-10.7c-0.3-1.8-1.1-3-2.3-3.7c-1.1-0.7-3.4-1-6.9-1h-0.6 v-1.1l7.8-0.3c6.7-0.2,12-0.4,15.7-0.4c6.8,0,12.1,0.6,15.8,1.7c3.6,1.1,6.6,3,8.9,5.7c1.8,2.2,3,4.9,3.3,8c0,0,0,0,0,0 c0,0.1,0,0.2,0,0.3V102.3z M630.2,118.5c2.9,0,5.5-0.2,7.6-0.7c0.2,0,0.3-0.1,0.5-0.1c0.5-0.1,1-0.3,1.5-0.4c1-0.4,2-0.9,2.9-1.5 c2.4-1.6,3.8-3.6,4.6-5.6c0,0,0,0,0,0c0.7-1.6,1-3.3,1.2-4.6c0,0,0,0,0,0c0-0.2,0-0.4,0-0.7c0-5.8-1.4-10.2-4.3-13 c-2.8-2.8-7.4-4.2-13.6-4.2c-2.3,0-4,0.1-5.2,0.2l-0.5,0.1v30.5H630.2z"></path> <path class="st1" d="M714.5,134.5h1.2l-1.3,20.2h-50.5v-1.1h0.8c3.5,0,5.8-0.5,6.9-1.5c1.1-1,1.8-2.3,2-3.8c0.3-1.5,0.4-5,0.4-10.8 v-33.7c0-5.3-0.1-8.7-0.4-10.5c-0.3-1.8-1-3.1-2.2-3.9c-1-0.7-3-1-6.1-1.1v-1.1H712l1.5,15.9h-1.2c-1.1-4.7-2.3-7.9-3.9-10 c-1.6-2.1-3.6-3.5-5.8-4c-2.1-0.5-5.6-0.8-10.3-0.8h-9.9l0,30.4h7.7c3.4,0,5.7-0.3,7.1-0.9c1.5-0.6,2.4-1.6,2.9-3 c0.4-1.2,0.6-3.3,0.7-6.4h1.1v22.3h-1.1c0-3.6-0.4-6-1-7.3c-0.7-1.5-1.7-2.4-3.1-2.9c-1.3-0.4-3.3-0.6-6.3-0.6h-8l0,16.7 c0,11.1,0.9,13.8,1.6,14.7c1.1,1.6,4,2.4,8.7,2.4h1.2c3.6,0,6.6-0.5,8.9-1.4c2.4-1,4.6-3,6.8-5.9 C711.7,143.3,713.3,139.4,714.5,134.5z"></path> <path class="st1" d="M776.9,135.7h1.2l-0.5,19H722v-1.1h1.4c3,0,5.1-0.4,6.3-1.2c1.2-0.8,2-2.1,2.4-3.9c0.3-1.6,0.5-5.3,0.5-11.1 v-33.7c0-5.6-0.2-9.1-0.5-10.7c-0.3-1.8-1.1-3-2.3-3.7c-1.1-0.7-3.4-1-6.9-1H722v-1.1h30.9v1.1h-2.4c-3.4,0-5.6,0.3-6.8,0.9 c-1.2,0.6-2,1.8-2.4,3.5c-0.4,1.6-0.5,5.2-0.5,11v36c0,5.1,0.1,8.2,0.4,9.5c0.3,1.4,1.1,2.5,2.4,3.3c1.3,0.8,3.8,1.1,7.8,1.1h5.1 c4.2,0,7.3-0.4,9.4-1.2c2.1-0.8,4.1-2.5,6-5.1C773.8,144.8,775.4,140.9,776.9,135.7z"></path> </g> <g class="st0"> <path class="st1" d="M834.9,134.5h1.2l-1.3,20.2h-50.5v-1.1h0.8c3.5,0,5.8-0.5,6.9-1.5c1.1-1,1.8-2.3,2-3.8c0.3-1.5,0.4-5,0.4-10.8 v-33.7c0-5.3-0.1-8.7-0.4-10.5c-0.3-1.8-1-3.1-2.2-3.9c-1-0.7-3-1-6.1-1.1v-1.1h46.7l1.5,15.9h-1.2c-1.1-4.7-2.3-7.9-3.9-10 c-1.6-2.1-3.6-3.5-5.8-4c-2.1-0.5-5.6-0.8-10.3-0.8h-9.9l0,30.4h7.7c3.4,0,5.7-0.3,7.1-0.9c1.5-0.6,2.4-1.6,2.9-3 c0.4-1.2,0.6-3.3,0.7-6.4h1.1v22.3h-1.1c0-3.6-0.4-6-1-7.3c-0.7-1.5-1.7-2.4-3.1-2.9c-1.3-0.4-3.3-0.6-6.3-0.6h-8l0,16.7 c0,11.1,0.9,13.8,1.6,14.7c1.2,1.6,4,2.4,8.7,2.4h1.2c3.6,0,6.6-0.5,8.9-1.4c2.4-1,4.6-3,6.8-5.9 C832.1,143.3,833.7,139.4,834.9,134.5z"></path> </g> <g class="st0"> <path class="st1" d="M885.1,127.1c1.5,2.7,2.3,5.9,2.3,9.5c0,5.7-1.9,10.4-5.5,13.9c-3.7,3.6-8.7,5.4-14.9,5.4 c-5.9,0-11.1-2-15.4-5.9l0,0c0,0-0.1-0.1-0.2-0.2c-0.1-0.1-0.2-0.2-0.3-0.3c-0.4-0.4-1.2-0.8-2.1-0.8c-0.9,0.1-2.1,0.7-2.8,3.1l0,0 c-0.2,0.7-0.4,1.4-0.5,2.2h-1.4v-20.9h1.4c2.9,14.3,9.8,21.6,20.4,21.6c4.9,0,8.7-1.5,11.4-4.3c2.7-2.9,4-6.1,4-9.7 c0-3.6-1.2-6.7-3.6-9.1c-2.3-2.3-6.6-4.9-12.6-7.5c-5.3-2.3-9.4-4.4-12.1-6.2c-2.6-1.7-4.7-4-6.2-6.7c-1.5-2.7-2.2-5.7-2.2-8.8 c0-4.7,1.6-8.7,4.8-11.8c3.2-3.1,7.3-4.7,12.1-4.7c2.7,0,5.4,0.5,7.8,1.4c1.7,0.6,3.5,1.8,5.3,3.5l0,0c0,0,0,0,0,0 c0.1,0.1,0.3,0.2,0.4,0.4c0.4,0.4,1.2,0.8,2.1,0.9c0.7-0.1,1.5-0.5,2.2-1.6c0,0,0,0,0,0c0-0.1,0.1-0.2,0.1-0.3 c0.4-0.9,0.7-1.9,0.8-2.9h1v16.8h-1.1c-1.3-5.1-3.5-9.2-6.7-12.2c-3.3-3.1-7.1-4.7-11.4-4.7c-4.1,0-7.2,1.2-9.2,3.5 c-1.9,2.3-2.9,4.9-2.9,7.7c0,3.3,1.2,6.2,3.7,8.5c2.3,2.3,6.6,4.8,12.7,7.6c5.7,2.6,9.9,4.7,12.5,6.3 C881.5,122.2,883.5,124.4,885.1,127.1z"></path> <path class="st1" d="M934.4,127.1c1.5,2.7,2.3,5.9,2.3,9.5c0,5.7-1.9,10.4-5.5,13.9c-3.7,3.6-8.7,5.4-14.9,5.4 c-5.9,0-11.1-2-15.4-5.9l0,0c0,0-0.1-0.1-0.2-0.2c-0.1-0.1-0.2-0.2-0.3-0.3c-0.4-0.4-1.2-0.8-2.1-0.8c-0.9,0.1-2.1,0.7-2.8,3.1l0,0 c-0.2,0.7-0.4,1.4-0.5,2.2h-1.4v-20.9h1.4c2.9,14.3,9.8,21.6,20.4,21.6c4.9,0,8.7-1.5,11.4-4.3c2.7-2.9,4-6.1,4-9.7 c0-3.6-1.2-6.7-3.6-9.1c-2.3-2.3-6.6-4.9-12.6-7.5c-5.3-2.3-9.4-4.4-12.1-6.2c-2.6-1.7-4.7-4-6.2-6.7c-1.5-2.7-2.2-5.7-2.2-8.8 c0-4.7,1.6-8.7,4.8-11.8c3.2-3.1,7.3-4.7,12.1-4.7c2.7,0,5.4,0.5,7.8,1.4c1.7,0.6,3.5,1.8,5.3,3.5l0,0c0,0,0,0,0,0 c0.1,0.1,0.3,0.2,0.4,0.4c0.4,0.4,1.2,0.8,2.1,0.9c0.7-0.1,1.5-0.5,2.2-1.6c0,0,0,0,0,0c0-0.1,0.1-0.2,0.1-0.3 c0.4-0.9,0.7-1.9,0.8-2.9h1v16.8h-1.1c-1.3-5.1-3.5-9.2-6.7-12.2c-3.3-3.1-7.1-4.7-11.4-4.7c-4.1,0-7.2,1.2-9.2,3.5 c-1.9,2.3-2.9,4.9-2.9,7.7c0,3.3,1.2,6.2,3.7,8.5c2.3,2.3,6.6,4.8,12.7,7.6c5.7,2.6,9.9,4.7,12.5,6.3 C930.8,122.2,932.9,124.4,934.4,127.1z"></path> <path class="st1" d="M1031.5,102.3c0.2,2.7-0.1,15.8-19.7,17.3c-0.1,0-0.2,0-0.4,0c-1.5,0.1-3,0.1-4.7,0.1h-8v17.6 c0,5.5,0.1,9,0.4,10.7c0.3,1.8,1,3.2,2.2,4.1c1.2,0.9,3.3,1.3,6.5,1.3h1.6v1.1h-29.5v-1.1h1.2c3,0,5.1-0.4,6.3-1.2 c1.2-0.8,2-2.1,2.4-3.9c0.3-1.6,0.5-5.3,0.5-11.1v-33.7c0-5.6-0.2-9.1-0.5-10.7c-0.3-1.8-1.1-3-2.3-3.7c-1.1-0.7-3.4-1-6.9-1h-0.6 v-1.1l7.8-0.3c6.7-0.2,12-0.4,15.7-0.4c6.8,0,12.1,0.6,15.8,1.7c3.6,1.1,6.6,3,8.9,5.7c1.8,2.2,3,4.9,3.3,8c0,0,0,0,0,0 c0,0.1,0,0.2,0,0.3V102.3z M1004.1,118.5c2.9,0,5.5-0.2,7.6-0.7c0.2,0,0.3-0.1,0.5-0.1c0.5-0.1,1-0.3,1.5-0.4c1-0.4,2-0.9,2.9-1.5 c2.4-1.6,3.8-3.6,4.6-5.6c0,0,0,0,0,0c0.7-1.6,1-3.3,1.2-4.6c0,0,0,0,0,0c0-0.2,0-0.4,0-0.7c0-5.8-1.4-10.2-4.3-13 c-2.8-2.8-7.4-4.2-13.6-4.2c-2.3,0-4,0.1-5.2,0.2l-0.5,0.1v30.5H1004.1z"></path> <path class="st1" d="M1161.4,120.6c0,10.1-3.2,18.4-9.5,24.6c-6.3,6.2-14.8,9.4-25.2,9.4c-10.1,0-18.5-3.2-24.9-9.4 c-1.2-1.1-2.3-2.4-3.2-3.6c-0.6-0.7-1.1-1.5-1.5-2.3c-3.3-5.3-5-11.7-5-19c0-4-0.4-7.7-1.1-11c-1-5.1-2.8-9.3-5.3-12.7 c-4.3-5.6-10.5-8.5-18.6-8.5c-8,0-14.2,2.8-18.4,8.3c-4.2,5.5-6.4,13.6-6.4,24.3c0,10.8,2.1,19,6.4,24.5c4.3,5.5,10.7,8.3,19.2,8.3 c7.4,0,13.4-2.8,17.8-8.3c1-1.3,2-2.8,2.8-4.5c2.5-4.3,4.8-2.4,6.1-0.7c0.6,0.7,0.9,1.4,1,1.6c0,0,0,0,0,0c-0.9,1.3-2,2.5-3.2,3.6 c-6.3,6.2-14.8,9.4-25.2,9.4c-10.1,0-18.5-3.2-24.9-9.4c-6.4-6.2-9.7-14.6-9.7-24.9c0-10.1,3.3-18.2,9.8-24.3 c6.6-6.1,14.8-9.2,24.7-9.2c9.9,0,18.3,3.1,24.9,9.1c1.3,1.2,2.5,2.4,3.5,3.8c0.6,0.7,1.1,1.5,1.5,2.2c3.1,4.9,4.7,10.7,4.9,17.5 c0,0.4,0,0.8,0,1.2c0,0.4,0,0.8,0,1.2c0,3.8,0.4,7.3,1,10.4c1,5.3,2.8,9.6,5.4,12.9c4.3,5.5,10.7,8.3,19.2,8.3 c7.4,0,13.4-2.8,17.8-8.3c4.3-5.5,6.5-13.7,6.5-24.4c0-10.4-2.2-18.6-6.4-24.2c-4.3-5.6-10.6-8.5-18.6-8.5c-8,0-14.2,2.8-18.4,8.3 c-5.4,7.7-9.1,3.9-9.6,3.4c0,0-0.1-0.1-0.1-0.1c1-1.3,2.1-2.6,3.4-3.7c6.5-6.1,14.8-9.2,24.6-9.2c9.9,0,18.3,3.1,24.9,9.1 C1158,101.9,1161.4,110.2,1161.4,120.6z"></path> <path class="st1" d="M1219.5,135.7h1.2l-0.5,19h-55.7v-1.1h1.4c3,0,5.1-0.4,6.3-1.2c1.2-0.8,2-2.1,2.4-3.9 c0.3-1.6,0.5-5.3,0.5-11.1v-33.7c0-5.6-0.2-9.1-0.5-10.7c-0.3-1.8-1.1-3-2.3-3.7c-1.1-0.7-3.4-1-6.9-1h-0.9v-1.1h30.9v1.1h-2.4 c-3.4,0-5.6,0.3-6.8,0.9c-1.2,0.6-2,1.8-2.4,3.5c-0.4,1.6-0.5,5.2-0.5,11v36c0,5.1,0.1,8.2,0.4,9.5c0.3,1.4,1.1,2.5,2.4,3.3 c1.3,0.8,3.8,1.1,7.8,1.1h5.1c4.2,0,7.3-0.4,9.4-1.2c2.1-0.8,4.1-2.5,6-5.1C1216.4,144.8,1218.1,140.9,1219.5,135.7z"></path> </g> <g class="st0"> <path class="st1" d="M181.8,237.1c0,10.4-3.3,19-9.9,25.4c-6.5,6.4-15.3,9.7-26,9.7c-10.4,0-19.1-3.3-25.7-9.7 c-6.7-6.4-10-15.1-10-25.8c0-10.4,3.4-18.8,10.2-25.1c6.8-6.3,15.3-9.5,25.5-9.5c10.2,0,18.9,3.2,25.7,9.4 C178.3,217.8,181.8,226.4,181.8,237.1z M171.6,237.2c0-10.8-2.2-19.2-6.6-25c-4.4-5.8-10.9-8.8-19.2-8.8c-8.2,0-14.6,2.9-19,8.6 c-4.4,5.6-6.6,14.1-6.6,25.1c0,11.2,2.2,19.7,6.6,25.3c4.4,5.7,11.1,8.6,19.8,8.6c7.7,0,13.9-2.9,18.3-8.6 C169.4,256.8,171.6,248.3,171.6,237.2z"></path> <path class="st1" d="M235.9,203.4l0.5,15.9h-1.2c-0.5-3.6-1.5-6.6-3.1-9c-1.7-2.6-3.5-4.2-5.3-4.8c-1.8-0.6-4.8-0.9-9-0.9h-13.7 v30.4h6.9c4.3,0,7-0.7,8.5-2.3c1.4-1.5,2.1-4.2,2.2-8.3h1.3v23h-1.3c0-2.7-0.3-4.9-0.9-6.6c-0.6-1.9-1.6-3.1-2.9-3.8 c-1.2-0.7-3.5-1-6.9-1h-6.9v17.7c0,5.5,0.1,9,0.4,10.7c0.3,1.8,1,3.2,2.2,4.1c1.2,0.9,3.3,1.3,6.6,1.3h1.7v1.1h-29.9v-1.1h1.5 c3,0,5.1-0.4,6.3-1.2c1.2-0.8,2-2.1,2.4-3.9c0.3-1.6,0.5-5.3,0.5-11.1V220c0-5.6-0.2-9.1-0.5-10.7c-0.3-1.8-1.1-3-2.3-3.7 c-1.1-0.7-3.4-1-6.9-1h-0.6v-1.1H235.9z"></path> <path class="st1" d="M331.6,252h1.2l-0.5,19h-55.7v-1.1h1.4c3,0,5.1-0.4,6.3-1.2c1.2-0.8,2-2.1,2.4-3.9c0.3-1.6,0.5-5.3,0.5-11.1 V220c0-5.6-0.2-9.1-0.5-10.7c-0.3-1.8-1.1-3-2.3-3.7c-1.1-0.7-3.4-1-6.9-1h-0.9v-1.1h30.9v1.1h-2.4c-3.4,0-5.6,0.3-6.8,0.9 c-1.2,0.6-2,1.8-2.4,3.5c-0.4,1.6-0.5,5.2-0.5,11v36c0,5.1,0.1,8.2,0.4,9.5c0.3,1.4,1.1,2.5,2.4,3.3c1.3,0.8,3.8,1.1,7.8,1.1h5.1 c4.2,0,7.3-0.4,9.4-1.2c2.1-0.8,4.1-2.5,6-5.1C328.5,261.2,330.1,257.2,331.6,252z"></path> </g> <g class="st0"> <path class="st1" d="M405.4,237.1c0,10.4-3.3,19-9.9,25.4c-6.5,6.4-15.3,9.7-26,9.7c-10.4,0-19.1-3.3-25.7-9.7 c-6.7-6.4-10-15.1-10-25.8c0-10.4,3.4-18.8,10.2-25.1c6.8-6.3,15.3-9.5,25.5-9.5c10.2,0,18.9,3.2,25.7,9.4 C402,217.8,405.4,226.4,405.4,237.1z M395.3,237.2c0-10.8-2.2-19.2-6.6-25c-4.4-5.8-10.9-8.8-19.2-8.8c-8.2,0-14.6,2.9-19,8.6 c-4.4,5.6-6.6,14.1-6.6,25.1c0,11.2,2.2,19.7,6.6,25.3c4.4,5.7,11.1,8.6,19.8,8.6c7.7,0,13.9-2.9,18.3-8.6 C393,256.8,395.3,248.3,395.3,237.2z"></path> </g> <g class="st0"> <path class="st1" d="M457.5,203.4h19.2v1.1c-2,0.2-3.7,1-5.3,2.4c-1.6,1.5-3.1,3.7-4.3,6.6l-4.5,10.8l-19.7,48.2h-2.3l-22.9-54.3 c-0.4-1-1.1-2.7-2-5.1c-1.3-3.4-2.7-5.6-4.2-6.8c-1.4-1.1-3.6-1.8-6.6-1.9v-1.1h27.6v1.1c-3.4,0-5.6,0.3-6.9,0.9 c-1.5,0.6-2.2,1.9-2.2,3.7c0,0.7,0.2,2.2,2.4,7.2l19.8,47l16-39.3c2.7-6.5,3.9-10.6,3.9-12.7c0-4.1-2.7-6.4-8-6.6V203.4z"></path> </g> <g class="st0"> <path class="st1" d="M528.8,250.8h1.2l-1.3,20.2h-50.5v-1.1h0.8c3.5,0,5.8-0.5,6.9-1.5c1.1-1,1.8-2.3,2-3.8c0.3-1.5,0.4-5,0.4-10.8 V220c0-5.3-0.1-8.7-0.4-10.5c-0.3-1.8-1-3.1-2.2-3.9c-1-0.7-3-1-6.1-1.1v-1.1h46.7l1.5,15.9h-1.2c-1.1-4.7-2.3-7.9-3.9-10 c-1.6-2.1-3.6-3.5-5.8-4c-2.1-0.5-5.6-0.8-10.3-0.8h-9.9l0,30.4h7.7c3.4,0,5.7-0.3,7.1-0.9c1.5-0.6,2.4-1.6,2.9-3 c0.4-1.2,0.6-3.3,0.7-6.4h1.1v22.3h-1.1c0-3.6-0.4-6-1-7.3c-0.7-1.5-1.7-2.4-3.1-2.9c-1.3-0.4-3.3-0.6-6.3-0.6h-8l0,16.7 c0,11.1,0.9,13.8,1.6,14.7c1.1,1.6,4,2.4,8.7,2.4h1.2c3.6,0,6.6-0.5,8.9-1.4c2.4-1,4.6-3,6.8-5.9 C525.9,259.7,527.6,255.7,528.8,250.8z"></path> </g> <g class="st0"> <path class="st1" d="M591.1,252h1.2l-0.5,19h-55.7v-1.1h1.4c3,0,5.1-0.4,6.3-1.2c1.2-0.8,2-2.1,2.4-3.9c0.3-1.6,0.5-5.3,0.5-11.1 V220c0-5.6-0.2-9.1-0.5-10.7c-0.3-1.8-1.1-3-2.3-3.7c-1.1-0.7-3.4-1-6.9-1h-0.9v-1.1h30.9v1.1h-2.4c-3.4,0-5.6,0.3-6.8,0.9 c-1.2,0.6-2,1.8-2.4,3.5c-0.4,1.6-0.5,5.2-0.5,11v36c0,5.1,0.1,8.2,0.4,9.5c0.3,1.4,1.1,2.5,2.4,3.3c1.3,0.8,3.8,1.1,7.8,1.1h5.1 c4.2,0,7.3-0.4,9.4-1.2c2.1-0.8,4.1-2.5,6-5.1C588,261.2,589.6,257.2,591.1,252z"></path> </g> <g class="st0"> <path class="st1" d="M627.1,204.5v-1.1h20.7v1.2c-2.9,0.5-5.3,1.7-7.1,3.6c-1.7,1.7-3.7,3.6-6.2,7.4L622,236.9v16.8 c0,6,0.2,9.7,0.5,11.3c0.4,1.8,1.2,3.1,2.5,3.8c1.2,0.7,3.3,1,6.4,1.1v1.1h-27.3v-1.1h0.5c3,0,5.1-0.4,6.3-1.2 c1.2-0.8,2-2.1,2.4-3.9c0.3-1.6,0.5-5.3,0.5-11.1v-16.1l-16.3-27.6c-1.2-1.8-2-2.9-2.6-3.5c-1.2-1.2-3.1-1.8-5.8-1.9v-1.1h25.9v1.1 c-5,0.1-7.8,2-7.8,4.7c0,0.4,0.1,1,0.6,2.2h0l14,23.8l9.2-16l0.8-1.4c2.3-3.9,3.3-5.3,3.3-7c0-1.6-0.6-3.1-1.9-4.4 C631.9,205.2,629.9,204.6,627.1,204.5L627.1,204.5z"></path> </g> <g class="st0"> <path class="st1" d="M742.4,218.7c0.2,2.7-0.1,15.8-19.7,17.3c-0.1,0-0.2,0-0.4,0c-1.5,0.1-3,0.1-4.7,0.1h-8v17.6 c0,5.5,0.1,9,0.4,10.7c0.3,1.8,1,3.2,2.2,4.1c1.2,0.9,3.3,1.3,6.5,1.3h1.6v1.1h-29.4v-1.1h1.2c3,0,5.1-0.4,6.3-1.2 c1.2-0.8,2-2.1,2.4-3.9c0.3-1.6,0.5-5.3,0.5-11.1V220c0-5.6-0.2-9.1-0.5-10.7c-0.3-1.8-1.1-3-2.3-3.7c-1.1-0.7-3.4-1-6.9-1h-0.6 v-1.1l7.8-0.3c6.7-0.2,12-0.4,15.7-0.4c6.8,0,12.1,0.6,15.8,1.7c3.6,1.1,6.6,3,8.9,5.7c1.8,2.2,3,4.9,3.3,8c0,0,0,0,0,0 c0,0.1,0,0.2,0,0.3V218.7z M715.1,234.8c2.9,0,5.5-0.2,7.6-0.7c0.2,0,0.3-0.1,0.5-0.1c0.5-0.1,1-0.3,1.5-0.4c1-0.4,2-0.9,2.9-1.5 c2.4-1.6,3.8-3.6,4.6-5.6c0,0,0,0,0,0c0.7-1.6,1-3.3,1.2-4.6c0,0,0,0,0,0c0-0.2,0-0.4,0-0.7c0-5.8-1.4-10.2-4.3-13 c-2.8-2.8-7.4-4.2-13.6-4.2c-2.3,0-4,0.1-5.2,0.2l-0.5,0.1v30.5H715.1z"></path> </g> <g class="st0"> <path class="st1" d="M797,268c1.2,0.9,2.8,1.5,5,1.8v1.2h-25.1v-1.1c3,0,5-0.3,6.2-0.8c1-0.4,2.1-1.4,2.1-3.5 c0-0.5-0.2-1.8-2.3-6.9l-5.1-12.5l-0.2-0.6l-3.9-9.6h-18.5l-3.9,9.6l-0.1,0.3l-1.8,4.5c-2.6,6.5-3.9,10.6-3.9,12.6 c0,2.3,0.8,4,2.3,5.2c1.3,1,3,1.6,5,1.7v1.1h-18.7v-0.3c2.8-0.5,5-2.5,6.5-4.2c1.5-1.7,3.3-5.3,5.3-10.8c0.2-0.5,1-2.5,2.4-5.9 l19.3-47.3h1.1l22.2,54.2l3.1,7.2C794.8,265.7,795.8,267,797,268z M773.3,235.1l-8.9-22.1l-8.9,22.1H773.3z"></path> <path class="st1" d="M858.4,252h1.2l-0.5,19h-55.7v-1.1h1.4c3,0,5.1-0.4,6.3-1.2c1.2-0.8,2-2.1,2.4-3.9c0.3-1.6,0.5-5.3,0.5-11.1 V220c0-5.6-0.2-9.1-0.5-10.7c-0.3-1.8-1.1-3-2.3-3.7c-1.1-0.7-3.4-1-6.9-1h-0.9v-1.1h30.9v1.1h-2.4c-3.4,0-5.6,0.3-6.8,0.9 c-1.2,0.6-2,1.8-2.4,3.5c-0.4,1.6-0.5,5.2-0.5,11v36c0,5.1,0.1,8.2,0.4,9.5c0.3,1.4,1.1,2.5,2.4,3.3c1.3,0.8,3.8,1.1,7.8,1.1h5.1 c4.2,0,7.3-0.4,9.4-1.2c2.1-0.8,4.1-2.5,6-5.1C855.3,261.2,856.9,257.2,858.4,252z"></path> <path class="st1" d="M916.4,250.8h1.2l-1.3,20.2h-50.5v-1.1h0.8c3.5,0,5.8-0.5,6.9-1.5c1.1-1,1.8-2.3,2-3.8c0.3-1.5,0.4-5,0.4-10.8 V220c0-5.3-0.1-8.7-0.4-10.5c-0.3-1.8-1-3.1-2.2-3.9c-1-0.7-3-1-6.1-1.1v-1.1h46.7l1.5,15.9h-1.2c-1.1-4.7-2.3-7.9-3.9-10 c-1.6-2.1-3.6-3.5-5.8-4c-2.1-0.5-5.6-0.8-10.3-0.8h-9.9l0,30.4h7.7c3.4,0,5.7-0.3,7.1-0.9c1.5-0.6,2.4-1.6,2.9-3 c0.4-1.2,0.6-3.3,0.7-6.4h1.1v22.3h-1.1c0-3.6-0.4-6-1-7.3c-0.7-1.5-1.7-2.4-3.1-2.9c-1.3-0.4-3.3-0.6-6.3-0.6h-8l0,16.7 c0,11.1,0.9,13.8,1.6,14.7c1.2,1.6,4,2.4,8.7,2.4h1.2c3.6,0,6.6-0.5,8.9-1.4c2.4-1,4.6-3,6.8-5.9 C913.6,259.7,915.2,255.7,916.4,250.8z"></path> <path class="st1" d="M1019.5,246.4h1v22.8h-1c-0.3-1.4-0.6-2.5-0.9-3.3c-0.1-0.1-0.1-0.3-0.2-0.4c0,0,0-0.1-0.1-0.1 c-0.1-0.1-0.1-0.2-0.2-0.3c0,0,0-0.1,0-0.1c0,0,0-0.1-0.1-0.1c-0.1-0.1-0.1-0.2-0.2-0.3c-1-1.5-2.2-1.4-2.7-1.3 c-0.6,0.2-1.2,0.5-1.5,0.8c-0.1,0.1-0.2,0.2-0.3,0.3c0,0,0,0-0.1,0.1c0,0-0.1,0.1-0.1,0.1l0,0c0,0-0.1,0.1-0.1,0.1l0,0 c-5.4,5.2-12.1,7.8-19.9,7.8c-9.5,0-17.3-3.1-23.3-9.2c-6-6.1-9-14.4-9-24.5c0-6.7,1.4-13,4.2-18.9c2.8-5.9,6.7-10.3,11.6-13.1 c4.9-2.8,10.5-4.3,16.4-4.3c4.9,0,9.4,1,13.3,3.1c2.5,1.3,4.6,2.7,6.4,4.2l0-0.1c0,0,1,1.2,2.6,1.3c0.8-0.1,1.7-0.5,2.4-2 c0.6-1.7,1-3.5,1.2-5.2h1l0.6,24.8h-1c-1.5-9.1-4.6-15.6-9.2-19.2c-4.6-3.7-10-5.6-15.8-5.6c-7.2,0-13,3-17.2,9 c-4.2,5.9-6.3,14.5-6.3,25.5c0,10.4,2.3,18.5,6.9,24.1c4.6,5.6,10.4,8.5,17.3,8.5c3.7,0,7.4-0.9,11.3-2.7c3.9-1.8,7-5,9.2-9.4 C1017.7,254.3,1019,250.3,1019.5,246.4z"></path> <path class="st1" d="M1095.8,237.1c0,10.4-3.3,19-9.9,25.4c-6.5,6.4-15.3,9.7-26,9.7c-10.4,0-19.1-3.3-25.7-9.7 c-6.7-6.4-10-15.1-10-25.8c0-10.4,3.4-18.8,10.2-25.1c6.8-6.3,15.3-9.5,25.5-9.5c10.2,0,18.9,3.2,25.7,9.4 C1092.3,217.8,1095.8,226.4,1095.8,237.1z M1085.7,237.2c0-10.8-2.2-19.2-6.6-25c-4.4-5.8-10.9-8.8-19.2-8.8 c-8.2,0-14.6,2.9-19,8.6c-4.4,5.6-6.6,14.1-6.6,25.1c0,11.2,2.2,19.7,6.6,25.3c4.4,5.7,11.1,8.6,19.8,8.6c7.7,0,13.9-2.9,18.3-8.6 C1083.4,256.8,1085.7,248.3,1085.7,237.2z"></path> <path class="st1" d="M1154,252h1.2l-0.5,19h-55.7v-1.1h1.4c3,0,5.1-0.4,6.3-1.2c1.2-0.8,2-2.1,2.4-3.9c0.3-1.6,0.5-5.3,0.5-11.1 V220c0-5.6-0.2-9.1-0.5-10.7c-0.3-1.8-1.1-3-2.3-3.7c-1.1-0.7-3.4-1-6.9-1h-0.9v-1.1h30.9v1.1h-2.4c-3.4,0-5.6,0.3-6.8,0.9 c-1.2,0.6-2,1.8-2.4,3.5c-0.4,1.6-0.5,5.2-0.5,11v36c0,5.1,0.1,8.2,0.4,9.5c0.3,1.4,1.1,2.5,2.4,3.3c1.3,0.8,3.8,1.1,7.8,1.1h5.1 c4.2,0,7.3-0.4,9.4-1.2c2.1-0.8,4.1-2.5,6-5.1C1150.9,261.2,1152.5,257.2,1154,252z"></path> <path class="st1" d="M1227.8,237.1c0,10.4-3.3,19-9.9,25.4c-6.5,6.4-15.3,9.7-26,9.7c-10.4,0-19.1-3.3-25.7-9.7 c-6.7-6.4-10-15.1-10-25.8c0-10.4,3.4-18.8,10.2-25.1c6.8-6.3,15.3-9.5,25.5-9.5c10.2,0,18.9,3.2,25.7,9.4 C1224.4,217.8,1227.8,226.4,1227.8,237.1z M1217.7,237.2c0-10.8-2.2-19.2-6.6-25c-4.4-5.8-10.9-8.8-19.2-8.8 c-8.2,0-14.6,2.9-19,8.6c-4.4,5.6-6.6,14.1-6.6,25.1c0,11.2,2.2,19.7,6.6,25.3c4.4,5.7,11.1,8.6,19.8,8.6c7.7,0,13.9-2.9,18.3-8.6 C1215.4,256.8,1217.7,248.3,1217.7,237.2z"></path> <path class="st1" d="M1282.5,204.6v-1.1h21.1v1.1c-2.8,0.3-4.9,1-6.4,2.1c-1.6,1.3-2.5,2.7-2.9,4.3c-0.3,1.5-0.5,4.3-0.5,8.6v22.9 c0,5.8-0.2,10.1-0.7,12.9c-0.4,2.7-1.7,5.4-3.7,8.1c-2,2.6-5,4.8-8.7,6.4c-3.8,1.6-8.2,2.4-13.1,2.4c-5.8,0-10.8-1-14.9-3.1 c-4-2-6.9-4.6-8.6-7.8c-1.7-3.2-2.6-7.6-2.6-13l0-7V220c0-5.6-0.2-9.1-0.5-10.7c-0.3-1.8-1.1-3-2.3-3.7c-1.1-0.7-3.4-1-6.9-1h-0.9 v-1.1h29.3v1.1h-0.7c-3.4,0-5.6,0.3-6.8,0.9c-1.2,0.6-2,1.8-2.4,3.5c-0.4,1.6-0.5,5.2-0.5,11v21.7c0,7.5,0.3,12.9,1,16.1 c0.7,3.3,2.7,6.2,5.9,8.6c3.2,2.4,7.5,3.6,12.8,3.6c4.2,0,8-0.8,11.4-2.4c3.4-1.6,6-3.7,7.7-6.1c1.7-2.4,2.7-4.9,3.1-7.5 c0.4-2.5,0.5-6.5,0.5-11.8v-23.4c0-4-0.2-6.7-0.7-8.3c-0.5-1.7-1.5-3.1-3-4.1C1287.5,205.4,1285.4,204.8,1282.5,204.6L1282.5,204.6 z"></path> <path class="st1" d="M1421.4,253.5c0,4.5-1.2,8.3-3.4,11.5c-0.6,0.8-1.2,1.6-2,2.3c-2.7,2.4-8.4,5.8-19.7,5.6l0.1,0 c-0.1,0-0.1,0-0.2,0h-0.1c-2-0.1-4.1-0.2-6.4-0.5c-17.4-1.5-33.8-16.3-33.8-16.3l-23-19.6h-4.2v17.6c0,5.5,0.1,9,0.4,10.8 c0.3,1.8,1,3.2,2.3,4.1c1.2,0.9,3.3,1.4,6.5,1.4h1.6v1.1h-29.5v-1.1h1.2c3,0,5.1-0.4,6.3-1.2c1.2-0.8,2-2.1,2.4-3.9 c0.3-1.6,0.5-5.3,0.5-11.1v-33.8c0-5.6-0.2-9.1-0.5-10.7c-0.3-1.8-1.1-3-2.3-3.7c-1.1-0.7-3.4-1-6.9-1h-0.6v-1.1l7.8-0.3 c6.7-0.2,12-0.4,15.7-0.4c6.8,0,12.2,0.6,15.8,1.7c3.6,1.1,6.6,3,8.9,5.7c1.8,2.2,3,4.9,3.3,8.1c0,0,0,0,0,0c0,0.1,0,0.2,0,0.3v0.1 c0.2,2.6-0.1,15.2-18.4,17.2l20.5,17.4c0,0,0,0,0,0l1.5,1.3l-1.1-0.9l-0.3-0.3c0.1,0.1,0.2,0.2,0.3,0.3c0,0,0,0,0,0c0,0,0,0,0,0 c18.2,15.9,22.6,16.2,22.6,16.2c0.5,0.2,1,0.4,1.5,0.6c2.8,0.9,5.5,1.3,7.6,1.3h0.1c4.4,0.2,7.8-0.5,10.2-1.5 c0.2-0.1,0.4-0.2,0.6-0.2c0.1,0,0.1,0,0.2,0c0.8-0.3,1.6-0.8,2.3-1.3c0.6-0.4,1-0.7,1.2-0.9c0.1-0.1,0.1-0.1,0.2-0.2c0,0,0,0,0.1,0 v0c0,0,0,0,0,0c0,0,0,0,0,0c0,0,0,0,0,0c0.2-0.2,0.4-0.4,0.6-0.6c0.7-0.8,1.4-1.6,1.9-2.5c0-0.1,0-0.1,0-0.1 c1.4-2.2,2.1-4.6,2.1-7.2c0-3.6-1.2-6.7-3.6-9.1c-2.3-2.4-6.6-4.9-12.7-7.6c-5.3-2.4-9.4-4.4-12.1-6.2c-2.6-1.7-4.7-4-6.2-6.7 c-1.5-2.8-2.2-5.7-2.2-8.8c0-4.7,1.6-8.7,4.8-11.8c3.2-3.2,7.3-4.7,12.2-4.7c2.7,0,5.4,0.5,7.8,1.4c1.7,0.7,3.5,1.8,5.3,3.5 c0,0,0,0,0,0c0.1,0.1,0.3,0.2,0.4,0.4c0.4,0.4,1.2,0.8,2.1,0.9c0.7-0.1,1.5-0.5,2.2-1.7c0,0,0,0,0,0c0-0.1,0.1-0.2,0.1-0.3 c0.4-0.9,0.7-1.9,0.9-2.9h1v16.8h-1.1c-1.3-5.1-3.6-9.3-6.7-12.3c-3.3-3.1-7.1-4.7-11.5-4.7c-4.2,0-7.3,1.2-9.2,3.6 c-2,2.3-3,4.9-3,7.7c0,3.4,1.3,6.2,3.7,8.5c2.3,2.3,6.6,4.9,12.7,7.6c5.7,2.6,9.9,4.8,12.5,6.4c2.5,1.6,4.6,3.7,6.1,6.5 C1420.7,246.7,1421.4,249.9,1421.4,253.5z M1342.2,234.4c0.5-0.1,1-0.3,1.5-0.4c1-0.4,2-0.9,2.9-1.5c2.4-1.6,3.8-3.6,4.6-5.6 c0,0,0,0,0,0c0.7-1.6,1-3.3,1.2-4.6c0,0,0,0,0,0c0-0.2,0-0.5,0-0.7c0-5.8-1.5-10.2-4.3-13c-2.8-2.8-7.4-4.2-13.6-4.2 c-2.3,0-4,0.1-5.2,0.2l-0.5,0.1v30.6h5.4c2.9,0,5.5-0.2,7.6-0.7C1341.9,234.5,1342,234.4,1342.2,234.4z"></path> </g> <g class="st0"> <path class="st1" d="M43.9,359.8c1.5,2.7,2.3,5.9,2.3,9.5c0,5.7-1.9,10.4-5.5,13.9c-3.7,3.6-8.7,5.4-14.9,5.4 c-5.9,0-11.1-2-15.4-5.9l0,0c0,0-0.1-0.1-0.2-0.2c-0.1-0.1-0.2-0.2-0.3-0.3c-0.4-0.4-1.2-0.8-2.1-0.8c-0.9,0.1-2.1,0.7-2.8,3.1l0,0 c-0.2,0.7-0.4,1.4-0.5,2.2H3.1v-20.9h1.4c2.9,14.3,9.8,21.6,20.4,21.6c4.9,0,8.7-1.5,11.4-4.3c2.7-2.9,4-6.1,4-9.7 c0-3.6-1.2-6.7-3.6-9.1c-2.3-2.3-6.6-4.9-12.6-7.5c-5.3-2.3-9.4-4.4-12.1-6.2c-2.6-1.7-4.7-4-6.2-6.7c-1.5-2.7-2.2-5.7-2.2-8.8 c0-4.7,1.6-8.7,4.8-11.8c3.2-3.1,7.3-4.7,12.1-4.7c2.7,0,5.4,0.5,7.8,1.4c1.7,0.6,3.5,1.8,5.3,3.5l0,0c0,0,0,0,0,0 c0.1,0.1,0.3,0.2,0.4,0.4c0.4,0.4,1.2,0.8,2.1,0.9c0.7-0.1,1.5-0.5,2.2-1.6c0,0,0,0,0,0c0-0.1,0.1-0.2,0.1-0.3 c0.4-0.9,0.7-1.9,0.8-2.9h1v16.8h-1.1c-1.3-5.1-3.5-9.2-6.7-12.2c-3.3-3.1-7.1-4.7-11.4-4.7c-4.1,0-7.2,1.2-9.2,3.5 c-1.9,2.3-2.9,4.9-2.9,7.7c0,3.3,1.2,6.2,3.7,8.5c2.3,2.3,6.6,4.8,12.7,7.6c5.7,2.6,9.9,4.7,12.5,6.3 C40.3,354.9,42.4,357.1,43.9,359.8z"></path> <path class="st1" d="M103.8,320.9v-1.1H125v1.1c-2.8,0.3-4.9,1-6.4,2.1c-1.6,1.3-2.5,2.7-2.9,4.3c-0.3,1.5-0.5,4.3-0.5,8.6v22.9 c0,5.8-0.2,10.1-0.7,12.9c-0.4,2.7-1.7,5.4-3.7,8.1c-2,2.6-5,4.8-8.7,6.4c-3.8,1.6-8.2,2.4-13.1,2.4c-5.8,0-10.8-1-14.9-3.1 c-4-2-6.9-4.6-8.6-7.8c-1.7-3.2-2.6-7.6-2.6-13l0-7v-21.4c0-5.6-0.2-9.1-0.5-10.7c-0.3-1.8-1.1-3-2.3-3.7c-1.1-0.7-3.4-1-6.9-1 h-0.9v-1.1h29.3v1.1h-0.7c-3.4,0-5.6,0.3-6.8,0.9c-1.2,0.6-2,1.8-2.4,3.5c-0.4,1.6-0.5,5.2-0.5,11V358c0,7.5,0.3,12.9,1,16.1 c0.7,3.3,2.7,6.2,5.9,8.6c3.2,2.4,7.5,3.6,12.8,3.6c4.2,0,8-0.8,11.4-2.4c3.4-1.6,6-3.7,7.7-6.1c1.7-2.4,2.7-4.9,3.1-7.5 c0.4-2.5,0.5-6.5,0.5-11.8V335c0-4-0.2-6.7-0.7-8.3c-0.5-1.7-1.5-3.1-3-4.1C108.8,321.7,106.7,321.1,103.8,320.9L103.8,320.9z"></path> <path class="st1" d="M172,359.8c1.5,2.7,2.3,5.9,2.3,9.5c0,5.7-1.9,10.4-5.5,13.9c-3.7,3.6-8.7,5.4-14.9,5.4 c-5.9,0-11.1-2-15.4-5.9l0,0c0,0-0.1-0.1-0.2-0.2c-0.1-0.1-0.2-0.2-0.3-0.3c-0.4-0.4-1.2-0.8-2.1-0.8c-0.9,0.1-2.1,0.7-2.8,3.1l0,0 c-0.2,0.7-0.4,1.4-0.5,2.2h-1.4v-20.9h1.4c2.9,14.3,9.8,21.6,20.4,21.6c4.9,0,8.7-1.5,11.4-4.3c2.7-2.9,4-6.1,4-9.7 c0-3.6-1.2-6.7-3.6-9.1c-2.3-2.3-6.6-4.9-12.6-7.5c-5.3-2.3-9.4-4.4-12.1-6.2c-2.6-1.7-4.7-4-6.2-6.7c-1.5-2.7-2.2-5.7-2.2-8.8 c0-4.7,1.6-8.7,4.8-11.8c3.2-3.1,7.3-4.7,12.1-4.7c2.7,0,5.4,0.5,7.8,1.4c1.7,0.6,3.5,1.8,5.3,3.5l0,0c0,0,0,0,0,0 c0.1,0.1,0.3,0.2,0.4,0.4c0.4,0.4,1.2,0.8,2.1,0.9c0.7-0.1,1.5-0.5,2.2-1.6c0,0,0,0,0,0c0-0.1,0.1-0.2,0.1-0.3 c0.4-0.9,0.7-1.9,0.8-2.9h1v16.8h-1.1c-1.3-5.1-3.5-9.2-6.7-12.2c-3.3-3.1-7.1-4.7-11.4-4.7c-4.1,0-7.2,1.2-9.2,3.5 c-1.9,2.3-2.9,4.9-2.9,7.7c0,3.3,1.2,6.2,3.7,8.5c2.3,2.3,6.6,4.8,12.7,7.6c5.7,2.6,9.9,4.7,12.5,6.3 C168.5,354.9,170.5,357.1,172,359.8z"></path> <path class="st1" d="M232.1,335c0.2,2.7-0.1,15.8-19.7,17.3c-0.1,0-0.2,0-0.4,0c-1.5,0.1-3,0.1-4.7,0.1h-8V370 c0,5.5,0.1,9,0.4,10.7c0.3,1.8,1,3.2,2.2,4.1c1.2,0.9,3.3,1.3,6.5,1.3h1.6v1.1h-29.4v-1.1h1.2c3,0,5.1-0.4,6.3-1.2 c1.2-0.8,2-2.1,2.4-3.9c0.3-1.6,0.5-5.3,0.5-11.1v-33.7c0-5.6-0.2-9.1-0.5-10.7c-0.3-1.8-1.1-3-2.3-3.7c-1.1-0.7-3.4-1-6.9-1h-0.6 v-1.1l7.8-0.3c6.7-0.2,12-0.4,15.7-0.4c6.8,0,12.1,0.6,15.8,1.7c3.6,1.1,6.6,3,8.9,5.7c1.8,2.2,3,4.9,3.3,8c0,0,0,0,0,0 c0,0.1,0,0.2,0,0.3V335z M204.7,351.2c2.9,0,5.5-0.2,7.6-0.7c0.2,0,0.3-0.1,0.5-0.1c0.5-0.1,1-0.3,1.5-0.4c1-0.4,2-0.9,2.9-1.5 c2.4-1.6,3.8-3.6,4.6-5.6c0,0,0,0,0,0c0.7-1.6,1-3.3,1.2-4.6c0,0,0,0,0,0c0-0.2,0-0.4,0-0.7c0-5.8-1.4-10.2-4.3-13 c-2.8-2.8-7.4-4.2-13.6-4.2c-2.3,0-4,0.1-5.2,0.2l-0.5,0.1v30.5H204.7z"></path> <path class="st1" d="M289,367.2h1.2l-1.3,20.2h-50.5v-1.1h0.8c3.5,0,5.8-0.5,6.9-1.5c1.1-1,1.8-2.3,2-3.8c0.3-1.5,0.4-5,0.4-10.8 v-33.7c0-5.3-0.1-8.7-0.4-10.5c-0.3-1.8-1-3.1-2.2-3.9c-1-0.7-3-1-6.1-1.1v-1.1h46.7l1.5,15.9h-1.2c-1.1-4.7-2.3-7.9-3.9-10 c-1.6-2.1-3.6-3.5-5.8-4c-2.1-0.5-5.6-0.8-10.3-0.8h-9.9l0,30.4h7.7c3.4,0,5.7-0.3,7.1-0.9c1.5-0.6,2.4-1.6,2.9-3 c0.4-1.2,0.6-3.3,0.7-6.4h1.1v22.3h-1.1c0-3.6-0.4-6-1-7.3c-0.7-1.5-1.7-2.4-3.1-2.9c-1.3-0.4-3.3-0.6-6.3-0.6h-8l0,16.7 c0,11.1,0.9,13.8,1.6,14.7c1.1,1.6,4,2.4,8.7,2.4h1.2c3.6,0,6.6-0.5,8.9-1.4c2.4-1,4.6-3,6.8-5.9C286.2,376,287.8,372.1,289,367.2z "></path> <path class="st1" d="M344.5,319.8h23.1v1.1c-2.6,0.3-4.8,0.8-6.4,1.7c-1.8,1-2.9,2.1-3.4,3.5c-0.5,1.3-0.7,3.4-0.7,6.5v56.3h-1.2 l-44.5-60.6v44.5c0,4.1,0.2,6.7,0.6,8c0.4,1.4,1.6,2.7,3.5,3.8c1.8,1,4.3,1.6,7.7,1.7v1.1h-23.8v-1.1c3-0.3,5.4-0.9,7-1.8 c1.8-1.1,2.9-2.2,3.3-3.5c0.3-1.2,0.5-3.8,0.5-8.1v-36.5c0-5.2-0.2-8.7-0.7-10.6l-1.9-2.5c-2.4-3.2-11.1-2.3-11.1-2.3v-1.1h18.8 l40.6,55.1v-43c0-3.2-0.3-5.4-1-6.7c-0.7-1.4-2.1-2.4-4.1-3.2c-1.8-0.7-3.9-1-6.4-1.1V319.8z"></path> <path class="st1" d="M438.1,336.1c2.7,5.2,4,11.3,4,18.1c0,4.9-0.7,9.5-2.2,13.6c-1.4,4.1-3.5,7.5-6,10.2c-2.5,2.7-5.5,4.7-8.8,6.1 c-3.3,1.4-6.5,2.3-9.5,2.6c-3,0.4-7.4,0.5-12.9,0.5h-29.1v-1.1h2.2c3,0,5.1-0.4,6.3-1.2c1.2-0.8,2-2.1,2.4-3.9 c0.3-1.6,0.5-5.3,0.5-11.1v-33.2c0-5.6-0.2-9.1-0.5-10.7c-0.3-1.8-1.1-3-2.3-3.7c-1.1-0.7-3.4-1-6.9-1H374v-1.1l10.4-0.5 c9.1-0.5,15.4-0.7,18.5-0.7c9.8,0,17.5,1.5,23,4.6C431.4,326.7,435.5,330.9,438.1,336.1z M432.6,355c0-5.9-0.7-11.2-2.2-15.8 c-1.5-4.6-3.7-8.5-6.4-11.4c-2.8-2.9-5.9-4.9-9.3-6c-3.4-1-7.7-1.6-13-1.6c-2.5,0-5.1,0.1-7.6,0.3l-0.6,0v46.5 c0,6.8,0.1,11.2,0.4,13.2c0.3,2.1,1.1,3.7,2.5,4.6c1.3,0.9,4,1.3,8.1,1.3c5.9,0,10.8-0.8,14.6-2.5c3.9-1.7,7.1-5,9.7-10 C431.3,368.8,432.6,362.5,432.6,355z"></path> <path class="st1" d="M499.9,367.1h1.2l-1.3,19.4l-0.1,0.9h-50.7v-1.1h0.8c3.5,0,5.8-0.5,6.9-1.5c1.1-1,1.8-2.3,2-3.8 c0.3-1.5,0.4-5,0.4-10.9v-33.9c0-5.3-0.1-8.8-0.4-10.5c-0.3-1.8-1.1-3.1-2.2-3.9c-1.1-0.7-3-1-6.1-1.1v-1.1h46.8l1.5,16h-1.2 c-1.1-4.7-2.3-8-3.9-10c-1.6-2.1-3.6-3.5-5.8-4c-2.2-0.5-5.6-0.8-10.4-0.8h-9.9l0,30.5v1.2l0,16.7c0,11.2,0.9,13.8,1.7,14.8 c1.2,1.6,4,2.4,8.8,2.4h1.2c3.6,0,6.6-0.5,9-1.5c2.4-1,4.7-3,6.8-6C497,375.9,498.7,372,499.9,367.1z M575.8,354.1 c0,5-0.7,9.5-2.2,13.6c-1.4,4.1-3.5,7.5-6,10.2c-2.5,2.7-5.5,4.8-8.8,6.2c-3.3,1.4-6.6,2.3-9.6,2.7c-3,0.4-7.4,0.5-12.9,0.5h-29.1 v-1.1h2.2c3,0,5.1-0.4,6.3-1.2c1.2-0.8,2-2.1,2.4-3.9c0.3-1.6,0.5-5.3,0.5-11.1v-17.4h-19.4v0h-7.5c-3.3,0-5.5,0.3-6.9,0.9 c-1.4,0.6-2.4,1.6-2.8,2.9c-0.4,1.1-0.6,3.2-0.6,6.2h-1.1V341h1.1c0,3.5,0.4,5.8,1,7.1c0.7,1.4,1.7,2.3,3,2.8 c1.2,0.4,3.2,0.6,6.1,0.6h27.1v-14.7c0-5.6-0.2-9.1-0.5-10.8c-0.3-1.8-1.1-3-2.3-3.7c-1.1-0.7-3.4-1-6.9-1h-1.4v-1.1l10.4-0.5 c9.2-0.5,15.4-0.7,18.6-0.7c9.8,0,17.5,1.5,23,4.6c5.4,3,9.5,7.2,12.2,12.4C574.4,341.1,575.8,347.2,575.8,354.1z M566.3,354.8 c0-5.9-0.8-11.2-2.2-15.8c-1.5-4.6-3.7-8.5-6.4-11.4c-2.8-2.9-5.9-4.9-9.4-6c-3.4-1-7.7-1.6-13-1.6c-2.5,0-5.1,0.1-7.7,0.3l-0.6,0 V367c0,6.8,0.1,11.3,0.4,13.2c0.3,2.2,1.1,3.7,2.5,4.6c1.3,0.9,4,1.3,8.2,1.3c5.9,0,10.8-0.8,14.6-2.5c3.9-1.7,7.1-5.1,9.7-10 C565,368.7,566.3,362.4,566.3,354.8z"></path> <path class="st1" d="M651.5,386.2v1.1h-29.4v-1.1h1.4c3,0,5.1-0.4,6.3-1.2c1.2-0.8,2-2.1,2.4-3.9c0.3-1.6,0.5-5.3,0.5-11.1v-33.7 c0-5.6-0.1-9.1-0.5-10.7c-0.3-1.8-1.1-3-2.3-3.7c-1.1-0.7-3.4-1-6.9-1h-0.8v-1.1h29.4v1.1h-0.8c-3.4,0-5.6,0.3-6.8,0.9 c-1.2,0.6-2,1.8-2.4,3.5c-0.4,1.6-0.5,5.2-0.5,11V370c0,5.5,0.1,9,0.4,10.7c0.3,1.8,1,3.2,2.2,4.1c1.2,0.9,3.3,1.3,6.5,1.3H651.5z"></path> <path class="st1" d="M710.3,319.8h23.1v1.1c-2.6,0.3-4.8,0.8-6.4,1.7c-1.8,1-2.9,2.1-3.4,3.5c-0.5,1.3-0.7,3.4-0.7,6.5v56.3h-1.2 l-44.5-60.6v44.5c0,4.1,0.2,6.7,0.6,8c0.4,1.4,1.6,2.7,3.5,3.8c1.8,1,4.3,1.6,7.7,1.7v1.1h-23.8v-1.1c3-0.3,5.4-0.9,7-1.8 c1.8-1.1,2.9-2.2,3.3-3.5c0.3-1.2,0.5-3.8,0.5-8.1v-36.5c0-5.2-0.2-8.7-0.7-10.6l-1.9-2.5c-2.4-3.2-11.1-2.3-11.1-2.3v-1.1h18.8 l40.6,55.1v-43c0-3.2-0.3-5.4-1-6.7c-0.7-1.4-2.1-2.4-4.1-3.2c-1.8-0.7-3.9-1-6.4-1.1V319.8z"></path> <path class="st1" d="M840.7,319.8l0.3,15.3h-1c-0.8-4.3-1.8-7.5-3.1-9.5c-1.4-2.1-2.9-3.5-4.6-4c-1.6-0.5-4.2-0.7-7.9-0.7H813V370 c0,5.5,0.1,9,0.4,10.7c0.3,1.9,1,3.3,2.2,4.2c1.2,0.9,3.3,1.3,6.5,1.3h2.7v1.1h-32.2v-1.1h2.8c3,0,5.1-0.4,6.3-1.2 c1.2-0.8,2-2.1,2.4-3.9c0.3-1.6,0.5-5.3,0.5-11.1v-49.2h-10.5c-4.4,0-7.3,0.2-8.9,0.7c-1.6,0.5-3.1,1.8-4.5,4.1 c-1.3,2.1-2.3,5.3-3,9.4h-1.1l0.3-15.3H840.7z"></path> <path class="st1" d="M981.3,366.6l-1.4,20.2h-50.6v-1.1h0.8c3.5,0,5.8-0.5,6.9-1.5c1.1-1,1.8-2.3,2-3.8c0.3-1.5,0.4-5,0.4-10.9V352 h-28.7v17.5c0,5.5,0.1,9,0.4,10.7c0.3,1.8,1,3.2,2.3,4.2c1.2,0.9,3.3,1.3,6.5,1.3h0.9v1.1h-29.3v-1.1h1.7c3,0,5-0.4,6.2-1.2 c1.3-0.8,2-2.1,2.4-3.9c0.3-1.6,0.5-5.3,0.5-11.1V352h-36.2v17.5c0,5.5,0.1,9,0.4,10.8c0.3,1.8,1,3.2,2.2,4.1 c1.2,0.9,3.3,1.4,6.5,1.4h1.1v1.1h-29v-1.1h1.1c3,0,5.1-0.4,6.3-1.2c1.2-0.8,2-2.1,2.4-3.9c0.3-1.6,0.5-5.3,0.5-11.1v-33.8 c0-5.6-0.2-9.1-0.5-10.7c-0.4-1.8-1.1-3-2.3-3.7c-1.1-0.7-3.4-1-6.9-1h-0.6v-1.1h29v1.1h-0.6c-3.4,0-5.6,0.3-6.7,0.9 c-1.2,0.7-2,1.8-2.4,3.5c-0.4,1.6-0.5,5.2-0.5,11v15h36.2v-15c0-5.6-0.1-9.1-0.5-10.7c-0.3-1.8-1.1-3-2.2-3.7c-1.1-0.7-3.4-1-6.9-1 h-1.2v-1.1h29.3v1.1h-0.4c-3.4,0-5.6,0.3-6.8,0.9c-1.2,0.7-2,1.8-2.4,3.5c-0.4,1.6-0.5,5.2-0.5,11v15h28.7v-15 c0-5.3-0.1-8.8-0.4-10.5c-0.3-1.8-1-3.1-2.2-3.9c-1.1-0.7-3-1-6.1-1.1v-1.1h46.8l1.5,15.9h-1.2c-1.1-4.7-2.3-8-3.9-10 c-1.6-2.1-3.6-3.5-5.8-4c-2.2-0.5-5.6-0.8-10.3-0.8h-9.9l0,30.4h7.7c3.4,0,5.7-0.3,7.1-0.9c1.5-0.6,2.4-1.6,2.9-3 c0.4-1.2,0.6-3.3,0.7-6.4h1.1v22.3h-1.1c0-3.6-0.4-6-1-7.3c-0.7-1.5-1.7-2.4-3.1-2.9c-1.3-0.4-3.3-0.6-6.3-0.6h-8v0.1h0l0,16.5 c0,11.2,0.9,13.8,1.7,14.8c1.2,1.6,4,2.4,8.8,2.4h1.2c3.6,0,6.6-0.5,8.9-1.4c2.4-1,4.7-3,6.8-6c2-2.9,3.7-6.8,4.9-11.7H981.3z"></path> </g> <g class="st0"> <path class="st1" d="M1088.7,336.1c2.7,5.2,4,11.3,4,18.1c0,4.9-0.7,9.5-2.2,13.6c-1.4,4.1-3.5,7.5-6,10.2 c-2.5,2.7-5.5,4.7-8.8,6.1c-3.3,1.4-6.5,2.3-9.5,2.6c-3,0.4-7.3,0.5-12.9,0.5h-29.1v-1.1h2.2c3,0,5.1-0.4,6.3-1.2 c1.2-0.8,2-2.1,2.4-3.9c0.3-1.6,0.5-5.3,0.5-11.1v-33.2c0-5.6-0.2-9.1-0.5-10.7c-0.3-1.8-1.1-3-2.3-3.7c-1.1-0.7-3.4-1-6.9-1h-1.4 v-1.1l10.4-0.5c9.1-0.5,15.4-0.7,18.5-0.7c9.8,0,17.5,1.5,23,4.6C1082,326.7,1086.1,330.9,1088.7,336.1z M1083.2,355 c0-5.9-0.8-11.2-2.2-15.8c-1.5-4.6-3.7-8.5-6.4-11.4c-2.8-2.9-5.9-4.9-9.3-6c-3.4-1-7.7-1.6-13-1.6c-2.5,0-5.1,0.1-7.6,0.3l-0.6,0 v46.5c0,6.8,0.1,11.2,0.4,13.2c0.3,2.1,1.1,3.7,2.5,4.6c1.3,0.9,4,1.3,8.1,1.3c5.9,0,10.8-0.8,14.6-2.5c3.9-1.7,7.1-5,9.7-10 C1081.9,368.8,1083.2,362.5,1083.2,355z"></path> </g> <g class="st0"> <path class="st1" d="M1151.8,384.3c1.2,0.9,2.8,1.5,5,1.8v1.2h-25.1v-1.1c3,0,5-0.3,6.2-0.8c1-0.4,2.1-1.4,2.1-3.5 c0-0.5-0.2-1.8-2.3-6.9l-5.1-12.5l-0.2-0.6l-3.9-9.6H1110l-3.9,9.6l-0.1,0.3l-1.8,4.5c-2.6,6.5-3.9,10.6-3.9,12.6 c0,2.3,0.8,4,2.3,5.2c1.3,1,3,1.6,5,1.7v1.1H1089V387c2.8-0.5,5-2.5,6.5-4.2c1.5-1.7,3.3-5.3,5.3-10.8c0.2-0.5,1-2.5,2.4-5.9 l19.3-47.3h1.1l22.2,54.2l3.1,7.2C1149.6,382,1150.6,383.4,1151.8,384.3z M1128.1,351.4l-8.9-22.1l-8.9,22.1H1128.1z"></path> <path class="st1" d="M1219.2,384.7c1.6,0.8,3.7,1.3,6.2,1.4v1.1h-32v-1.1c3.1,0,5.3-0.4,6.6-1c1.5-0.7,2.4-2,2.4-3.7 c0-1-0.3-2.1-1-3.2c-0.6-1.1-2.2-3.2-4.8-6.4l-15.4-19.5h-4.2v17.6c0,5.5,0.1,9,0.4,10.7c0.3,1.8,1,3.2,2.2,4.1 c1.2,0.9,3.3,1.3,6.5,1.3h1.6v1.1h-29.4v-1.1h1.2c3,0,5.1-0.4,6.3-1.2c1.2-0.8,2-2.1,2.4-3.9c0.3-1.6,0.5-5.3,0.5-11.1v-33.7 c0-5.6-0.2-9.1-0.5-10.7c-0.3-1.8-1.1-3-2.3-3.7c-1.1-0.7-3.4-1-6.9-1h-0.6v-1.1l7.8-0.3c6.7-0.2,12-0.4,15.7-0.4 c6.8,0,12.1,0.6,15.8,1.7c3.6,1.1,6.6,3,8.9,5.7c1.8,2.2,3,4.9,3.3,8c0,0,0,0,0,0c0,0.1,0,0.2,0,0.3v0.1 c0.1,2.6-0.1,15.2-18.4,17.2l15.7,19.7C1213.5,379.5,1217.4,383.8,1219.2,384.7z M1177,351h5.4c2.9,0,5.5-0.2,7.6-0.7 c0.2,0,0.3-0.1,0.5-0.1c0.5-0.1,1-0.3,1.5-0.4c1-0.4,2-0.9,2.9-1.5c2.4-1.6,3.8-3.6,4.6-5.6c0,0,0,0,0,0c0.7-1.6,1-3.3,1.2-4.6 c0,0,0,0,0,0c0-0.2,0-0.5,0-0.7c0-5.8-1.4-10.2-4.3-13c-2.8-2.8-7.4-4.2-13.6-4.2c-2.3,0-4,0.1-5.2,0.2l-0.5,0.1V351z"></path> <path class="st1" d="M1296.9,384.3c1.9,1.2,4.3,1.9,7.3,2v1.1h-33.5v-1.1h0.7c4,0,6.3-0.4,7.3-1.1c1.1-0.8,1.7-1.7,1.7-2.9 c0-1-0.8-3.2-7.3-9.9l-20.7-21.4c-2.6,1.8-4.9,1.9-5,1.9h-1.5V370c0,5.5,0.1,9,0.4,10.7c0.3,1.8,1,3.2,2.2,4.1 c1.2,0.9,3.3,1.3,6.5,1.3h0.7v1.1h-28.8v-1.1h1.5c3,0,5.1-0.4,6.3-1.2c1.2-0.8,2-2.1,2.4-3.9c0.3-1.6,0.5-5.3,0.5-11.1v-33.7 c0-5.8-0.2-9.4-0.5-11c-0.4-1.7-1.2-2.9-2.4-3.6c-1.1-0.6-3.3-0.9-6.8-0.9v-1.1h28.4v1.1h-0.6c-3.4,0-5.6,0.3-6.8,0.9 c-1.2,0.6-2,1.8-2.4,3.5c-0.4,1.6-0.5,5.2-0.5,11v15.3h1.5c0,0,2-0.1,4.3-1.6l1.3-1.1l16.2-15c3.6-3.6,5.3-6.1,5.3-7.9 c0-3.1-2.4-4.8-7.1-5v-1.1h24v1.1c-1.9,0.1-3.9,0.6-5.9,1.4c-2.1,0.9-4.1,2.1-5.9,3.5c-1.4,1.1-3.7,3.2-6.9,6.2h0 c-0.1,0.1-0.2,0.2-0.3,0.3l-12.7,12l25.5,29C1291.1,379.4,1294.9,383,1296.9,384.3z"></path> <path class="st1" d="M1351.9,319.8h23.1v1.1c-2.6,0.3-4.8,0.8-6.4,1.7c-1.8,1-2.9,2.1-3.4,3.5c-0.5,1.3-0.7,3.4-0.7,6.5v56.3h-1.2 l-44.5-60.6v44.5c0,4.1,0.2,6.7,0.6,8c0.4,1.4,1.6,2.7,3.5,3.8c1.8,1,4.3,1.6,7.7,1.7v1.1h-23.8v-1.1c3-0.3,5.4-0.9,7-1.8 c1.8-1.1,2.9-2.2,3.3-3.5c0.3-1.2,0.5-3.8,0.5-8.1v-36.5c0-5.2-0.2-8.7-0.7-10.6l-1.9-2.5c-2.4-3.2-11.1-2.3-11.1-2.3v-1.1h18.8 l40.6,55.1v-43c0-3.2-0.3-5.4-1-6.7c-0.7-1.4-2.1-2.4-4.1-3.2c-1.8-0.7-3.9-1-6.4-1.1V319.8z"></path> </g> <g class="st0"> <path class="st1" d="M1431.8,367.2h1.2l-1.3,20.2h-50.5v-1.1h0.8c3.5,0,5.8-0.5,6.9-1.5c1.1-1,1.8-2.3,2-3.8 c0.3-1.5,0.4-5,0.4-10.8v-33.7c0-5.3-0.1-8.7-0.4-10.5c-0.3-1.8-1-3.1-2.2-3.9c-1-0.7-3-1-6.1-1.1v-1.1h46.7l1.5,15.9h-1.2 c-1.1-4.7-2.3-7.9-3.9-10c-1.6-2.1-3.6-3.5-5.8-4c-2.1-0.5-5.6-0.8-10.3-0.8h-9.9l0,30.4h7.7c3.4,0,5.7-0.3,7.1-0.9 c1.5-0.6,2.4-1.6,2.9-3c0.4-1.2,0.6-3.3,0.7-6.4h1.1v22.3h-1.1c0-3.6-0.4-6-1-7.3c-0.7-1.5-1.7-2.4-3.1-2.9 c-1.3-0.4-3.3-0.6-6.3-0.6h-8l0,16.7c0,11.1,0.9,13.8,1.6,14.7c1.1,1.6,4,2.4,8.7,2.4h1.2c3.6,0,6.6-0.5,8.9-1.4 c2.4-1,4.6-3,6.8-5.9C1429,376,1430.6,372.1,1431.8,367.2z"></path> </g> <g class="st0"> <path class="st1" d="M1482,359.8c1.5,2.7,2.3,5.9,2.3,9.5c0,5.7-1.9,10.4-5.5,13.9c-3.7,3.6-8.7,5.4-14.9,5.4 c-5.9,0-11.1-2-15.4-5.9l0,0c0,0-0.1-0.1-0.2-0.2c-0.1-0.1-0.2-0.2-0.3-0.3c-0.4-0.4-1.2-0.8-2.1-0.8c-0.9,0.1-2.1,0.7-2.8,3.1l0,0 c-0.2,0.7-0.4,1.4-0.5,2.2h-1.4v-20.9h1.4c2.9,14.3,9.8,21.6,20.4,21.6c4.9,0,8.7-1.5,11.4-4.3c2.7-2.9,4-6.1,4-9.7 c0-3.6-1.2-6.7-3.6-9.1c-2.3-2.3-6.6-4.9-12.6-7.5c-5.3-2.3-9.4-4.4-12.1-6.2c-2.6-1.7-4.7-4-6.2-6.7c-1.5-2.7-2.2-5.7-2.2-8.8 c0-4.7,1.6-8.7,4.8-11.8c3.2-3.1,7.3-4.7,12.1-4.7c2.7,0,5.4,0.5,7.8,1.4c1.7,0.6,3.5,1.8,5.3,3.5l0,0c0,0,0,0,0,0 c0.1,0.1,0.3,0.2,0.4,0.4c0.4,0.4,1.2,0.8,2.1,0.9c0.7-0.1,1.5-0.5,2.2-1.6c0,0,0,0,0,0c0-0.1,0.1-0.2,0.1-0.3 c0.4-0.9,0.7-1.9,0.8-2.9h1v16.8h-1.1c-1.3-5.1-3.5-9.2-6.7-12.2c-3.3-3.1-7.1-4.7-11.4-4.7c-4.1,0-7.2,1.2-9.2,3.5 c-1.9,2.3-2.9,4.9-2.9,7.7c0,3.3,1.2,6.2,3.7,8.5c2.3,2.3,6.6,4.8,12.7,7.6c5.7,2.6,9.9,4.7,12.5,6.3 C1478.4,354.9,1480.4,357.1,1482,359.8z"></path> <path class="st1" d="M1531.3,359.8c1.5,2.7,2.3,5.9,2.3,9.5c0,5.7-1.9,10.4-5.5,13.9c-3.7,3.6-8.7,5.4-14.9,5.4 c-5.9,0-11.1-2-15.4-5.9l0,0c0,0-0.1-0.1-0.2-0.2c-0.1-0.1-0.2-0.2-0.3-0.3c-0.4-0.4-1.2-0.8-2.1-0.8c-0.9,0.1-2.1,0.7-2.8,3.1l0,0 c-0.2,0.7-0.4,1.4-0.5,2.2h-1.4v-20.9h1.4c2.9,14.3,9.8,21.6,20.4,21.6c4.9,0,8.7-1.5,11.4-4.3c2.7-2.9,4-6.1,4-9.7 c0-3.6-1.2-6.7-3.6-9.1c-2.3-2.3-6.6-4.9-12.6-7.5c-5.3-2.3-9.4-4.4-12.1-6.2c-2.6-1.7-4.7-4-6.2-6.7c-1.5-2.7-2.2-5.7-2.2-8.8 c0-4.7,1.6-8.7,4.8-11.8c3.2-3.1,7.3-4.7,12.1-4.7c2.7,0,5.4,0.5,7.8,1.4c1.7,0.6,3.5,1.8,5.3,3.5l0,0c0,0,0,0,0,0 c0.1,0.1,0.3,0.2,0.4,0.4c0.4,0.4,1.2,0.8,2.1,0.9c0.7-0.1,1.5-0.5,2.2-1.6c0,0,0,0,0,0c0-0.1,0.1-0.2,0.1-0.3 c0.4-0.9,0.7-1.9,0.8-2.9h1v16.8h-1.1c-1.3-5.1-3.5-9.2-6.7-12.2c-3.3-3.1-7.1-4.7-11.4-4.7c-4.1,0-7.2,1.2-9.2,3.5 c-1.9,2.3-2.9,4.9-2.9,7.7c0,3.3,1.2,6.2,3.7,8.5c2.3,2.3,6.6,4.8,12.7,7.6c5.7,2.6,9.9,4.7,12.5,6.3 C1527.7,354.9,1529.8,357.1,1531.3,359.8z"></path> </g> </svg> 