<?xml version="1.0" encoding="UTF-8"?> <svg xmlns="http://www.w3.org/2000/svg" id="Layer_1" data-name="Layer 1" viewBox="0 0 1425.6 1425.6"> <defs> <style>.cls-1{fill:#fff;}</style> </defs> <title>SMURPHYS</title> <path class="cls-1" d="M246.75,680.23l-.15,46.7c0,6.31.12,12.81,4.65,17.73,4.1,4.45,10.22,6.18,16.13,6.22a38,38,0,0,0,16.91-4.11c5.81-2.85,10.66-7.39,16.52-10.13a18.4,18.4,0,0,1,6-1.7c2.82-.26,3.08-.51,3.22,1.63.5,7.53-.24,15.37-.47,22.91q-.81,27-2.89,54c-.68,8.88,13.16,8.84,13.84,0q1.77-23.32,2.65-46.7.44-11.91.63-23.82c.11-6.75.85-14.21-5.2-18.75-10-7.53-23.54-.82-32.43,5.13-5,3.32-10,6.81-16.05,7.56-4,.5-9.08.32-9.66-4.46-1-8,0-16.7,0-24.77l.09-27.47c0-8.9-13.81-8.92-13.84,0Z"></path> <path class="cls-1" d="M285.77,671.41a547.49,547.49,0,0,0,.74,61.57c.61,8.84,14.45,8.91,13.84,0a547.49,547.49,0,0,1-.74-61.57c.39-8.9-13.45-8.88-13.84,0Z"></path> <path class="cls-1" d="M933.41,670.77a275.87,275.87,0,0,1-3.08,48.3c-.58,3.72.95,7.41,4.83,8.52,3.28.93,7.94-1.15,8.51-4.84a296.57,296.57,0,0,0,3.58-52c-.18-8.9-14-8.93-13.84,0Z"></path> <path class="cls-1" d="M954.68,675.28c.12,21.93-6,43.41-10.84,64.64q-7.41,32.6-14.8,65.19c-2,8.68,11.37,12.38,13.35,3.68q7.59-33.46,15.19-66.95c5-21.86,11.07-44,10.94-66.56,0-8.91-13.89-8.93-13.84,0Z"></path> <path class="cls-1" d="M932.8,744.07l77.2.16c2.67,0,9.18-.91,10.63,2,.82,1.62-.15,4.84-.42,6.52-.52,3.24-1.08,6.47-1.64,9.7q-3.3,18.95-7.31,37.74c-1.84,8.69,11.49,12.4,13.35,3.68q4.65-21.87,8.36-43.91c1-6.08,2.74-12.67.56-18.7-2.09-5.76-7.4-9.21-13.26-10.23-6.63-1.15-13.57-.63-20.26-.64l-21.8,0-45.41-.09c-8.9,0-8.92,13.82,0,13.84Z"></path> <path class="cls-1" d="M993.23,668.49a128,128,0,0,1-8.47,41.17c-3.17,8.33,10.2,11.93,13.35,3.68a139.88,139.88,0,0,0,9-44.85c.32-8.91-13.52-8.89-13.84,0Z"></path> <path class="cls-1" d="M1015.64,676.78l-8.6,29.71c-2.49,8.57,10.87,12.23,13.34,3.68l8.61-29.71c2.48-8.57-10.87-12.23-13.35-3.68Z"></path> <path class="cls-1" d="M350.64,803.59c.4-22.73,1.26-46.39,10.13-67.69,6.57-15.76,19.42-33.17,38.34-32.64a24.66,24.66,0,0,1,11.24,3c4.48,2.47,7.24,6.16,10.65,9.86,7.85,8.5,18.62,8.39,28.38,3.33,4.57-2.37,8.43-5.72,12.54-8.77,3.41-2.53,7.81-6,12.26-6.24,8.44-.51,10.64,13.1,11.84,19,2.66,13.22,4.71,26.6,7.05,39.89l3.46,19.75,1.9,10.77a16,16,0,0,0,.63,3.6c1,1.86-1.33,2.36,1.61.36l3.49-1h-.6l3.49.94-.64-.44c-7.34-5.07-14.27,6.92-7,12,5.23,3.61,11.16-.27,12.85-5.67,2-6.3-.51-13.49-1.61-19.77q-3.78-21.55-7.57-43.1C499.92,722.69,496,681.66,467,692c-5.45,1.94-10.15,5.23-14.69,8.74-4.38,3.39-10,8.51-15.88,8.61-5.1.09-7.94-6.17-11.22-9.26a39.61,39.61,0,0,0-15.45-9c-22.74-7-43.66,7.87-55.12,26.51-15.68,25.53-17.32,56.85-17.83,86-.16,8.91,13.68,8.92,13.84,0Z"></path> <path class="cls-1" d="M696.52,679a271,271,0,0,1,10.86,62c1.08,17.77,2,39.19-12.12,52.42-11.84,11.06-28,6.67-35.53-6.94-8.07-14.63-.3-32,10.75-42.69,13.43-12.92,32.69-18.18,50.46-21.79,17.12-3.48,38-4.59,51.76,8.25,6.72,6.25,9.35,14.85,11.42,23.53,1.91,8.08,3.9,17.85-.5,25.48-4.06,7.06-12.86,11.7-20.36,14.15s-14.52,1.28-18.8-5.84c-9.53-15.86-2.22-37.68,5.34-52.77,10-20,23.93-38,36.6-56.27,5.08-7.34-6.91-14.27-11.95-7-13.66,19.73-29.07,39.23-39,61.23-8.27,18.4-13.77,41.33-3.85,60.23,4.56,8.71,12.91,15,22.89,15.57,11,.63,22.83-5.15,31.39-11.72A35,35,0,0,0,800,769c.24-11.26-2.89-23.69-7.4-33.94-9.15-20.77-31.59-29.65-53.16-29.15-12.25.28-24.56,2.91-36.33,6.16-11,3-22.06,7.19-31.67,13.5-17.26,11.35-31.12,31.19-28.57,52.69,2.27,19.18,19.51,37.63,39.92,35.49,26.77-2.8,38-30.37,38.85-54,1-28.13-3.65-57.54-11.79-84.41-2.57-8.5-15.93-4.88-13.34,3.68Z"></path> <path class="cls-1" d="M545.12,804.21l8.7-52.43c2.56-15.42,3.89-32.47,12.08-46.15,3.38-5.65,8.46-10.25,15.31-10.66,6.42-.38,10.18,4,12.6,9.42,6.65,14.9,10.51,31.84,13.88,47.74a325.71,325.71,0,0,1,6.87,57.8c.27,8.89,14.11,8.93,13.84,0a348.12,348.12,0,0,0-6.83-58.9q-2.88-14.21-7-28.13c-2.57-8.75-5.14-17.81-9.08-26.06-7.43-15.53-26.08-20.32-40.34-10.49-15,10.33-19.39,30.27-22.25,47.08-3.8,22.35-7.42,44.73-11.13,67.1-1.45,8.71,11.89,12.46,13.34,3.68Z"></path> <path class="cls-1" d="M832.78,687.6a348,348,0,0,0,58.32,54.87c3,2.24,7.7.47,9.47-2.49,2.1-3.5.5-7.24-2.48-9.46a333.46,333.46,0,0,1-55.52-52.71c-5.75-6.81-15.5,3-9.79,9.79Z"></path> <path class="cls-1" d="M826.91,691.6c13.66-7.4,28.7-15.57,44.78-12.7,13.65,2.44,26.2,11.94,27.82,26.44a25,25,0,0,1-5,18.54c-5,6.2-12.51,10.35-19,14.78l-46.66,32c-7.3,5-.38,17,7,12l43-29.45c12.26-8.4,26.57-16.14,32.2-30.73,4.89-12.7,2.36-28-5.77-38.76-8.55-11.36-21.94-17.59-35.89-18.94-17.81-1.72-34.27,6.71-49.44,14.93-7.84,4.24-.86,16.19,7,12Z"></path> <path class="cls-1" d="M821.82,680.91q2.86,64.08-.44,128.2c-.46,8.9,13.38,8.87,13.84,0q3.3-64.05.44-128.2c-.39-8.87-14.24-8.92-13.84,0Z"></path> <path class="cls-1" d="M1115.39,694.45q-1.47,55.66-8.11,111c-.44,3.72,3.5,6.92,6.92,6.92,4.11,0,6.48-3.19,6.92-6.92q6.64-55.28,8.11-111c.23-8.91-13.61-8.9-13.84,0Z"></path> <path class="cls-1" d="M1073.15,662.83c-12.62,12.6-22,29.3-22.16,47.5a52.12,52.12,0,0,0,21.65,42.3c15.48,11.17,35.4,10.49,53.4,7.91,18.68-2.69,36.72-7.25,48.15-23.49,12.82-18.21,10.14-41.28,1.57-60.61-1.53-3.44-6.48-4.18-9.47-2.48-3.54,2-4,6.07-2.48,9.47,5.9,13.31,8.25,29.29,1,42.55-7.57,13.8-21.55,17.76-36.13,20.22-14.11,2.38-30.6,4.6-43.84-2.31A37.71,37.71,0,0,1,1065,714.34c-1.41-16,7-30.77,18-41.72,6.31-6.3-3.47-16.09-9.78-9.79Z"></path> </svg> 