<?xml version="1.0" encoding="UTF-8"?> <svg xmlns="http://www.w3.org/2000/svg" id="Layer_1" data-name="Layer 1" viewBox="0 0 1113.54 156.75"> <defs> <style>.cls-1{isolation:isolate;}.cls-2{fill:#73ffb6;}</style> </defs> <title>2GEM</title> <g class="cls-1"> <path class="cls-2" d="M1.62,62.56H36.78L46,18.91H57L47.72,62.56H94.34l9.13-43.65h11l-9.24,43.65h21.88v11h-24L94.55,115h32.61v11H92.32l-9,43.44H72.15l9.23-43.44h-47l-8.82,43.44H14.37l9.13-43.44H1.62V115H25.84l8.6-41.43H1.62Zm43.76,11-8.71,41.21H83.61l8.6-41.21Z" transform="translate(-1.62 -18.91)"></path> <path class="cls-2" d="M218,97H275.9v2.48c-6.27.09-10.51.82-12.94,2.24a11.47,11.47,0,0,0-5.32,7.73c-.79,3.35-1.17,27.59-1.17,40.21v13.77a26.43,26.43,0,0,0-3.17-.21c-5.44,0-12.62,1.7-21.34,5.07-11.52,4.46-22.32,6.72-32.11,6.72-19.61,0-36.14-6.72-49.13-20s-19.58-30.28-19.58-50.63,6.3-38.14,18.72-53.33,29.43-22.79,50.71-22.79c16.18,0,30,5.49,41.3,16.32a7.05,7.05,0,0,0,3.81,1.29c1.89-.19,4.16-1.48,5.6-5.85a53.58,53.58,0,0,0,1.28-6.56h2.56V79h-2.58c-2.16-14.51-7.75-26.22-16.61-34.8a46.45,46.45,0,0,0-33.39-13.32c-13.45,0-25.34,5.21-35.33,15.47s-15.05,28.58-15.05,54.45S157,145.16,166.66,156s21.79,16.41,36.09,16.41a43.63,43.63,0,0,0,20.11-4.65c6.08-3.12,10.3-7,12.55-11.57s3.35-10.19,3.35-17c0-8-.52-29.65-1.59-32.42a10,10,0,0,0-5.29-5.93c-2.25-1-6.13-1.42-11.87-1.42h-2Z" transform="translate(-1.62 -18.91)"></path> <path class="cls-2" d="M390.81,130.16h2.59l-2.82,42.2H284.82v-2.27h1.62c7.36,0,12.05-1.05,14.35-3.21a14.28,14.28,0,0,0,4.27-8c.57-3,.85-10.48.85-22.71V65.55c0-11.15-.3-18.31-.9-21.89-.65-3.82-2.19-6.57-4.6-8.15-2.2-1.44-6.35-2.18-12.7-2.27V31h97.74l3.06,33.27h-2.44c-2.22-9.79-4.89-16.64-8.12-20.89a21.87,21.87,0,0,0-12.13-8.44c-4.5-1.11-11.76-1.68-21.6-1.68H323.51l-.06,63.58h16.16c7.07,0,11.92-.62,14.82-1.91a10.55,10.55,0,0,0,6.07-6.22c.87-2.45,1.32-6.85,1.37-13.42h2.31v46.66h-2.32c-.07-7.55-.75-12.58-2.09-15.36a10.83,10.83,0,0,0-6.49-6c-2.68-.87-7-1.29-13.16-1.29H323.45l.06,34.87c0,23.33,2,28.8,3.45,30.88,2.41,3.4,8.39,5.06,18.29,5.06h2.58c7.51,0,13.78-1,18.67-3s9.72-6.22,14.15-12.45C384.9,148.66,388.31,140.43,390.81,130.16Z" transform="translate(-1.62 -18.91)"></path> <path class="cls-2" d="M547.07,31H588v2.28h-3.88c-7.18,0-11.79.63-14.15,1.92S565.81,39,565,42.54c-.76,3.3-1.12,10.85-1.12,23v70.62c0,11.5.28,18.84.84,22.46.62,3.85,2.2,6.76,4.69,8.67s6.94,2.81,13.62,2.81H588v2.25H523.54v-2.25h3.67c6.23,0,10.5-.84,13-2.57a12.11,12.11,0,0,0,5-8.1c.68-3.43,1-11,1-23.27V38.51l-3.87,8.82-53.73,125h-3.2L432.66,50.2v78.66c0,11.56.36,19.55,1,23.79a19.87,19.87,0,0,0,6.84,11.77c3.57,3.12,8.49,5,14.65,5.58v2.36H407.6V170a25.85,25.85,0,0,0,14.15-5.24,19.53,19.53,0,0,0,7.34-11.87c.84-4.51,1.26-12.58,1.26-24.69V65.55c0-6.23-.09-15-.29-21.44-.27-1.1-2.1-6.58-11.69-9.28,0,0-.05,0-.1,0-2.2-.89-5.71-1.39-10.69-1.52h-.32c-.73,0-1.52,0-2.33,0h-2.57V31H443l52.21,121.1Z" transform="translate(-1.62 -18.91)"></path> <path class="cls-2" d="M663.87,170.09v2.27H602.32V170.1h2.86c6.31,0,10.61-.84,13.16-2.56a12,12,0,0,0,4.94-8.12c.65-3.41,1-11,1-23.24V65.55c0-11.65-.31-19-1-22.44-.7-3.7-2.29-6.32-4.75-7.79s-7.1-2.09-14.5-2.09h-1.72V31h61.55v2.26h-1.73c-7.17,0-11.8.62-14.14,1.91s-4.12,3.83-4.93,7.39c-.76,3.31-1.12,10.85-1.12,23v70.63c0,11.51.26,18.85.79,22.44.56,3.85,2.12,6.76,4.64,8.67s6.94,2.8,13.62,2.8Z" transform="translate(-1.62 -18.91)"></path> <path class="cls-2" d="M783,31h48.3v2.39c-5.53.58-10,1.76-13.31,3.54-3.69,2-6.08,4.45-7.13,7.36-1,2.75-1.46,7.18-1.46,13.55V175.66h-2.55L713.64,48.76v93.15c0,8.49.42,14,1.26,16.75.89,2.93,3.36,5.6,7.37,8,3.66,2.18,9.09,3.33,16.09,3.46v2.28H688.59V170c6.29-.58,11.22-1.86,14.65-3.85,3.85-2.2,6.11-4.59,6.87-7.31.7-2.47,1-8,1-16.93V65.55c0-10.93-.51-18.19-1.47-22.17l-3.91-5.32c-4.95-6.76-23.27-4.83-23.27-4.83V31H722l84.91,115.28v-90c0-6.66-.68-11.22-2.05-14s-4.29-5.08-8.49-6.68A41.51,41.51,0,0,0,783,33.23Z" transform="translate(-1.62 -18.91)"></path> <path class="cls-2" d="M907.07,170.09v2.27H845.53V170.1h2.86c6.31,0,10.61-.84,13.15-2.56a12,12,0,0,0,5-8.12c.64-3.41,1-11,1-23.24V65.55c0-11.65-.31-19-1-22.44-.69-3.7-2.29-6.32-4.75-7.79s-7.1-2.09-14.49-2.09h-1.72V31h61.54v2.26h-1.73c-7.17,0-11.79.62-14.14,1.91s-4.12,3.83-4.93,7.39c-.75,3.31-1.12,10.85-1.12,23v70.63c0,11.51.26,18.85.79,22.44.57,3.85,2.13,6.76,4.64,8.67s6.94,2.8,13.63,2.8Z" transform="translate(-1.62 -18.91)"></path> <path class="cls-2" d="M1011.09,114.74a40.46,40.46,0,0,1,4.8,20c0,11.88-3.9,21.67-11.59,29.1S986.1,175,973.13,175a46.64,46.64,0,0,1-32.3-12.41l0,.08a4.63,4.63,0,0,0-.36-.38c-.22-.2-.44-.37-.65-.57a7.29,7.29,0,0,0-4.37-1.71c-2,.19-4.37,1.55-5.81,6.42v-.09c-.41,1.42-.79,2.91-1.11,4.51h-2.84V127.19h2.85c6.08,30,20.45,45.24,42.7,45.24,10.16,0,18.18-3,23.81-9.05s8.48-12.83,8.48-20.3A26.38,26.38,0,0,0,996.05,124c-4.86-4.92-13.75-10.23-26.45-15.79C958.49,103.31,950,99,944.35,95.3a38.54,38.54,0,0,1-17.6-32.4c0-9.85,3.36-18.16,10-24.7s15.2-9.89,25.42-9.89a46,46,0,0,1,16.31,2.9,35,35,0,0,1,11,7.27v0l.08.09.84.78a7.26,7.26,0,0,0,4.46,1.78c1.5-.14,3.22-1,4.6-3.45a.16.16,0,0,0,0-.06c.09-.17.18-.37.27-.55a23.51,23.51,0,0,0,1.77-6.08h2.14V66h-2.28c-2.71-10.71-7.43-19.3-14-25.56a34,34,0,0,0-24-9.8c-8.69,0-15.18,2.49-19.32,7.41A24.59,24.59,0,0,0,938,54.19,23.64,23.64,0,0,0,945.7,72c4.89,4.74,13.81,10.11,26.49,15.95,11.95,5.47,20.76,9.93,26.18,13.26A36.17,36.17,0,0,1,1011.09,114.74Z" transform="translate(-1.62 -18.91)"></path> <path class="cls-2" d="M1110.36,114.74a40.57,40.57,0,0,1,4.8,20c0,11.88-3.9,21.67-11.59,29.1S1085.37,175,1072.4,175a46.64,46.64,0,0,1-32.3-12.41l0,.08a4.63,4.63,0,0,0-.36-.38c-.22-.2-.44-.37-.65-.57a7.29,7.29,0,0,0-4.37-1.71c-2,.19-4.37,1.55-5.81,6.42v-.09c-.41,1.42-.79,2.91-1.11,4.51H1025V127.19h2.85c6.08,30,20.45,45.24,42.7,45.24,10.16,0,18.18-3,23.81-9.05s8.48-12.83,8.48-20.3a26.38,26.38,0,0,0-7.51-19.08c-4.86-4.92-13.75-10.23-26.45-15.79-11.11-4.9-19.61-9.24-25.25-12.91A38.58,38.58,0,0,1,1026,62.9c0-9.85,3.37-18.16,10-24.7s15.21-9.89,25.43-9.89a46,46,0,0,1,16.31,2.9,35,35,0,0,1,11,7.27v0l.08.09.83.78a7.32,7.32,0,0,0,4.47,1.78c1.49-.14,3.22-1,4.6-3.45a.16.16,0,0,0,0-.06c.09-.17.18-.37.26-.55a23.53,23.53,0,0,0,1.78-6.08H1103V66h-2.28c-2.71-10.71-7.43-19.3-14-25.56a34,34,0,0,0-24-9.8c-8.69,0-15.18,2.49-19.32,7.41a24.59,24.59,0,0,0-6.14,16.1A23.64,23.64,0,0,0,1045,72c4.89,4.74,13.81,10.11,26.49,15.95,12,5.47,20.76,9.93,26.18,13.26A36.17,36.17,0,0,1,1110.36,114.74Z" transform="translate(-1.62 -18.91)"></path> </g> </svg> 