<?xml version="1.0" encoding="UTF-8"?> <svg xmlns="http://www.w3.org/2000/svg" id="Capa_1" data-name="Capa 1" viewBox="0 0 97.8 97.8"> <defs> <style>.cls-1{fill:#7dff3a;}</style> </defs> <title>deezer-logo2</title> <path class="cls-1" d="M48.9,0A48.9,48.9,0,1,0,97.8,48.9,48.91,48.91,0,0,0,48.9,0ZM25.7,69.2H12.4v-4H25.7Zm0-5.2H12.4V60H25.7Zm0-5.2H12.4v-4H25.7Zm0-5.3H12.4v-4H25.7Zm0-5.2H12.4v-4H25.7ZM40.6,69.2H27.3v-4H40.6Zm0-5.2H27.3V60H40.6Zm0-5.2H27.3v-4H40.6ZM55.5,69.2H42.2v-4H55.5v4Zm0-5.2H42.2V60H55.5v4Zm0-5.2H42.2v-4H55.5v4Zm0-5.3H42.2v-4H55.5v4Zm0-5.2H42.2v-4H55.5v4Zm0-5.3H42.2V39H55.5v4Zm0-5.2H42.2v-4H55.5v4Zm15,31.4H57.1v-4H70.4l.1,4Zm0-5.2H57.1V60H70.4l.1,4Zm0-5.2H57.1v-4H70.4l.1,4Zm0-5.3H57.1v-4H70.4l.1,4Zm0-5.2H57.1v-4H70.4l.1,4ZM85.4,69.2H72.1v-4H85.4v4Zm0-5.2H72.1V60H85.4v4Zm0-5.2H72.1v-4H85.4v4Zm0-5.3H72.1v-4H85.4v4Zm0-5.2H72.1v-4H85.4v4Zm0-5.3H72.1V39H85.4v4Zm0-5.2H72.1v-4H85.4v4ZM72.1,32.5v-4H85.4v4Z"></path> </svg> 