<?xml version="1.0" encoding="UTF-8"?> <svg xmlns="http://www.w3.org/2000/svg" id="Layer_1" data-name="Layer 1" viewBox="0 0 512 512"> <defs> <style>.cls-1{fill:#7dff3a;}</style> </defs> <title>twitter2</title> <path class="cls-1" d="M256,0C114.6,0,0,114.6,0,256S114.6,512,256,512,512,397.4,512,256,397.4,0,256,0ZM372.9,199.6c.1,2.5.2,5.1.2,7.6,0,77.6-59.1,167.2-167.2,167.2h0A166.12,166.12,0,0,1,115.8,348a129.92,129.92,0,0,0,14,.8,117.8,117.8,0,0,0,73-25.2,59,59,0,0,1-54.9-40.8,57.79,57.79,0,0,0,11,1.1,56.33,56.33,0,0,0,15.5-2.1,58.7,58.7,0,0,1-47.1-57.6v-.8a57.19,57.19,0,0,0,26.6,7.3,58.53,58.53,0,0,1-26.1-48.9,57.65,57.65,0,0,1,8-29.5,166.89,166.89,0,0,0,121.1,61.4,59,59,0,0,1,57.3-72.2,58.41,58.41,0,0,1,42.9,18.6,114.69,114.69,0,0,0,37.3-14.3,59.22,59.22,0,0,1-25.8,32.5,115.3,115.3,0,0,0,33.7-9.3A118.94,118.94,0,0,1,372.9,199.6Z"></path> </svg> 